<?xml version="1.0" encoding="UTF-8"?>
<svg id="Layer_2" data-name="Layer 2" xmlns="http://www.w3.org/2000/svg" viewBox="0 0 329.87 74.89">
  <defs>
    <style>
      .cls-1 {
        fill: #4d4d4f;
        stroke-width: 0px;
      }
    </style>
  </defs>
  <g id="Layer_1-2" data-name="Layer 1">
    <path class="cls-1" d="M0,51.27c0-.74.08-1.72.25-2.95.49-5,2.38-13.94,3.03-16.65.16-.57.74-.9,1.23-.9.57,0,1.15.33,1.15.98l-.08.41c-.74,2.71-2.62,11.15-3.2,15.91-.08.25-.08.49-.08.74l2.05-3.94c2.79-5.33,5.9-11.32,9.27-16.15.98-1.39,1.89-2.38,2.71-2.87.33-.16.57-.33.9-.33l.49.16c.49.16.82.57.98,1.31.16.41.16.98.16,1.8,0,.74,0,1.64-.16,2.79l-.08.49c-.25,1.97-1.31,9.76-1.8,14.76,1.89-3.2,3.85-6.31,6.15-9.1,1.39-1.64,2.71-2.87,3.85-3.12l.66-.08c1.15,0,2.05.9,2.54,3.12.98,5.49,1.8,8.86,2.87,10.74.66,1.23,1.39,1.72,2.38,1.72l.9-.08c3.53-1.31,8.86-7.3,13.2-12.22,1.97-2.13,3.69-4.1,5.08-5.33.16-.16.33-.25.57-.25.16,0,.41.08.57.33.16.16.25.41.25.57,0,.33-.16.57-.33.74-1.31,1.15-3.03,3.12-4.92,5.25-4.51,5-10,11.15-13.86,12.63l-.74.16c-.57.16-1.07.25-1.56.25-1.48,0-2.62-.74-3.61-2.38-1.07-2.05-1.97-5.41-3.03-11.07-.25-1.23-.57-1.64-1.07-1.64h-.08c-2.54.57-7.13,8.61-9.51,12.63-.49.9-.9,1.56-1.23,2.05-.08.16-.33.33-.66.33h-.16c-.41,0-.66-.41-.66-.82v-.25c0-3.28,1.72-16.07,2.05-18.61l.08-.49.33-3.36c0-.41-.08-.57-.16-.57-.57,0-1.48,1.48-1.8,1.89-3.44,4.92-6.23,10.41-9.18,15.91-1.07,2.13-2.05,4.02-2.79,5.33l-.49.82c-.49.82-1.31,1.15-1.56,1.15-.57,0-.82-.66-.9-1.8Z"/>
    <path class="cls-1" d="M50.02,50.7c-.66-.82-1.07-2.13-1.07-4.1,0-.82.08-1.72.25-2.79.08-.66.16-1.23.33-1.8.57-2.79,1.64-5.66,3.03-7.63,1.23-1.97,2.87-3.28,4.43-3.28l.57.08c.08,0,.16,0,.25.08.41.08.66.57.66.98h.33c.57,0,1.23.49,1.48,1.89.16.82.33,1.56.33,2.38.41.16.82.25,1.39.25,1.97,0,5.08-1.07,10-4.1l.49-.16c.25,0,.57.16.66.49.08.16.08.33.08.49,0,.33-.16.57-.41.74-5,3.12-8.45,4.26-10.74,4.26-.57,0-1.07-.08-1.48-.16-.33,4.1-2.13,7.95-4.1,10.33l-.25.33c-1.07,1.23-2.13,2.05-3.12,2.46-.41.16-.82.25-1.23.25-.74,0-1.39-.33-1.89-.98ZM53.3,48.89c.49-.16,1.15-.66,1.89-1.39,1.97-2.38,3.69-6.07,3.77-9.92-.49-.33-.82-.82-1.07-1.23-.33-.66-.41-1.31-.41-1.89v-.49c0-.33.08-.66.16-.9h-.41c-.74,0-1.56.74-2.3,2.05-1.07,1.56-1.97,3.85-2.46,6.4l-.33,1.64c-.08,1.07-.16,1.97-.16,2.79,0,.9.08,1.56.25,2.05.08.49.25.74.41.82l.33.16.33-.08Z"/>
    <path class="cls-1" d="M69.45,56.52c-.49-.16-.74-.74-.74-1.56v-.33c.08-.66.25-1.56.57-2.54.98-3.36,3.03-8.28,4.18-10.91.74-1.72,1.07-2.87,1.07-3.77,0-1.56-.9-2.21-1.72-2.87-.9-.74-1.8-1.39-1.8-2.62,0-.66.33-1.56.98-2.71l.08-.16.49-.74c.25-.16.57-.33.9-.33.16,0,.49.16.49.16.25.08.33.25.41.41l.08.49c0,.33-.08.57-.25.9-.49.74-.66,1.31-.66,1.8,0,.74.57,1.15,1.07,1.64,1.07.82,2.21,1.8,2.21,3.94,0,1.15-.41,2.71-1.31,4.76-.9,2.13-2.54,5.66-3.61,8.53-.74,2.05-1.15,3.28-1.23,3.69,1.64-1.39,4.67-5.99,8.2-11.32,2.3-3.69,4.76-7.46,6.89-10.25.16-.16.33-.33.57-.33l.41.16c.16.16.25.33.25.57s-.08.41-.16.57c-2.13,2.79-4.51,6.48-6.89,10.17-1.39,2.21-7.63,12.38-10,12.71-.16,0-.33,0-.49-.08Z"/>
    <path class="cls-1" d="M81.75,49.47c-.82-.74-1.23-1.97-1.31-3.44v-.66c0-3.36,1.56-7.79,3.77-10.82,2.46-3.36,4.35-4.67,5.58-4.84h.33c1.31,0,2.05.98,2.21,2.46v.82c-.16.98-.57,2.21-1.31,3.2-.98,1.31-2.54,2.3-4.59,2.3-.49,0-.98,0-1.56-.16-1.15,2.38-1.97,4.92-2.05,6.97v.66c0,.66.08,1.23.25,1.64.25.41.57.66,1.07.74h.16c1.07,0,2.71-.66,4.84-2.21l.25-.16c3.03-2.38,7.05-6.48,12.38-13.04.16-.25.41-.33.66-.33.16,0,.33,0,.49.16.16.25.25.49.25.74s-.08.41-.16.57c-5.33,6.64-9.51,10.91-12.71,13.37l-.57.41c-1.72,1.31-3.2,1.97-4.35,2.3-.49.16-.98.25-1.39.25-.9,0-1.64-.33-2.21-.9ZM89.71,34.95c.57-.66.82-1.48.9-2.21v-.25c0-.33-.08-.49-.33-.49l-.41.08c-.74.33-1.8,1.31-3.28,3.36l-.82,1.15.66.08c1.56,0,2.62-.82,3.28-1.72Z"/>
    <path class="cls-1" d="M110.53,61.52c-1.15,0-2.21-.57-2.62-1.8-.16-.49-.25-1.07-.25-1.72,0-1.39.41-3.2,1.48-5.41h.08l.16-.33c1.56-3.36,4.35-6.56,7.46-9.68l-.33-1.97c-.33-1.89-.66-3.61-.66-5.08v-.41c0-3.2.98-4.18,1.8-4.18.74,0,1.39.66,1.39,1.31,0,.25-.08.49-.33.66-.41.41-.57,1.07-.57,1.89v.49c0,1.31.25,2.95.57,4.76l.16.66c3.77-3.36,6.31-5.33,9.76-8.04l.41-.16c.33,0,.57.16.74.41.08.16.16.33.16.57s-.16.57-.33.74l-1.23.9c-2.79,2.21-6.15,4.84-9.18,7.71.08,1.07.16,2.13.16,3.2,0,6.15-2.05,10.58-4.35,13.12-1.31,1.39-2.79,2.21-4.02,2.38h-.49ZM113.65,57.67c1.8-2.13,3.44-5.9,3.44-11.32v-1.48c-2.71,2.62-4.92,5.49-6.23,8.2-.16.25-.25.25-.25.41-.82,1.97-1.23,3.36-1.23,4.35l.16.98c.16.49.49.66.98.66h.33c.82-.08,1.8-.74,2.79-1.8Z"/>
    <path class="cls-1" d="M136.53,59.96c-.9-.9-1.64-2.95-2.05-6.48-.16-1.31-.25-2.71-.25-3.94,0-1.48.08-2.87.16-4.02l-.82,1.23c-2.87,4.1-5.08,5.9-6.72,6.15h-.41c-1.23,0-2.13-.74-2.62-2.05-.33-.9-.49-2.13-.49-3.44l.08-1.39c.33-5,2.79-11.81,6.56-14.27.33-.33.9-.57,1.31-.74h.08c.33,0,.49.08.66.25.25.16.41.49.41.82v.16c0,.33-.16.57-.41.66-3.44,2.05-5.74,8.36-6.15,13.04l-.08,1.39c0,.98.08,1.8.33,2.38.16.49.49.82.9.82h.16c1.07-.25,2.87-1.8,5.33-5.33.74-1.07,1.31-1.89,1.72-2.38.33-.57.82-1.48,1.31-1.56l.25-.08.66.16c.41.25.66.74.66,1.15v.16c-.08.25-.08.49-.08.9-.16,1.23-.41,3.61-.41,6.23,0,1.15,0,2.38.16,3.53.33,2.46.74,3.94,1.23,4.59.16.25.25.33.41.33.25-.08.49-.33.9-.82,1.23-1.56,2.54-4.84,3.69-8.53,1.23-3.44,2.05-9.76,2.05-13.86v-1.39c0-1.97.66-2.79,1.72-2.87.82,0,1.8.49,3.03,1.15,1.64.9,3.85,2.13,6.31,2.13,1.48,0,3.03-.41,4.67-1.56.08-.08.25-.16.41-.16.33,0,.57.16.74.41l.16.49c0,.33-.16.57-.41.74-1.97,1.48-3.77,1.97-5.49,1.97-2.79,0-5.25-1.39-7.13-2.38-.98-.49-1.8-.66-2.13-.66-.16,0-.16.08-.16,1.07v1.07c0,4.43-.9,10.5-2.3,14.68-.74,2.62-1.64,5.08-2.54,6.89-.74,1.56-1.56,2.71-2.38,3.36-.57.49-1.07.74-1.56.74s-.98-.25-1.48-.74Z"/>
    <path class="cls-1" d="M156.53,49.47c-.82-.74-1.23-1.97-1.31-3.44v-.66c0-3.36,1.56-7.79,3.77-10.82,2.46-3.36,4.35-4.67,5.58-4.84h.33c1.31,0,2.05.98,2.21,2.46v.82c-.16.98-.57,2.21-1.31,3.2-.98,1.31-2.54,2.3-4.59,2.3-.49,0-.98,0-1.56-.16-1.15,2.38-1.97,4.92-2.05,6.97v.66c0,.66.08,1.23.25,1.64.25.41.57.66,1.07.74h.16c1.07,0,2.71-.66,4.84-2.21l.25-.16c3.03-2.38,7.05-6.48,12.38-13.04.16-.25.41-.33.66-.33.16,0,.33,0,.49.16.16.25.25.49.25.74s-.08.41-.16.57c-5.33,6.64-9.51,10.91-12.71,13.37l-.57.41c-1.72,1.31-3.2,1.97-4.35,2.3-.49.16-.98.25-1.39.25-.9,0-1.64-.33-2.21-.9ZM164.49,34.95c.57-.66.82-1.48.9-2.21v-.25c0-.33-.08-.49-.33-.49l-.41.08c-.74.33-1.8,1.31-3.28,3.36l-.82,1.15.66.08c1.56,0,2.62-.82,3.28-1.72Z"/>
    <path class="cls-1" d="M172.6,49.47c-.82-.74-1.23-1.97-1.31-3.44v-.66c0-3.36,1.56-7.79,3.77-10.82,2.46-3.36,4.35-4.67,5.58-4.84h.33c1.31,0,2.05.98,2.21,2.46v.82c-.16.98-.57,2.21-1.31,3.2-.98,1.31-2.54,2.3-4.59,2.3-.49,0-.98,0-1.56-.16-1.15,2.38-1.97,4.92-2.05,6.97v.66c0,.66.08,1.23.25,1.64.25.41.57.66,1.07.74h.16c1.07,0,2.71-.66,4.84-2.21l.25-.16c3.03-2.38,7.05-6.48,12.38-13.04.16-.25.41-.33.66-.33.16,0,.33,0,.49.16.16.25.25.49.25.74s-.08.41-.16.57c-5.33,6.64-9.51,10.91-12.71,13.37l-.57.41c-1.72,1.31-3.2,1.97-4.35,2.3-.49.16-.98.25-1.39.25-.9,0-1.64-.33-2.21-.9ZM180.56,34.95c.57-.66.82-1.48.9-2.21v-.25c0-.33-.08-.49-.33-.49l-.41.08c-.74.33-1.8,1.31-3.28,3.36l-.82,1.15.66.08c1.56,0,2.62-.82,3.28-1.72Z"/>
    <path class="cls-1" d="M187.94,71.82v-1.23c0-6.07,2.13-11.88,5.41-31.72.9-5.66,2.05-11.07,3.12-16.07l-20.58-.08c-.08.16-.16.25-.33.25-.57.25-1.15.33-1.56.33-.33,0-.66-.08-.82-.25-.33-.16-.57-.49-.66-.82,0-.33,0-.74.16-.98v-.08c.25-.25.57-.49.98-.49h.16c.57-.08,1.56-.08,2.95-.08l9.1.16,10.99.25c1.39-6.07,3.03-11.23,4.67-14.6.25-.66.98-1.48,1.72-1.64.33,0,.57,0,.9.16.25.16.41.49.49.82l.08.41c0,.41-.16.9-.41,1.48-.08.16-.25.25-.41.33-1.48,3.12-2.87,7.63-4.26,13.12h.9c8.12.08-5.44.16,1.29.16,5.99,0,10.58-.08,12.14-.33h.16c.41,0,.82.33.9.74v.16c0,.41-.33.82-.74.9-1.64.25-6.23.33-12.3.33-7.87,0,6.26-.16-2.76-.16-1.23,5.17-2.38,10.91-3.44,16.89-3.61,20.25-5.9,26.31-5.9,31.15v.25l.08.57c0,.74-.49,1.15-.98,1.15s-.9-.33-1.07-1.07Z"/>
    <path class="cls-1" d="M246.89,57.52c-.49-.16-.74-.74-.74-1.56v-.33c.08-.66.25-1.56.57-2.54.98-3.36,3.03-8.28,4.18-10.91.74-1.72,1.07-2.87,1.07-3.77,0-1.56-.9-2.21-1.72-2.87-.9-.74-1.8-1.39-1.8-2.62,0-.66.33-1.56.98-2.71l.08-.16.49-.74c.25-.16.57-.33.9-.33.16,0,.49.16.49.16.25.08.33.25.41.41l.08.49c0,.33-.08.57-.25.9-.49.74-.66,1.31-.66,1.8,0,.74.57,1.15,1.07,1.64,1.07.82,2.21,1.8,2.21,3.94,0,1.15-.41,2.71-1.31,4.76-.9,2.13-2.54,5.66-3.61,8.53-.74,2.05-1.15,3.28-1.23,3.69,1.64-1.39,4.67-5.99,8.2-11.32,2.3-3.69,4.76-7.46,6.89-10.25.16-.16.33-.33.57-.33l.41.16c.16.16.25.33.25.57s-.08.41-.16.57c-2.13,2.79-4.51,6.48-6.89,10.17-1.39,2.21-7.63,12.38-10,12.71-.16,0-.33,0-.49-.08Z"/>
    <path class="cls-1" d="M259.19,50.47c-.82-.74-1.23-1.97-1.31-3.44v-.66c0-3.36,1.56-7.79,3.77-10.82,2.46-3.36,4.35-4.67,5.58-4.84h.33c1.31,0,2.05.98,2.21,2.46v.82c-.16.98-.57,2.21-1.31,3.2-.98,1.31-2.54,2.3-4.59,2.3-.49,0-.98,0-1.56-.16-1.15,2.38-1.97,4.92-2.05,6.97v.66c0,.66.08,1.23.25,1.64.25.41.57.66,1.07.74h.16c1.07,0,2.71-.66,4.84-2.21l.25-.16c3.03-2.38,7.05-6.48,12.38-13.04.16-.25.41-.33.66-.33.16,0,.33,0,.49.16.16.25.25.49.25.74s-.08.41-.16.57c-5.33,6.64-9.51,10.91-12.71,13.37l-.57.41c-1.72,1.31-3.2,1.97-4.35,2.3-.49.16-.98.25-1.39.25-.9,0-1.64-.33-2.21-.9ZM267.15,35.95c.57-.66.82-1.48.9-2.21v-.25c0-.33-.08-.49-.33-.49l-.41.08c-.74.33-1.8,1.31-3.28,3.36l-.82,1.15.66.08c1.56,0,2.62-.82,3.28-1.72Z"/>
    <path class="cls-1" d="M282.56,50.96l-.08-1.23c0-2.38.57-5.82,1.89-10.74-2.87,4.84-7.3,7.79-7.3,7.79-.66.41-1.23.57-1.72.57-.9,0-1.31-.82-1.39-2.13l.16-1.31c.33-1.97,1.39-4.67,2.87-7.05,1.8-2.95,4.26-5.41,6.81-5.41.57,0,1.07.08,1.64.33.41.25.66.74.66,1.23l-.16.66c-.08.25-.41.41-.74.41-.16,0-.25,0-.41-.08-.25-.16-.49-.25-.82-.25-1.97,0-4.67,3.69-6.23,6.97-.57,1.15-.9,2.21-1.23,3.03-.16.49-.25.82-.25,1.07,0,.16,0,.25.08.33h.16l.41-.33c1.72-1.31,4.59-4.51,8.86-10.82.25-.41.66-.74.98-.82l.33-.08.33.08c.25.08.49.33.57.66l.08.57-.08.57c-1.56,5.58-2.87,11.07-2.95,14.43v.33c0,1.31.33,2.05,1.07,2.05.41,0,1.07-.25,1.89-.98.57-.49,1.07-.9,1.64-1.48,3.36-3.28,7.54-8.86,11.81-15.33.16-.25.41-.41.66-.41l.49.16c.16.16.33.49.33.74s-.08.41-.16.57c-5.33,8.12-10.58,14.92-14.27,17.63l-1.31.9-.16.08c-.74.41-1.48.49-1.97.49h-.33c-1.15-.25-1.97-1.23-2.13-3.2Z"/>
    <path class="cls-1" d="M295.75,73.82v-1.23c0-6.07,2.13-16.88,5.41-36.72.9-5.66,2.05-11.07,3.12-16.07l-13.58-.08c-.08.16-.16.25-.33.25-.57.25-1.15.33-1.56.33-.33,0-.66-.08-.82-.25-.33-.16-.57-.49-.66-.82,0-.33,0-.74.16-.98v-.08c.25-.25.57-.49.98-.49h.16c.57-.08,1.56-.08,2.95-.08l2.1.16,10.99.25c1.39-6.07,3.03-11.23,4.67-14.6.25-.66.98-1.48,1.72-1.64.33,0,.57,0,.9.16.25.16.41.49.49.82l.08.41c0,.41-.16.9-.41,1.48-.08.16-.25.25-.41.33-1.48,3.12-2.87,7.63-4.26,13.12h.9c8.12.08,4.56.16,11.29.16,5.99,0,7.58-.08,9.14-.33h.16c.41,0,.82.33.9.74v.16c0,.41-.33.82-.74.9-1.64.25-3.23.33-9.3.33-7.87,0-3.74-.16-12.76-.16-1.23,5.17-2.38,10.91-3.44,16.89-3.61,20.25-5.9,31.31-5.9,36.15v.25l.08.57c0,.74-.49,1.15-.98,1.15s-.9-.33-1.07-1.07Z"/>
    <path class="cls-1" d="M307.05,62.52c-1.15,0-2.21-.57-2.62-1.8-.16-.49-.25-1.07-.25-1.72,0-1.39.41-3.2,1.48-5.41h.08l.16-.33c1.56-3.36,4.35-6.56,7.46-9.68l-.33-1.97c-.33-1.89-.66-3.61-.66-5.08v-.41c0-3.2.98-4.18,1.8-4.18.74,0,1.39.66,1.39,1.31,0,.25-.08.49-.33.66-.41.41-.57,1.07-.57,1.89v.49c0,1.31.25,2.95.57,4.76l.16.66c3.77-3.36,6.31-5.33,9.76-8.04l.41-.16c.33,0,.57.16.74.41.08.16.16.33.16.57s-.16.57-.33.74l-1.23.9c-2.79,2.21-6.15,4.84-9.18,7.71.08,1.07.16,2.13.16,3.2,0,6.15-2.05,10.58-4.35,13.12-1.31,1.39-2.79,2.21-4.02,2.38h-.49ZM310.16,58.67c1.8-2.13,3.44-5.9,3.44-11.32v-1.48c-2.71,2.62-4.92,5.49-6.23,8.2-.16.25-.25.25-.25.41-.82,1.97-1.23,3.36-1.23,4.35l.16.98c.16.49.49.66.98.66h.33c.82-.08,1.8-.74,2.79-1.8Z"/>
    <path class="cls-1" d="M234.19,67.07v-1.23c0-6.07,2.13-11.88,5.41-31.72.9-5.66,2.05-11.07,3.12-16.07l-20.58-.08c-.08.16-.16.25-.33.25-.57.25-1.15.33-1.56.33-.33,0-.66-.08-.82-.25-.33-.16-.57-.49-.66-.82,0-.33,0-.74.16-.98v-.08c.25-.25.57-.49.98-.49h.16c.57-.08,1.56-.08,2.95-.08l9.1.16,10.99.25c1.39-6.07,3.03-11.23,4.67-14.6.25-.66.98-1.48,1.72-1.64.33,0,.57,0,.9.16.25.16.41.49.49.82l.08.41c0,.41-.16.9-.41,1.48-.08.16-.25.25-.41.33-1.48,3.12-2.87,7.63-4.26,13.12h.9c8.12.08-5.44.16,1.29.16,5.99,0,10.58-.08,12.14-.33h.16c.41,0,.82.33.9.74v.16c0,.41-.33.82-.74.9-1.64.25-6.23.33-12.3.33-7.87,0,6.26-.16-2.76-.16-1.23,5.17-2.38,10.91-3.44,16.89-3.61,20.25-5.9,26.31-5.9,31.15v.25l.08.57c0,.74-.49,1.15-.98,1.15s-.9-.33-1.07-1.07Z"/>
  </g>
</svg>