<?xml version="1.0" encoding="utf-8"?>
<!-- Generator: Adobe Illustrator 27.8.1, SVG Export Plug-In . SVG Version: 6.00 Build 0)  -->
<svg version="1.1" id="Layer_2_00000025436788124350929210000008767698956602961317_"
	 xmlns="http://www.w3.org/2000/svg" xmlns:xlink="http://www.w3.org/1999/xlink" x="0px" y="0px" viewBox="0 0 507 131.6"
	 style="enable-background:new 0 0 507 131.6;" xml:space="preserve">
<style type="text/css">
	.st0{fill:#4D4D4F;}
	.st1{fill:#4D4D4F;stroke:#4D4D4F;stroke-miterlimit:10;}
</style>
<g id="Layer_1-2">
	<g>
		<path class="st0" d="M22.4,63.6c-0.1,0.1-0.2,0.2-0.2,0.3c-0.2,0.3-0.5,0.7-0.7,1c-0.4,0.5-0.7,0.9-1,1.3
			c-3.2,4.1-5.4,6.3-6.8,6.6c-0.4,0.1-0.7,0.2-1,0.2c-1,0-1.5-0.7-1.5-1.9v-0.2c0-0.5,0.1-1,0.2-1.7c0.4-2.2,1.4-4.5,2.9-7.1
			c1.1-1.6,2.2-3,3.4-4.1s2.5-1.7,3.9-1.7c0.6,0,1.1,0.2,1.7,0.4c0.7,0.3,1,0.8,1,1.5c0,0.2-0.1,0.4-0.2,0.7l1.2-1.5h0.1v-0.1h0.1
			c0.1-0.2,0.2-0.2,0.2-0.3c1.5-1.5,2.7-2.3,3.7-2.3h0.2c0.7,0.1,1.2,0.5,1.6,1.3c0.4,0.8,0.6,2.1,0.6,3.9c0,1-0.1,2.2-0.2,3.6
			l-0.3,2.4L31,68.5c3-3.2,6.2-6.3,9.8-9.5c0.2-0.2,0.3-0.2,0.5-0.2s0.4,0.1,0.7,0.3c0.1,0.2,0.2,0.3,0.2,0.6s-0.1,0.5-0.3,0.7
			c-4,3.7-7.8,7.4-11.1,11c-2.1,14.7-4.6,26.3-7.6,34.9s-5.9,14.6-8.9,17.9c-2.4,2.8-4.5,4.2-6.4,4.2c-0.9,0-1.6-0.2-2.3-0.8
			c-1.6-1.3-2.4-3.8-2.4-7.4c0-1.2,0.1-2.7,0.3-4.2c0.6-5.3,2.9-11.7,6.9-19.4s10-16.1,18.2-25.3c0.4-2.6,0.7-5.3,1-8.1
			c0.2-1.5,0.2-2.8,0.2-3.7c0-1.5-0.2-2.3-0.6-2.5c-0.1-0.1-0.1-0.1-0.2-0.1c-0.5,0-1.3,0.6-2.4,1.8v0.1h-0.1
			C25,59.9,23.8,61.7,22.4,63.6L22.4,63.6z M16.6,115.7c4.1-7.7,7.7-20.3,10.7-37.9c0.2-1.2,0.5-2.5,0.7-3.8
			c-7.5,8.7-13,16.6-16.7,23.8S5.5,111,4.9,115.9c-0.2,1.5-0.3,2.9-0.3,4.1c0,2.9,0.6,4.9,1.8,5.8c0.3,0.2,0.6,0.4,1,0.4
			c0.1,0,0.2,0,0.4-0.1C10.1,125.9,13.1,122.4,16.6,115.7L16.6,115.7z M21.7,58.4c-1,0-2.3,0.8-3.5,2.3c-1.3,1.5-2.4,3.2-3.3,5.1
			c-0.6,1.1-1.1,2.2-1.3,3.2c-0.1,0.7-0.1,1.1-0.1,1.4v0.2c0,0.1,0,0.1,0.1,0.1c0.2,0,0.6-0.3,1.3-1c0.6-0.6,1.2-1.3,1.9-2
			c0.6-0.7,1.2-1.4,1.7-1.9c0.3-0.4,0.6-0.7,0.7-0.7c0.6-0.7,1.1-1.5,1.7-2.3c0.4-0.4,0.7-0.9,1-1.4s0.6-1,1-1.4
			c-0.1,0-0.2,0-0.2-0.1c-0.2,0-0.3,0-0.4-0.1c-0.2-0.2-0.3-0.5-0.3-0.7s0.1-0.4,0.2-0.6C22.1,58.4,21.9,58.4,21.7,58.4L21.7,58.4z"
			/>
		<path class="st0" d="M36.6,76.4c-0.7-0.8-1-2.1-1-4.1c0-0.8,0.1-1.7,0.2-2.8c0.1-0.7,0.2-1.2,0.3-1.8c0.6-2.8,1.6-5.6,3-7.5
			c1.2-1.9,2.8-3.2,4.4-3.2l0.6,0.1c0.1,0,0.2,0,0.2,0.1c0.4,0.1,0.7,0.6,0.7,1h0.3c0.6,0,1.2,0.5,1.5,1.9c0.2,0.8,0.3,1.5,0.3,2.3
			c0.4,0.2,0.8,0.2,1.4,0.2c1.9,0,5-1,9.9-4l0.5-0.2c0.2,0,0.6,0.2,0.7,0.5c-0.1,0.1-0.1,0.3-0.1,0.5c0,0.3-0.2,0.6-0.4,0.7
			c-4.9,3.1-8.3,4.2-10.6,4.2c-0.6,0-1-0.1-1.5-0.2c-0.3,4.1-2.1,7.9-4,10.2l-0.2,0.3c-1,1.2-2.1,2-3.1,2.4
			c-0.4,0.2-0.8,0.2-1.2,0.2C37.8,77.4,37.1,77,36.6,76.4L36.6,76.4z M39.9,74.6c0.5-0.2,1.1-0.7,1.9-1.4c1.9-2.3,3.6-6,3.7-9.8
			c-0.5-0.3-0.8-0.8-1-1.2c-0.3-0.7-0.4-1.3-0.4-1.9v-0.5c0-0.3,0.1-0.7,0.2-0.9h-0.4c-0.7,0-1.5,0.7-2.3,2c-1,1.5-1.9,3.8-2.4,6.3
			l-0.3,1.6c-0.1,1.1-0.2,1.9-0.2,2.8s0.1,1.5,0.2,2c0.1,0.5,0.2,0.7,0.4,0.8l0.3,0.2H39.9L39.9,74.6z"/>
		<path class="st0" d="M65.1,74.8L65,73.3c0-1.8,0.3-4.3,1.1-7.7c-1.4,2.2-2.6,4-3.6,5.3l-0.2,0.2c-1.4,1.6-2.4,2.6-3.3,3.2
			c-0.6,0.3-1,0.5-1.5,0.5c-0.7,0-1.3-0.5-1.8-1.2c-0.4-0.8-0.7-2-0.7-3.5v-0.7c0.2-4.1,1.9-9.8,4.1-12c0.3-0.3,0.8-0.7,1.3-0.8
			c0.3,0,0.7,0,1.1,0.2l0.2,0.1l0.1,0.2c0.1,0,0.1,0.1,0.1,0.1c0.1,0.2,0.2,0.3,0.2,0.6s-0.2,0.6-0.3,0.7c-2,1.6-3.8,6.8-4.1,10.5
			v0.8c0,0.7,0.1,1.3,0.2,1.8c0.1,0.3,0.2,0.5,0.5,0.5h0.1c0.6,0,1.5-0.7,2.9-2.3v-0.1c1.7-2.1,3.7-5.3,6.3-10v-0.1
			c0.2-0.3,0.6-0.7,0.8-0.8c0.2-0.1,0.4-0.1,0.7-0.1c0.3,0.2,0.6,0.3,0.7,0.7l0.1,0.2c0,0.2,0,0.6-0.1,1c-1.4,5.7-2.3,10-2.3,12.7
			v0.3c0.1,1,0.3,1.5,0.9,1.5c0.4,0,1.1-0.2,1.7-0.9c3.6-3.2,8.5-10.3,11.7-15.5c0.2-0.2,0.4-0.4,0.7-0.4l0.4,0.2
			c0.2,0.2,0.4,0.5,0.4,0.8l-0.2,0.5c-3.2,5.3-8.3,12.5-12,15.8c-1.3,1.2-2.5,1.9-3.6,1.9C66.3,77.5,65.4,76.7,65.1,74.8L65.1,74.8z
			"/>
		<path class="st0" d="M79,82.1c-0.5-0.2-0.7-0.7-0.7-1.5v-0.3c0.1-0.7,0.2-1.5,0.6-2.5c1-3.3,3-8.2,4.1-10.8
			c0.7-1.7,1.1-2.8,1.1-3.7c0-1.5-0.9-2.2-1.7-2.8c-0.9-0.7-1.8-1.4-1.8-2.6c0-0.7,0.3-1.5,1-2.7l0.1-0.2l0.5-0.7
			c0.2-0.2,0.6-0.3,0.9-0.3c0.2,0,0.5,0.2,0.5,0.2c0.2,0.1,0.3,0.2,0.4,0.4l0.1,0.5c0,0.3-0.1,0.6-0.2,0.9c-0.5,0.7-0.7,1.3-0.7,1.8
			c0,0.7,0.6,1.1,1.1,1.6c1.1,0.8,2.2,1.8,2.2,3.9c0,1.1-0.4,2.7-1.3,4.7c-0.9,2.1-2.5,5.6-3.6,8.4c-0.7,2-1.1,3.2-1.2,3.6
			c1.6-1.4,4.6-5.9,8.1-11.2c2.3-3.6,4.7-7.4,6.8-10.1c0.2-0.2,0.3-0.3,0.6-0.3l0.4,0.2c0.2,0.2,0.2,0.3,0.2,0.6s-0.1,0.4-0.2,0.6
			c-2.1,2.7-4.5,6.4-6.8,10c-1.5,2.1-7.7,12.1-10,12.4C79.3,82.2,79.2,82.2,79,82.1L79,82.1z"/>
		<path class="st0" d="M92.2,76.9c0-0.7,0.1-1.7,0.2-2.9c0.5-4.9,2.3-13.8,3-16.4c0.2-0.6,0.7-0.9,1.2-0.9c0.6,0,1.1,0.3,1.1,1
			l-0.1,0.4c-0.7,2.7-2.6,11-3.2,15.7c-0.1,0.2-0.1,0.5-0.1,0.7l2-3.9c2.8-5.3,5.8-11.2,9.2-16c1-1.4,1.9-2.3,2.7-2.8
			c0.3-0.2,0.6-0.3,0.9-0.3l0.5,0.2c0.5,0.2,0.8,0.6,1,1.3c0.2,0.4,0.2,1,0.2,1.8c0,0.7,0,1.6-0.2,2.8l-0.1,0.5
			c-0.2,1.9-1.3,9.6-1.8,14.6c1.9-3.2,3.8-6.2,6.1-9c1.4-1.6,2.7-2.8,3.8-3.1l0.7-0.1c1.1,0,2,0.9,2.5,3.1c1,5.4,1.8,8.8,2.8,10.6
			c0.7,1.2,1.4,1.7,2.4,1.7l0.9-0.1c3.5-1.3,8.8-7.2,13-12.1c1.9-2.1,3.6-4,5-5.3c0.2-0.2,0.3-0.2,0.6-0.2c0.2,0,0.4,0.1,0.6,0.3
			c0.2,0.2,0.2,0.4,0.2,0.6c0,0.3-0.2,0.6-0.3,0.7c-1.3,1.1-3,3.1-4.9,5.2c-4.4,4.9-9.9,11-13.7,12.5l-0.7,0.2
			c-0.6,0.2-1.1,0.2-1.5,0.2c-1.5,0-2.6-0.7-3.6-2.3c-1.1-2-1.9-5.3-3-10.9c-0.2-1.2-0.6-1.6-1.1-1.6h0c-2.5,0.6-7.1,8.5-9.4,12.5
			c-0.5,0.9-0.9,1.5-1.2,2c-0.1,0.2-0.3,0.3-0.7,0.3H107c-0.4,0-0.7-0.4-0.7-0.8v-0.2c0-3.2,1.7-15.9,2-18.4l0.1-0.5l0.3-3.3
			c0-0.4-0.1-0.6-0.2-0.6c-0.6,0-1.5,1.5-1.8,1.9c-3.4,4.9-6.2,10.3-9.1,15.7c-1.1,2.1-2,4-2.8,5.3l-0.5,0.8
			c-0.5,0.8-1.3,1.1-1.5,1.1C92.5,78.7,92.3,78,92.2,76.9L92.2,76.9z"/>
		<path class="st0" d="M141.8,75.2c-0.8-0.7-1.2-1.9-1.3-3.4v-0.7c0-3.3,1.5-7.7,3.7-10.7c2.4-3.3,4.3-4.6,5.5-4.8h0.3
			c1.3,0,2,1,2.2,2.4v0.8c-0.2,1-0.6,2.2-1.3,3.2c-1,1.3-2.5,2.3-4.5,2.3c-0.5,0-1,0-1.5-0.2c-1.1,2.3-1.9,4.9-2,6.9v0.7
			c0,0.7,0.1,1.2,0.2,1.6c0.2,0.4,0.6,0.7,1.1,0.7h0.2c1.1,0,2.7-0.7,4.8-2.2l0.2-0.2c3-2.3,7-6.4,12.2-12.9
			c0.2-0.2,0.4-0.3,0.6-0.3c0.2,0,0.3,0,0.5,0.2s0.2,0.5,0.2,0.7s-0.1,0.4-0.2,0.6c-5.3,6.6-9.4,10.8-12.6,13.2l-0.6,0.4
			c-1.7,1.3-3.2,1.9-4.3,2.3c-0.5,0.2-1,0.2-1.4,0.2C143.1,76.1,142.3,75.7,141.8,75.2L141.8,75.2z M149.6,60.8
			c0.6-0.7,0.8-1.5,0.9-2.2v-0.2c0-0.3-0.1-0.5-0.3-0.5l-0.4,0.1c-0.7,0.3-1.8,1.3-3.2,3.3l-0.8,1.1l0.6,0.1
			C147.9,62.5,149,61.7,149.6,60.8L149.6,60.8z"/>
		<path class="st0" d="M156.9,104.2V103c0-6,2.1-27.5,5.4-47.1c0.9-5.6,2-10.9,3.1-15.9l-20.3-0.1c-0.1,0.2-0.2,0.2-0.3,0.2
			c-0.6,0.2-1.1,0.3-1.5,0.3c-0.3,0-0.6-0.1-0.8-0.2c-0.3-0.2-0.6-0.5-0.6-0.8s0-0.7,0.2-1v-0.1c0.2-0.2,0.6-0.5,1-0.5h0.2
			c0.6-0.1,1.5-0.1,2.9-0.1l9,0.2l10.9,0.2c1.4-6,3-11.1,4.6-14.4c0.2-0.6,1-1.5,1.7-1.6c0.3,0,0.6,0,0.9,0.2
			c0.2,0.2,0.4,0.5,0.5,0.8l0.1,0.4c0,0.4-0.2,0.9-0.4,1.5c-0.1,0.2-0.2,0.2-0.4,0.3c-1.5,3.1-2.8,7.5-4.2,13h0.9
			c8,0.1,16.4,0.2,23,0.2c5.9,0,10.4-0.1,12-0.3h0.2c0.4,0,0.8,0.3,0.9,0.7v0.2c0,0.4-0.3,0.8-0.7,0.9c-1.6,0.2-6.2,0.3-12.1,0.3
			c-7.8,0-15.6-0.2-24.5-0.2c-1.2,5.1-2.4,10.8-3.4,16.7c-3.6,20-5.8,41.8-5.8,46.6v0.2l0.1,0.6c0,0.7-0.5,1.1-1,1.1
			S157.1,104.9,156.9,104.2L156.9,104.2z"/>
		<path class="st0" d="M181.2,77.8v-0.5c0.1-0.7,0.3-1.7,0.6-3c1.2-5.3,4.2-14.7,5.3-17.6c0.2-0.6,0.8-0.8,1.3-0.8s1,0.2,1,0.8v0.2
			l-0.1,0.4c-1.1,2.8-4.1,11.6-5.5,16.6v0.2l1.1-2.1c2-3.8,5.3-10,8.1-13c0.6-0.7,1.1-1,1.6-1.3c0.2-0.1,0.5-0.2,0.8-0.2
			c0.2,0,0.6,0.1,0.8,0.2c0.4,0.2,0.7,0.7,0.9,1.5c0.2,0.7,0.3,1.6,0.3,2.8c0,0.8-0.1,1.8-0.2,2.8s-0.1,2-0.1,2.9
			c0,4.3,0.6,6.6,1.8,7.6c0.3,0.3,0.8,0.5,1.3,0.5c1.2,0,2.8-0.8,4.4-2c4.5-3.3,10-9.8,14.9-15.5c0.2-0.2,0.5-0.3,0.7-0.3
			s0.4,0.1,0.5,0.2c0.2,0.2,0.2,0.4,0.2,0.7c0,0.2-0.1,0.4-0.2,0.6c-4.9,5.8-10.6,12.3-15.3,15.8v0.1l-1.8,1.1
			c-1.5,1-2.9,1.5-4.1,1.5c-2.7,0-4.4-2.6-4.4-9.2c0-1.1,0.1-2.3,0.2-3.6s0.1-2.3,0.1-3.2c0-1.8-0.2-2.5-0.5-2.5l-0.5,0.1
			c-0.9,0.8-2.1,2.4-2.8,3.5c-2,3-3.9,6.6-5.4,9.6l-2.8,5.1c-0.4,0.6-0.6,0.9-1,1.1c-0.2,0.2-0.6,0.3-0.7,0.3
			C181.4,79.2,181.2,78.7,181.2,77.8L181.2,77.8z"/>
		<path class="st0" d="M215.5,76.4c-0.6-0.8-1.1-2.1-1.1-4.1c0-0.8,0.1-1.7,0.2-2.8c0.1-0.7,0.2-1.2,0.3-1.8c0.6-2.8,1.6-5.6,3-7.5
			c1.2-1.9,2.8-3.2,4.4-3.2l0.6,0.1c0.1,0,0.2,0,0.2,0.1c0.4,0.1,0.6,0.6,0.6,1h0.3c0.6,0,1.2,0.5,1.5,1.9c0.2,0.8,0.3,1.5,0.3,2.3
			c0.4,0.2,0.8,0.2,1.4,0.2c1.9,0,5-1,9.9-4l0.5-0.2c0.2,0,0.6,0.2,0.6,0.5c0.1,0.2,0.1,0.3,0.1,0.5c0,0.3-0.2,0.6-0.4,0.7
			c-4.9,3.1-8.3,4.2-10.6,4.2c-0.6,0-1.1-0.1-1.5-0.2c-0.3,4.1-2.1,7.9-4.1,10.2l-0.2,0.3c-1.1,1.2-2.1,2-3.1,2.4
			c-0.4,0.2-0.8,0.2-1.2,0.2C216.6,77.4,215.9,77,215.5,76.4L215.5,76.4z M218.7,74.6c0.5-0.2,1.1-0.7,1.9-1.4
			c1.9-2.3,3.6-6,3.7-9.8c-0.5-0.3-0.8-0.8-1.1-1.2c-0.3-0.7-0.4-1.3-0.4-1.9v-0.5c0-0.3,0.1-0.7,0.2-0.9h-0.4c-0.7,0-1.5,0.7-2.3,2
			c-1.1,1.5-1.9,3.8-2.4,6.3l-0.3,1.6c-0.1,1.1-0.2,1.9-0.2,2.8s0.1,1.5,0.2,2c0.1,0.5,0.2,0.7,0.4,0.8l0.3,0.2H218.7L218.7,74.6z"
			/>
		<path class="st0" d="M268.2,90v-0.9l0.2-1.6c0.2-1.2,0.7-2.6,1.4-4.1c2.4-4.9,7.3-11.3,15.7-16.9c0.6-2.2,0.9-4.1,0.9-5.7v-0.6
			c0-1.5-0.2-2.6-0.6-3.4c-0.3-0.6-0.8-1-1.4-1h-0.3c-0.3,0-0.7,0.1-1.1,0.3c-0.6,0.4-1.3,0.8-2,1.5l-0.1,0.1
			c-2.7,2.5-5.9,7.3-9.2,14.8c-0.1,0.2-0.3,0.5-0.6,0.5h-0.2c-0.5,0-0.8-0.4-0.8-0.9c1.5-32.1,7.3-49.9,12.5-57.2
			c2.2-3,4.2-4.4,5.9-4.4c0.4,0,0.8,0.1,1.2,0.2c0.8,0.2,1.5,1.2,1.5,1.2c1,1.2,1.5,3.3,1.5,6.3v0.6c-0.3,8.3-5.4,22.7-19.7,39.5
			c-0.2,2.7-0.5,5.7-0.6,8.7c2-3.9,4.5-7.9,7.5-10.8c0.6-0.7,1.4-1.3,2.1-1.7l0.6-0.3c0.8-0.4,1.5-0.6,2.3-0.6s1.5,0.2,2.1,0.7
			c1,0.9,1.7,2.5,1.9,4.7v1c0,1.3-0.1,2.8-0.5,4.5c4-2.3,8.6-4.5,13.9-6.2l0.3-0.1c0.3,0,0.6,0.2,0.7,0.7l0.1,0.2
			c0,0.4-0.2,0.7-0.6,0.8c-5.8,2-10.9,4.4-15,7c-1.4,4.8-4,10.7-8.2,17.2c-3.3,5.1-6.1,7.5-7.9,8.1c-0.4,0.1-0.7,0.2-1,0.2
			C269.2,92.6,268.3,91.6,268.2,90L268.2,90z M271.6,89.9c1.4-0.7,3.3-2.6,5.8-6.3c3.5-5.4,5.8-10.4,7.2-14.5
			c-7,5.1-11.3,10.7-13.4,15.1c-0.6,1.4-1,2.7-1.2,3.6l-0.1,1c0,0.4,0.1,0.7,0.2,1c0.2,0.2,0.2,0.3,0.5,0.3h0.2L271.6,89.9
			L271.6,89.9z M290.9,18.9v-1c0-2.2-0.4-3.8-1-4.7l-0.6-0.3l-0.4-0.1c-0.9,0-1.9,0.6-3.2,1.9c-1.6,1.7-3.3,4.5-5,8.4
			c-3,6.9-5.8,17.4-7.5,32.3C286,39.7,290.6,26.5,290.9,18.9L290.9,18.9z"/>
		<path class="st0" d="M305,75.6l-0.1-1.2c0-2.3,0.6-5.8,1.9-10.6c-2.8,4.8-7.2,7.7-7.2,7.7c-0.6,0.4-1.2,0.6-1.7,0.6
			c-0.9,0-1.3-0.8-1.4-2.1l0.2-1.3c0.3-1.9,1.4-4.6,2.8-7c1.8-2.9,4.2-5.3,6.7-5.3c0.6,0,1,0.1,1.6,0.3c0.4,0.2,0.6,0.7,0.6,1.2
			l-0.2,0.7c-0.1,0.2-0.4,0.4-0.7,0.4c-0.2,0-0.2,0-0.4-0.1c-0.2-0.2-0.5-0.2-0.8-0.2c-1.9,0-4.6,3.6-6.2,6.9
			c-0.6,1.1-0.9,2.2-1.2,3c-0.2,0.5-0.2,0.8-0.2,1.1c0,0.2,0,0.2,0.1,0.3h0.2l0.4-0.3c1.7-1.3,4.5-4.5,8.8-10.7
			c0.2-0.4,0.6-0.7,1-0.8l0.3-0.1l0.3,0.1c0.2,0.1,0.5,0.3,0.6,0.7l0.1,0.6l-0.1,0.6c-1.5,5.5-2.8,10.9-2.9,14.2v0.3
			c0,1.3,0.3,2,1,2c0.4,0,1-0.2,1.9-1c0.6-0.5,1-0.9,1.6-1.5c3.3-3.2,7.5-8.8,11.7-15.1c0.2-0.2,0.4-0.4,0.6-0.4l0.5,0.2
			c0.2,0.2,0.3,0.5,0.3,0.7s-0.1,0.4-0.2,0.6c-5.3,8-10.5,14.7-14.1,17.4l-1.3,0.7l-0.2,0.1c-0.7,0.4-1.5,0.5-1.9,0.5h-0.3
			C305.9,78.5,305.1,77.6,305,75.6L305,75.6z"/>
		<path class="st0" d="M321.2,77.5c0-4.5,0.9-12.2,2.4-20.7l0.2-0.9c0.7-4.1,1.6-8.5,2.7-12.9c2.5-10.5,5.9-21.1,9.8-28.2
			c2.5-4.5,5.1-7.2,7.1-8c0.5-0.2,0.9-0.2,1.3-0.2h0.4c0.2,0,0.6,0.1,0.8,0.2c0.8,0.4,1.3,1.1,1.6,2.3c0.1,0.5,0.2,1.1,0.2,1.8
			c0,2.2-0.6,5.3-2.3,9.4c-2.1,5.4-5.4,11.9-8.8,18C332.3,46,328,53,325.9,55.9c-0.8,3.7-1.4,7-1.9,10.2c1.2-2.7,2.7-4.9,4.4-7
			c3-3.9,5.5-5.6,7-5.9l0.6-0.1c0.9,0,1.5,0.4,1.8,1.2c0.1,0.2,0.2,0.6,0.2,0.9c0,0.7-0.2,1.4-0.6,2.3c-0.2,0.6-0.6,1.1-1,1.7
			c-1.6,2.4-5,5.6-10.6,8.4c0.7,5.3,2.2,7.7,4,8.1l0.7,0.1c1.8,0,3.9-1.2,6.1-3.1c3.6-3.1,7.2-7.6,9.6-10.7c1.5-1.7,2.5-3,3-3.5
			c0.2-0.1,0.3-0.2,0.5-0.2s0.5,0.2,0.6,0.4c0.2,0.2,0.2,0.4,0.2,0.6c0,0.2-0.1,0.5-0.3,0.7c-0.4,0.3-1.4,1.6-2.7,3.2
			c-2.4,2.8-5.6,7-9,10c0,0.1-0.1,0.2-0.2,0.2c-0.6,0.6-1.2,1.1-1.8,1.5c-1.9,1.5-4,2.7-5.8,2.9h-0.6c-2.8,0-5-2-6.1-7.5
			c-0.6,2-1,4.4-1.4,7.2c-0.1,0.6-0.4,0.9-0.9,0.9C321.7,78.4,321.3,78,321.2,77.5L321.2,77.5z M335.3,58.1c0.2-0.4,0.5-0.7,0.6-1.1
			c0.2-0.6,0.4-1,0.4-1.3l-0.1-0.3c0-0.1-0.1-0.1-0.3-0.1h-0.2c-1.3,0.2-3.4,1.9-6.2,5.3c-0.1,0-0.1,0.1-0.1,0.1
			c-1,1.4-2,2.7-2.8,4.3C331,62.6,333.7,60.1,335.3,58.1L335.3,58.1z M335.3,37.2c3.2-6,6.5-12.4,8.7-17.7c1.5-3.8,2.1-6.7,2.1-8.6
			l-0.2-1.4c-0.2-0.6-0.4-1-0.6-1.1s-0.2-0.1-0.4-0.1c-0.9,0-1.9,1-2.4,1.5c-1.2,1.2-2.5,3.1-3.5,4.9c-3.6,6.6-7.1,16.8-9.8,27.1
			c-0.9,3.2-1.6,6.3-2.4,9.5C329.2,47.9,332.3,42.8,335.3,37.2L335.3,37.2z"/>
		<path class="st0" d="M345.3,75.2c-0.8-0.7-1.2-1.9-1.3-3.4v-0.7c0-3.3,1.5-7.7,3.7-10.7c2.4-3.3,4.3-4.6,5.5-4.8h0.3
			c1.3,0,2,1,2.2,2.4v0.8c-0.2,1-0.6,2.2-1.3,3.2c-1,1.3-2.5,2.3-4.5,2.3c-0.5,0-1,0-1.5-0.2c-1.1,2.3-1.9,4.9-2,6.9v0.7
			c0,0.7,0.1,1.2,0.2,1.6c0.2,0.4,0.6,0.7,1,0.7h0.2c1,0,2.7-0.7,4.8-2.2l0.2-0.2c3-2.3,7-6.4,12.2-12.9c0.2-0.2,0.4-0.3,0.6-0.3
			s0.3,0,0.5,0.2s0.2,0.5,0.2,0.7s-0.1,0.4-0.2,0.6c-5.3,6.6-9.4,10.8-12.5,13.2l-0.6,0.4c-1.7,1.3-3.2,1.9-4.3,2.3
			c-0.5,0.2-1,0.2-1.4,0.2C346.6,76.1,345.8,75.7,345.3,75.2L345.3,75.2z M353.2,60.8c0.6-0.7,0.8-1.5,0.9-2.2v-0.2
			c0-0.3-0.1-0.5-0.3-0.5l-0.4,0.1c-0.7,0.3-1.8,1.3-3.2,3.3l-0.8,1.1l0.6,0.1C351.5,62.5,352.5,61.7,353.2,60.8L353.2,60.8z"/>
		<path class="st0" d="M374.6,77.9c-0.6-0.7-0.9-1.8-0.9-3.1c0-3.1,1.5-7.5,3.5-11.6c2.7-5.7,6.6-10.6,9.1-10.6h0.2
			c1.6,0.2,2.7,2.2,2.7,6.6c0,1.5-0.1,3.2-0.3,5.2c0,0.6-0.3,1-0.6,1.2c0,0,0,0.1-0.1,0.1l-0.4,0.1h-0.2c-0.2,0-0.5-0.2-0.6-0.3
			c-0.3-0.4-0.6-1.1-0.6-2.1c0-0.4,0.2-0.7,0.6-0.9c0.2-1.7,0.3-3.1,0.3-4.2c0-2.1-0.4-3.1-1-3.2h-0.2c-1.3,0-3.5,2.5-5.5,5.9
			c-2.3,3.7-4.3,8.4-4.9,11.9c-0.1,0.5-0.1,1-0.1,1.4c0,1.4,0.4,2.3,1.5,2.5h0.3c4.6,0,18.5-14.7,22-18.4c0.2-0.2,0.3-0.2,0.6-0.2
			c0.2,0,0.4,0.1,0.6,0.3s0.2,0.4,0.2,0.7c0,0.2-0.1,0.4-0.2,0.7c-3,3.2-17.6,18.9-24,18.9C375.8,78.7,375.1,78.5,374.6,77.9
			L374.6,77.9z"/>
		<path class="st0" d="M395.4,76.4c-0.6-0.8-1-2.1-1-4.1c0-0.8,0.1-1.7,0.2-2.8c0.1-0.7,0.2-1.2,0.3-1.8c0.6-2.8,1.6-5.6,3-7.5
			c1.2-1.9,2.8-3.2,4.4-3.2l0.6,0.1c0.1,0,0.2,0,0.2,0.1c0.4,0.1,0.6,0.6,0.6,1h0.3c0.6,0,1.2,0.5,1.5,1.9c0.2,0.8,0.3,1.5,0.3,2.3
			c0.4,0.2,0.8,0.2,1.4,0.2c1.9,0,5-1,9.9-4l0.5-0.2c0.2,0,0.6,0.2,0.6,0.5c0.1,0.2,0.1,0.3,0.1,0.5c0,0.3-0.2,0.6-0.4,0.7
			c-4.9,3.1-8.3,4.2-10.6,4.2c-0.6,0-1-0.1-1.5-0.2c-0.3,4.1-2.1,7.9-4,10.2l-0.2,0.3c-1,1.2-2.1,2-3.1,2.4
			c-0.4,0.2-0.8,0.2-1.2,0.2C396.6,77.4,395.9,77,395.4,76.4L395.4,76.4z M398.7,74.6c0.5-0.2,1.1-0.7,1.9-1.4
			c1.9-2.3,3.6-6,3.7-9.8c-0.5-0.3-0.8-0.8-1-1.2c-0.3-0.7-0.4-1.3-0.4-1.9v-0.5c0-0.3,0.1-0.7,0.2-0.9h-0.4c-0.7,0-1.5,0.7-2.3,2
			c-1,1.5-1.9,3.8-2.4,6.3l-0.3,1.6c-0.1,1.1-0.2,1.9-0.2,2.8s0.1,1.5,0.2,2s0.2,0.7,0.4,0.8l0.3,0.2H398.7L398.7,74.6z"/>
		<path class="st0" d="M413.1,76.4c-0.6-0.8-1-2.1-1-4.1c0-0.8,0.1-1.7,0.2-2.8c0.1-0.7,0.2-1.2,0.3-1.8c0.6-2.8,1.6-5.6,3-7.5
			c1.2-1.9,2.8-3.2,4.4-3.2l0.6,0.1c0.1,0,0.2,0,0.2,0.1c0.4,0.1,0.6,0.6,0.6,1h0.3c0.6,0,1.2,0.5,1.5,1.9c0.2,0.8,0.3,1.5,0.3,2.3
			c0.4,0.2,0.8,0.2,1.4,0.2c1.9,0,5-1,9.9-4l0.5-0.2c0.2,0,0.6,0.2,0.6,0.5c0.1,0.2,0.1,0.3,0.1,0.5c0,0.3-0.2,0.6-0.4,0.7
			c-4.9,3.1-8.3,4.2-10.6,4.2c-0.6,0-1-0.1-1.5-0.2c-0.3,4.1-2.1,7.9-4,10.2l-0.2,0.3c-1,1.2-2.1,2-3.1,2.4
			c-0.4,0.2-0.8,0.2-1.2,0.2C414.2,77.4,413.6,77,413.1,76.4L413.1,76.4z M416.3,74.6c0.5-0.2,1.1-0.7,1.9-1.4
			c1.9-2.3,3.6-6,3.7-9.8c-0.5-0.3-0.8-0.8-1-1.2c-0.3-0.7-0.4-1.3-0.4-1.9v-0.5c0-0.3,0.1-0.7,0.2-0.9h-0.4c-0.7,0-1.5,0.7-2.3,2
			c-1,1.5-1.9,3.8-2.4,6.3l-0.3,1.6c-0.1,1.1-0.2,1.9-0.2,2.8s0.1,1.5,0.2,2s0.2,0.7,0.4,0.8l0.3,0.2H416.3L416.3,74.6z"/>
		<path class="st0" d="M432.5,77.5c0-4.5,0.9-12.2,2.4-20.7l0.2-0.9c0.7-4.1,1.6-8.5,2.7-12.9c2.5-10.5,5.9-21.1,9.8-28.2
			c2.5-4.5,5.1-7.2,7.1-8c0.5-0.2,0.9-0.2,1.3-0.2h0.4c0.2,0,0.6,0.1,0.8,0.2c0.8,0.4,1.3,1.1,1.6,2.3c0.1,0.5,0.2,1.1,0.2,1.8
			c0,2.2-0.6,5.3-2.3,9.4c-2.1,5.4-5.4,11.9-8.8,18c-4.3,7.7-8.6,14.7-10.7,17.6c-0.8,3.7-1.4,7-1.9,10.2c1.2-2.7,2.7-4.9,4.4-7
			c3-3.9,5.5-5.6,7-5.9l0.6-0.1c0.9,0,1.5,0.4,1.8,1.2c0.1,0.2,0.2,0.6,0.2,0.9c0,0.7-0.2,1.4-0.6,2.3c-0.2,0.6-0.6,1.1-1,1.7
			c-1.6,2.4-5,5.6-10.6,8.4c0.7,5.3,2.2,7.7,4,8.1l0.7,0.1c1.8,0,3.9-1.2,6.1-3.1c3.6-3.1,7.2-7.6,9.6-10.7c1.5-1.7,2.5-3,3-3.5
			c0.2-0.1,0.3-0.2,0.5-0.2s0.5,0.2,0.6,0.4c0.2,0.2,0.2,0.4,0.2,0.6c0,0.2-0.1,0.5-0.3,0.7c-0.4,0.3-1.4,1.6-2.7,3.2
			c-2.4,2.8-5.6,7-9,10c0,0.1-0.1,0.2-0.2,0.2c-0.6,0.6-1.2,1.1-1.8,1.5c-1.9,1.5-4,2.7-5.8,2.9h-0.6c-2.8,0-5-2-6.1-7.5
			c-0.6,2-1,4.4-1.4,7.2c-0.1,0.6-0.4,0.9-0.9,0.9C432.9,78.4,432.5,78,432.5,77.5L432.5,77.5z M446.5,58.1c0.2-0.4,0.5-0.7,0.6-1.1
			c0.2-0.6,0.4-1,0.4-1.3l-0.1-0.3c0-0.1-0.1-0.1-0.3-0.1h-0.2c-1.3,0.2-3.4,1.9-6.2,5.3c-0.1,0-0.1,0.1-0.1,0.1
			c-1,1.4-2,2.7-2.8,4.3C442.2,62.6,444.9,60.1,446.5,58.1L446.5,58.1z M446.5,37.2c3.2-6,6.5-12.4,8.7-17.7
			c1.5-3.8,2.1-6.7,2.1-8.6l-0.2-1.4c-0.2-0.6-0.4-1-0.6-1.1s-0.2-0.1-0.4-0.1c-0.9,0-1.9,1-2.4,1.5c-1.2,1.2-2.5,3.1-3.5,4.9
			c-3.6,6.6-7.1,16.8-9.8,27.1c-0.9,3.2-1.6,6.3-2.4,9.5C440.4,47.9,443.5,42.8,446.5,37.2L446.5,37.2z"/>
		<path class="st0" d="M461,57.3c0.2-0.2,0.5-0.2,0.7-0.2l0.2,0.1c0.3,0.1,0.6,0.3,0.8,0.7c0.1,0.2,0.2,0.3,0.2,0.6v0.3
			c0,0.2,0,0.3-0.1,0.5c-1.5,6-2.2,10.3-2.2,12.9l0.1,0.6c0,0.6,0.2,0.8,0.5,0.8c0.4,0,1-0.4,1.9-1.1c1.2-1.2,2.5-2.8,3.9-4.7
			c1.4-1.9,2.5-3.6,3.6-5.3c0.2-0.2,0.5-0.7,1-1.4c0.7-0.9,1.1-1.5,1.4-1.8c0.6-0.7,1.1-1,1.8-1c0.2,0,0.4,0.1,0.6,0.3
			s0.2,0.5,0.2,0.8c-0.1,0.2-0.2,0.5-0.4,0.7c-0.1,0.1-0.2,0.2-0.4,0.2h-0.3l-0.2,0.1c0,0.1-0.5,0.7-1.5,2c-0.3,0.5-0.6,0.8-0.6,1
			c-1,1.8-2.3,3.7-3.6,5.5c-1.4,1.9-2.8,3.6-4.1,5c-0.7,0.6-1.3,1.1-1.8,1.4c-0.8,0.7-1.5,1-2.2,1c-0.2,0-0.4,0-0.6-0.1
			c-1-0.2-1.6-1.6-1.6-4.4v-0.3c0-2.7,0.7-7,2.1-12.9c0-0.1,0-0.2,0.1-0.2C460.6,57.9,460.8,57.6,461,57.3L461,57.3z M464.4,50.8V51
			c0,0.2,0,0.4-0.1,0.7c-0.1,0.1-0.1,0.1-0.1,0.2v0.3c0,0.2-0.1,0.5-0.3,0.7c-0.2,0.2-0.4,0.3-0.6,0.3s-0.4-0.1-0.6-0.3
			c-0.6-0.6-0.8-1-0.9-1.5V51c0-0.2,0.1-0.5,0.2-0.7c0.2-0.2,0.5-0.4,0.7-0.5c0.4,0,0.8,0.1,1.1,0.2
			C464.2,50.3,464.4,50.5,464.4,50.8L464.4,50.8z"/>
		<path class="st0" d="M470.5,75.2c-0.8-0.7-1.2-1.9-1.3-3.4v-0.7c0-3.3,1.5-7.7,3.7-10.7c2.4-3.3,4.3-4.6,5.5-4.8h0.3
			c1.3,0,2,1,2.2,2.4v0.8c-0.2,1-0.6,2.2-1.3,3.2c-1,1.3-2.5,2.3-4.5,2.3c-0.5,0-1,0-1.5-0.2c-1.1,2.3-1.9,4.9-2,6.9v0.7
			c0,0.7,0.1,1.2,0.2,1.6c0.2,0.4,0.6,0.7,1,0.7h0.2c1,0,2.7-0.7,4.8-2.2l0.2-0.2c3-2.3,7-6.4,12.2-12.9c0.2-0.2,0.4-0.3,0.6-0.3
			s0.3,0,0.5,0.2s0.2,0.5,0.2,0.7s-0.1,0.4-0.2,0.6c-5.3,6.6-9.4,10.8-12.5,13.2l-0.6,0.4c-1.7,1.3-3.2,1.9-4.3,2.3
			c-0.5,0.2-1,0.2-1.4,0.2C471.8,76.1,471.1,75.7,470.5,75.2L470.5,75.2z M478.4,60.8c0.6-0.7,0.8-1.5,0.9-2.2v-0.2
			c0-0.3-0.1-0.5-0.3-0.5l-0.4,0.1c-0.7,0.3-1.8,1.3-3.2,3.3l-0.8,1.1l0.6,0.1C476.7,62.5,477.7,61.7,478.4,60.8L478.4,60.8z"/>
		<path class="st0" d="M484.5,87.1c-1.1,0-2.2-0.6-2.6-1.8c-0.2-0.5-0.2-1.1-0.2-1.7c0-1.4,0.4-3.2,1.5-5.3h0.1l0.2-0.3
			c1.5-3.3,4.3-6.5,7.4-9.6l-0.3-1.9c-0.3-1.9-0.6-3.6-0.6-5v-0.4c0-3.2,1-4.1,1.8-4.1c0.7,0,1.4,0.7,1.4,1.3c0,0.2-0.1,0.5-0.3,0.7
			c-0.4,0.4-0.6,1-0.6,1.9v0.3c0,1.3,0.2,2.9,0.6,4.7l0.2,0.7c3.7-3.3,6.2-5.3,9.6-7.9l0.4-0.2c0.3,0,0.6,0.2,0.7,0.4
			c0.1,0.2,0.2,0.3,0.2,0.6s-0.2,0.6-0.3,0.7l-1.2,0.9c-2.8,2.2-6.1,4.8-9.1,7.6c0.1,1.1,0.2,2.1,0.2,3.2c0,6.1-2,10.4-4.3,13
			c-1.3,1.4-2.8,2.2-4,2.3L484.5,87.1L484.5,87.1z M487.5,83.3c1.8-2.1,3.4-5.8,3.4-11.2v-1.5c-2.7,2.6-4.9,5.4-6.2,8.1
			c-0.2,0.2-0.2,0.2-0.2,0.4c-0.8,1.9-1.2,3.3-1.2,4.3l0.2,1c0.2,0.5,0.5,0.7,1,0.7h0.3C485.6,84.9,486.6,84.3,487.5,83.3
			L487.5,83.3z"/>
		<path class="st1" d="M245.1,64.2c-0.2,0.3-0.3,0.6-0.5,0.8c-0.4,0.9-0.5,1.7,0,2.2l0.2,0.1c2.2,1.8,13.5-1.9,16.3-2.8
			c0.1,0,0.2,0,0.4,0.1c0.1,0.1,0.2,0.2,0.2,0.4c0,0.2,0,0.3-0.1,0.5c0,0.1-0.2,0.2-0.3,0.3c-2.4,0.9-14.3,5-17.4,2.4
			c-0.4-0.3-0.7-0.8-0.7-1.3c-0.1-0.7,0.1-1.5,0.5-2.3L245.1,64.2L245.1,64.2z"/>
	</g>
</g>
</svg>
