<?xml version="1.0" encoding="utf-8"?>
<!-- Generator: Adobe Illustrator 27.8.1, SVG Export Plug-In . SVG Version: 6.00 Build 0)  -->
<svg version="1.1" id="Layer_2_00000149372036500836483980000014705133960751340452_"
	 xmlns="http://www.w3.org/2000/svg" xmlns:xlink="http://www.w3.org/1999/xlink" x="0px" y="0px" viewBox="0 0 442.2 133.6"
	 style="enable-background:new 0 0 442.2 133.6;" xml:space="preserve">
<style type="text/css">
	.st0{fill:#4D4D4F;}
</style>
<g id="Layer_1-2">
	<g>
		<path class="st0" d="M3.1,77.2C2.4,76.4,2,75.1,2,73.1c0-0.8,0.1-1.7,0.2-2.8c0.1-0.7,0.2-1.2,0.3-1.8c0.6-2.8,1.6-5.7,3-7.6
			c1.2-2,2.9-3.3,4.4-3.3l0.6,0.1c0.1,0,0.2,0,0.2,0.1c0.4,0.1,0.7,0.6,0.7,1h0.3c0.6,0,1.2,0.5,1.5,1.9c0.2,0.8,0.3,1.6,0.3,2.4
			c0.4,0.2,0.8,0.2,1.4,0.2c2,0,5.1-1.1,10-4.1l0.5-0.2c0.2,0,0.6,0.2,0.7,0.5c0.1,0.2,0.1,0.3,0.1,0.5c0,0.3-0.2,0.6-0.4,0.7
			c-5,3.1-8.4,4.3-10.7,4.3c-0.6,0-1.1-0.1-1.5-0.2c-0.3,4.1-2.1,8-4.1,10.3l-0.2,0.3c-1.1,1.2-2.1,2.1-3.1,2.5
			c-0.4,0.2-0.8,0.2-1.2,0.2C4.2,78.2,3.6,77.8,3.1,77.2L3.1,77.2z M6.3,75.4c0.5-0.2,1.2-0.7,1.9-1.4c2-2.4,3.7-6.1,3.8-9.9
			c-0.5-0.3-0.8-0.8-1.1-1.2c-0.3-0.7-0.4-1.3-0.4-1.9v-0.5c0-0.3,0.1-0.7,0.2-0.9h-0.4c-0.7,0-1.6,0.7-2.3,2
			c-1.1,1.6-2,3.8-2.5,6.4l-0.3,1.6c-0.1,1.1-0.2,2-0.2,2.8c0,0.9,0.1,1.6,0.2,2.1c0.1,0.5,0.2,0.7,0.4,0.8L6,75.5L6.3,75.4
			L6.3,75.4z"/>
		<path class="st0" d="M28.4,76.4l-0.1-1.2c0-2.4,0.6-5.8,1.9-10.7c-2.9,4.8-7.3,7.8-7.3,7.8c-0.7,0.4-1.2,0.6-1.7,0.6
			c-0.9,0-1.3-0.8-1.4-2.1l0.2-1.3c0.3-2,1.4-4.7,2.9-7.1c1.8-3,4.3-5.4,6.8-5.4c0.6,0,1.1,0.1,1.6,0.3c0.4,0.2,0.7,0.7,0.7,1.2
			l-0.2,0.7c-0.1,0.2-0.4,0.4-0.7,0.4c-0.2,0-0.2,0-0.4-0.1c-0.2-0.2-0.5-0.2-0.8-0.2c-2,0-4.7,3.7-6.2,7c-0.6,1.2-0.9,2.2-1.2,3
			c-0.2,0.5-0.2,0.8-0.2,1.1c0,0.2,0,0.2,0.1,0.3h0.2l0.4-0.3c1.7-1.3,4.6-4.5,8.9-10.8c0.2-0.4,0.7-0.7,1-0.8l0.3-0.1l0.3,0.1
			c0.2,0.1,0.5,0.3,0.6,0.7l0.1,0.6l-0.1,0.6c-1.6,5.6-2.9,11.1-3,14.4v0.3c0,1.3,0.3,2.1,1.1,2.1c0.4,0,1.1-0.2,1.9-1
			c0.6-0.5,1.1-0.9,1.6-1.5c3.4-3.3,7.5-8.9,11.8-15.3c0.2-0.2,0.4-0.4,0.7-0.4l0.5,0.2c0.2,0.2,0.3,0.5,0.3,0.7s-0.1,0.4-0.2,0.6
			C43.3,68.7,38,75.5,34.3,78.2L33,79.1l-0.2,0.1c-0.7,0.4-1.5,0.5-2,0.5h-0.3C29.4,79.4,28.6,78.4,28.4,76.4L28.4,76.4z"/>
		<path class="st0" d="M42.6,105.3v-1.2c0-6.1,2.1-27.9,5.4-47.7c0.9-5.7,2-11.1,3.1-16.1l-20.6-0.1c-0.1,0.2-0.2,0.2-0.3,0.2
			c-0.6,0.2-1.1,0.3-1.6,0.3c-0.3,0-0.7-0.1-0.8-0.2c-0.3-0.2-0.6-0.5-0.7-0.8c0-0.3,0-0.7,0.2-1v-0.1c0.2-0.2,0.6-0.5,1-0.5h0.2
			c0.6-0.1,1.6-0.1,3-0.1l9.1,0.2l11,0.2c1.4-6.1,3-11.2,4.7-14.6c0.2-0.7,1-1.5,1.7-1.6c0.3,0,0.6,0,0.9,0.2
			c0.2,0.2,0.4,0.5,0.5,0.8l0.1,0.4c0,0.4-0.2,0.9-0.4,1.5c-0.1,0.2-0.2,0.2-0.4,0.3c-1.5,3.1-2.9,7.6-4.3,13.1h0.9
			c8.1,0.1,16.6,0.2,23.3,0.2c6,0,10.6-0.1,12.1-0.3h0.2c0.4,0,0.8,0.3,0.9,0.7v0.2c0,0.4-0.3,0.8-0.7,0.9
			c-1.6,0.2-6.2,0.3-12.3,0.3c-7.9,0-15.7-0.2-24.8-0.2c-1.2,5.2-2.4,10.9-3.4,16.9c-3.6,20.3-5.9,42.3-5.9,47.2v0.2l0.1,0.6
			c0,0.7-0.5,1.2-1,1.2S42.7,106.1,42.6,105.3L42.6,105.3z"/>
		<path class="st0" d="M54.6,77.8c0-0.7,0.1-1.7,0.2-2.9c0.5-5,2.4-13.9,3-16.7c0.2-0.6,0.7-0.9,1.2-0.9c0.6,0,1.2,0.3,1.2,1
			l-0.1,0.4c-0.7,2.7-2.6,11.2-3.2,15.9c-0.1,0.2-0.1,0.5-0.1,0.7l2-3.9c2.8-5.3,5.9-11.3,9.3-16.2c1-1.4,1.9-2.4,2.7-2.9
			c0.3-0.2,0.6-0.3,0.9-0.3l0.5,0.2c0.5,0.2,0.8,0.6,1,1.3c0.2,0.4,0.2,1,0.2,1.8c0,0.7,0,1.6-0.2,2.8l-0.1,0.5
			c-0.2,2-1.3,9.8-1.8,14.8c1.9-3.2,3.8-6.3,6.2-9.1c1.4-1.6,2.7-2.9,3.8-3.1l0.7-0.1c1.2,0,2.1,0.9,2.5,3.1c1,5.5,1.8,8.9,2.9,10.7
			c0.7,1.2,1.4,1.7,2.4,1.7l0.9-0.1c3.5-1.3,8.9-7.3,13.2-12.2c2-2.1,3.7-4.1,5.1-5.3c0.2-0.2,0.3-0.2,0.6-0.2
			c0.2,0,0.4,0.1,0.6,0.3c0.2,0.2,0.2,0.4,0.2,0.6c0,0.3-0.2,0.6-0.3,0.7c-1.3,1.2-3,3.1-4.9,5.2c-4.5,5-10,11.2-13.9,12.6l-0.7,0.2
			c-0.6,0.2-1.1,0.2-1.6,0.2c-1.5,0-2.6-0.7-3.6-2.4c-1.1-2.1-2-5.4-3-11.1c-0.2-1.2-0.6-1.6-1.1-1.6h-0.1
			c-2.5,0.6-7.1,8.6-9.5,12.6c-0.5,0.9-0.9,1.6-1.2,2.1c-0.1,0.2-0.3,0.3-0.7,0.3h-0.2c-0.4,0-0.7-0.4-0.7-0.8v-0.2
			c0-3.3,1.7-16.1,2.1-18.6l0.1-0.5l0.3-3.4c0-0.4-0.1-0.6-0.2-0.6c-0.6,0-1.5,1.5-1.8,1.9c-3.4,4.9-6.2,10.4-9.2,15.9
			c-1.1,2.1-2,4-2.8,5.3L57,78.4c-0.5,0.8-1.3,1.2-1.6,1.2C54.9,79.6,54.7,78.9,54.6,77.8L54.6,77.8z"/>
		<path class="st0" d="M104.8,76c-0.8-0.7-1.2-2-1.3-3.4v-0.7c0-3.4,1.6-7.8,3.8-10.8c2.5-3.4,4.3-4.7,5.6-4.8h0.3
			c1.3,0,2.1,1,2.2,2.5v0.8c-0.2,1-0.6,2.2-1.3,3.2c-1,1.3-2.5,2.3-4.6,2.3c-0.5,0-1,0-1.6-0.2c-1.2,2.4-2,4.9-2.1,7v0.7
			c0,0.7,0.1,1.2,0.2,1.6c0.2,0.4,0.6,0.7,1.1,0.7h0.2c1.1,0,2.7-0.7,4.8-2.2l0.2-0.2c3-2.4,7.1-6.5,12.4-13
			c0.2-0.2,0.4-0.3,0.7-0.3c0.2,0,0.3,0,0.5,0.2c0.2,0.2,0.2,0.5,0.2,0.7s-0.1,0.4-0.2,0.6c-5.3,6.6-9.5,10.9-12.7,13.4l-0.6,0.4
			c-1.7,1.3-3.2,2-4.3,2.3c-0.5,0.2-1,0.2-1.4,0.2C106.1,76.9,105.4,76.6,104.8,76L104.8,76z M112.7,61.4c0.6-0.7,0.8-1.5,0.9-2.2
			V59c0-0.3-0.1-0.5-0.3-0.5l-0.4,0.1c-0.7,0.3-1.8,1.3-3.3,3.4l-0.8,1.2l0.7,0.1C111,63.2,112.1,62.3,112.7,61.4z"/>
		<path class="st0" d="M128.1,76.4l-0.1-1.2c0-2.4,0.6-5.8,1.9-10.7c-2.9,4.8-7.3,7.8-7.3,7.8c-0.7,0.4-1.2,0.6-1.7,0.6
			c-0.9,0-1.3-0.8-1.4-2.1l0.2-1.3c0.3-2,1.4-4.7,2.9-7.1c1.8-3,4.3-5.4,6.8-5.4c0.6,0,1.1,0.1,1.6,0.3c0.4,0.2,0.7,0.7,0.7,1.2
			l-0.2,0.7c-0.1,0.2-0.4,0.4-0.7,0.4c-0.2,0-0.2,0-0.4-0.1c-0.2-0.2-0.5-0.2-0.8-0.2c-2,0-4.7,3.7-6.2,7c-0.6,1.2-0.9,2.2-1.2,3
			c-0.2,0.5-0.2,0.8-0.2,1.1c0,0.2,0,0.2,0.1,0.3h0.2l0.4-0.3c1.7-1.3,4.6-4.5,8.9-10.8c0.2-0.4,0.7-0.7,1-0.8l0.3-0.1l0.3,0.1
			c0.2,0.1,0.5,0.3,0.6,0.7l0.1,0.6l-0.1,0.6c-1.6,5.6-2.9,11.1-2.9,14.4v0.3c0,1.3,0.3,2.1,1.1,2.1c0.4,0,1.1-0.2,1.9-1
			c0.6-0.5,1.1-0.9,1.6-1.5c3.4-3.3,7.5-8.9,11.8-15.3c0.2-0.2,0.4-0.4,0.7-0.4l0.5,0.2c0.2,0.2,0.3,0.5,0.3,0.7s-0.1,0.4-0.2,0.6
			c-5.3,8.1-10.6,14.9-14.3,17.6l-1.3,0.9l-0.2,0.1c-0.7,0.4-1.5,0.5-2,0.5h-0.3C129.2,79.4,128.3,78.4,128.1,76.4L128.1,76.4z"/>
		<path class="st0" d="M144.9,75c0-2.7,0.2-6.2,0.9-10.4c0.2-1.6,0.9-5.2,0.9-5.2c1.2-7,3.1-15,5.4-22.5c2.5-8.1,5.4-15.7,8.4-21.1
			c2.4-4.2,4.9-6.6,6.7-7.4c0.5-0.2,0.9-0.2,1.3-0.2s0.8,0.1,1.1,0.3c0.4,0.2,0.7,0.6,1,1.1h0.1c0.1,0.3,0.2,0.7,0.3,1.1l0.2,1.3
			c0,2-0.7,5.1-2.4,8.9c-2.3,5.6-6.3,13.5-10.2,20.8c-3.8,7.1-7.5,13.6-9.4,16.8c-0.5,2.2-0.8,4.4-1.1,6.5c-0.6,3.9-0.8,7-0.8,9.4
			c0,3.6,0.6,5.6,1.6,6.2c0.3,0.2,0.7,0.2,1,0.2c1.8,0,4.5-2,7.5-4.8c4.4-4.5,9.5-11,13.9-16.7c0.2-0.2,0.4-0.3,0.7-0.3
			c0.2,0,0.3,0.1,0.5,0.2c0.2,0.2,0.3,0.4,0.3,0.7c0,0.2-0.1,0.4-0.2,0.6c-4.4,5.7-14.1,16.9-14.1,16.9c-2,2-3.9,3.6-5.5,4.7
			c-1.6,1-3,1.6-4.2,1.6C146.3,83.7,144.9,81.2,144.9,75L144.9,75z M157.3,40.8c3.9-7.3,7.9-15.2,10.2-20.7c1.6-3.6,2.1-6.3,2.1-8
			l-0.1-1.1c-0.1-0.4-0.3-0.7-0.6-0.7l-0.6,0.2c-0.6,0.2-1.2,0.7-2,1.4c-1.1,1.1-2.4,2.8-3.7,5c-2.9,5.2-5.8,12.6-8.3,20.7
			c-1.6,5.2-2.9,10.7-4.1,15.9C152.3,50.1,154.7,45.6,157.3,40.8L157.3,40.8z"/>
		<path class="st0" d="M180.9,78.7c-0.7-0.7-0.9-1.8-0.9-3.1c0-3.1,1.5-7.6,3.5-11.7c2.7-5.7,6.6-10.7,9.3-10.7h0.2
			c1.6,0.2,2.7,2.2,2.7,6.6c0,1.5-0.1,3.2-0.3,5.3c0,0.6-0.3,1.1-0.7,1.2c0,0,0,0.1-0.1,0.1l-0.4,0.1h-0.2c-0.2,0-0.5-0.2-0.7-0.3
			c-0.3-0.4-0.7-1.1-0.7-2.1c0-0.4,0.2-0.7,0.6-0.9c0.2-1.7,0.3-3.1,0.3-4.3c0-2.1-0.4-3.1-1-3.2h-0.2c-1.3,0-3.5,2.5-5.6,6
			c-2.3,3.8-4.4,8.5-4.9,12.1c-0.1,0.5-0.1,1-0.1,1.4c0,1.4,0.4,2.4,1.6,2.5h0.3c4.7,0,18.8-14.8,22.3-18.6c0.2-0.2,0.3-0.2,0.6-0.2
			c0.2,0,0.4,0.1,0.6,0.3c0.2,0.2,0.2,0.4,0.2,0.7c0,0.2-0.1,0.4-0.2,0.7c-3,3.3-17.8,19.2-24.3,19.2
			C182.2,79.6,181.4,79.3,180.9,78.7L180.9,78.7z"/>
		<path class="st0" d="M202,77.2c-0.7-0.8-1.1-2.1-1.1-4.1c0-0.8,0.1-1.7,0.2-2.8c0.1-0.7,0.2-1.2,0.3-1.8c0.6-2.8,1.6-5.7,3-7.6
			c1.2-2,2.9-3.3,4.4-3.3l0.6,0.1c0.1,0,0.2,0,0.2,0.1c0.4,0.1,0.7,0.6,0.7,1h0.3c0.6,0,1.2,0.5,1.5,1.9c0.2,0.8,0.3,1.6,0.3,2.4
			c0.4,0.2,0.8,0.2,1.4,0.2c2,0,5.1-1.1,10-4.1l0.5-0.2c0.2,0,0.6,0.2,0.7,0.5c0.1,0.2,0.1,0.3,0.1,0.5c0,0.3-0.2,0.6-0.4,0.7
			c-5,3.1-8.4,4.3-10.7,4.3c-0.6,0-1.1-0.1-1.5-0.2c-0.3,4.1-2.1,8-4.1,10.3l-0.2,0.3c-1.1,1.2-2.1,2.1-3.1,2.5
			c-0.4,0.2-0.8,0.2-1.2,0.2C203.2,78.2,202.5,77.8,202,77.2L202,77.2z M205.3,75.4c0.5-0.2,1.1-0.7,1.9-1.4c2-2.4,3.7-6.1,3.8-9.9
			c-0.5-0.3-0.8-0.8-1.1-1.2c-0.3-0.7-0.4-1.3-0.4-1.9v-0.5c0-0.3,0.1-0.7,0.2-0.9h-0.4c-0.7,0-1.6,0.7-2.3,2
			c-1.1,1.6-2,3.8-2.5,6.4l-0.3,1.6c-0.1,1.1-0.2,2-0.2,2.8c0,0.9,0.1,1.6,0.2,2.1c0.1,0.5,0.2,0.7,0.4,0.8l0.3,0.2L205.3,75.4
			L205.3,75.4z"/>
		<path class="st0" d="M219.9,77.2c-0.7-0.8-1.1-2.1-1.1-4.1c0-0.8,0.1-1.7,0.2-2.8c0.1-0.7,0.2-1.2,0.3-1.8c0.6-2.8,1.6-5.7,3-7.6
			c1.2-2,2.9-3.3,4.4-3.3l0.6,0.1c0.1,0,0.2,0,0.2,0.1c0.4,0.1,0.7,0.6,0.7,1h0.3c0.6,0,1.2,0.5,1.5,1.9c0.2,0.8,0.3,1.6,0.3,2.4
			c0.4,0.2,0.8,0.2,1.4,0.2c2,0,5.1-1.1,10-4.1l0.5-0.2c0.2,0,0.6,0.2,0.7,0.5c0.1,0.2,0.1,0.3,0.1,0.5c0,0.3-0.2,0.6-0.4,0.7
			c-5,3.1-8.4,4.3-10.7,4.3c-0.6,0-1.1-0.1-1.5-0.2c-0.3,4.1-2.1,8-4.1,10.3l-0.2,0.3c-1.1,1.2-2.1,2.1-3.1,2.5
			c-0.4,0.2-0.8,0.2-1.2,0.2C221,78.2,220.4,77.8,219.9,77.2L219.9,77.2z M223.2,75.4c0.5-0.2,1.1-0.7,1.9-1.4
			c2-2.4,3.7-6.1,3.8-9.9c-0.5-0.3-0.8-0.8-1.1-1.2c-0.3-0.7-0.4-1.3-0.4-1.9v-0.5c0-0.3,0.1-0.7,0.2-0.9h-0.4c-0.7,0-1.6,0.7-2.3,2
			c-1.1,1.6-2,3.8-2.5,6.4l-0.3,1.6c-0.1,1.1-0.2,2-0.2,2.8c0,0.9,0.1,1.6,0.2,2.1c0.1,0.5,0.2,0.7,0.4,0.8l0.3,0.2L223.2,75.4
			L223.2,75.4z"/>
		<path class="st0" d="M239.5,78.3c0-4.5,0.9-12.4,2.5-21l0.2-0.9c0.7-4.2,1.6-8.6,2.7-13c2.5-10.7,6-21.3,9.9-28.5
			c2.5-4.6,5.2-7.3,7.2-8.1c0.5-0.2,0.9-0.2,1.3-0.2h0.4c0.2,0,0.6,0.1,0.8,0.2c0.8,0.4,1.3,1.2,1.6,2.3c0.1,0.5,0.2,1.1,0.2,1.8
			c0,2.2-0.7,5.3-2.3,9.5c-2.1,5.5-5.5,12-8.9,18.2c-4.4,7.8-8.7,14.8-10.8,17.8c-0.8,3.7-1.4,7.1-1.9,10.3c1.2-2.7,2.7-4.9,4.4-7.1
			c3-3.9,5.6-5.7,7.1-6l0.7-0.1c0.9,0,1.6,0.4,1.8,1.2c0.1,0.2,0.2,0.6,0.2,0.9c0,0.7-0.2,1.4-0.6,2.3c-0.2,0.6-0.6,1.2-1.1,1.7
			c-1.6,2.5-5.1,5.7-10.7,8.5c0.7,5.4,2.2,7.8,4.1,8.2l0.7,0.1c1.8,0,3.9-1.2,6.1-3.1c3.6-3.1,7.3-7.7,9.8-10.8c1.5-1.7,2.5-3,3-3.5
			c0.2-0.1,0.3-0.2,0.5-0.2c0.2,0,0.5,0.2,0.7,0.4c0.2,0.2,0.2,0.4,0.2,0.6c0,0.2-0.1,0.5-0.3,0.7c-0.4,0.3-1.4,1.6-2.7,3.3
			c-2.4,2.9-5.7,7.1-9.1,10.2c0,0.1-0.1,0.2-0.2,0.2c-0.6,0.6-1.2,1.1-1.8,1.6c-2,1.6-4,2.7-5.8,2.9h-0.7c-2.8,0-5.1-2.1-6.1-7.6
			c-0.6,2.1-1.1,4.4-1.4,7.3c-0.1,0.6-0.4,0.9-0.9,0.9C239.9,79.2,239.5,78.8,239.5,78.3L239.5,78.3z M253.7,58.7
			c0.2-0.4,0.5-0.7,0.7-1.2c0.2-0.6,0.4-1,0.4-1.3l-0.1-0.3c0-0.1-0.1-0.1-0.3-0.1h-0.2c-1.3,0.2-3.4,1.9-6.2,5.4
			c-0.1,0-0.1,0.1-0.1,0.1c-1.1,1.4-2.1,2.8-2.9,4.4C249.3,63.2,252.1,60.7,253.7,58.7L253.7,58.7z M253.8,37.6
			c3.3-6.1,6.6-12.5,8.8-18c1.5-3.9,2.1-6.8,2.1-8.7l-0.2-1.4c-0.2-0.6-0.4-1-0.7-1.2c-0.2-0.1-0.2-0.1-0.4-0.1
			c-0.9,0-1.9,1-2.4,1.6c-1.2,1.2-2.5,3.1-3.5,4.9c-3.7,6.7-7.2,17-9.9,27.5c-0.9,3.2-1.6,6.4-2.4,9.6
			C247.5,48.3,250.6,43.2,253.8,37.6L253.8,37.6z"/>
		<path class="st0" d="M268.4,57.9c0.2-0.2,0.5-0.2,0.7-0.2l0.2,0.1c0.3,0.1,0.6,0.3,0.8,0.7c0.1,0.2,0.2,0.3,0.2,0.6v0.3
			c0,0.2,0,0.3-0.1,0.5c-1.5,6.1-2.2,10.4-2.2,13l0.1,0.6c0,0.6,0.2,0.8,0.5,0.8c0.4,0,1.1-0.4,1.9-1.2c1.2-1.2,2.5-2.9,3.9-4.8
			c1.4-1.9,2.5-3.6,3.6-5.3c0.2-0.2,0.5-0.7,1-1.4c0.7-0.9,1.1-1.6,1.4-1.8c0.6-0.7,1.1-1,1.8-1c0.2,0,0.4,0.1,0.6,0.3
			s0.2,0.5,0.2,0.8c-0.1,0.2-0.2,0.5-0.4,0.7c-0.1,0.1-0.2,0.2-0.4,0.2H282l-0.2,0.1c0,0.1-0.5,0.7-1.6,2c-0.3,0.5-0.6,0.8-0.7,1.1
			c-1.1,1.8-2.3,3.7-3.7,5.6c-1.4,2-2.8,3.7-4.2,5.1c-0.7,0.6-1.3,1.1-1.8,1.4c-0.8,0.7-1.6,1-2.2,1c-0.2,0-0.4,0-0.6-0.1
			c-1.1-0.2-1.6-1.6-1.6-4.4v-0.3c0-2.7,0.7-7.1,2.1-13c0-0.1,0-0.2,0.1-0.2C268,58.5,268.2,58.1,268.4,57.9L268.4,57.9z
			 M271.9,51.3v0.2c0,0.2,0,0.4-0.1,0.7c-0.1,0.1-0.1,0.1-0.1,0.2v0.3c0,0.2-0.1,0.5-0.3,0.7c-0.2,0.2-0.4,0.3-0.7,0.3
			s-0.4-0.1-0.6-0.3c-0.6-0.6-0.8-1.1-0.9-1.5v-0.4c0-0.2,0.1-0.5,0.2-0.7c0.2-0.2,0.5-0.4,0.7-0.5c0.4,0,0.8,0.1,1.1,0.2
			C271.6,50.9,271.8,51,271.9,51.3L271.9,51.3z"/>
		<path class="st0" d="M278,76c-0.8-0.7-1.2-2-1.3-3.4v-0.7c0-3.4,1.6-7.8,3.8-10.8c2.5-3.4,4.4-4.7,5.6-4.8h0.3c1.3,0,2,1,2.2,2.5
			v0.8c-0.2,1-0.6,2.2-1.3,3.2c-1,1.3-2.5,2.3-4.6,2.3c-0.5,0-1,0-1.6-0.2c-1.1,2.4-2,4.9-2,7v0.7c0,0.7,0.1,1.2,0.2,1.6
			c0.2,0.4,0.6,0.7,1.1,0.7h0.2c1.1,0,2.7-0.7,4.8-2.2l0.2-0.2c3-2.4,7-6.5,12.4-13c0.2-0.2,0.4-0.3,0.7-0.3c0.2,0,0.3,0,0.5,0.2
			c0.2,0.2,0.2,0.5,0.2,0.7s-0.1,0.4-0.2,0.6c-5.3,6.6-9.5,10.9-12.7,13.4l-0.6,0.4c-1.7,1.3-3.2,2-4.4,2.3c-0.5,0.2-1,0.2-1.4,0.2
			C279.4,76.9,278.6,76.6,278,76L278,76z M286,61.4c0.6-0.7,0.8-1.5,0.9-2.2V59c0-0.3-0.1-0.5-0.3-0.5l-0.4,0.1
			c-0.7,0.3-1.8,1.3-3.3,3.4l-0.8,1.2l0.7,0.1C284.3,63.2,285.3,62.3,286,61.4z"/>
		<path class="st0" d="M320,71.4c0-2.9,0.2-5.7,0.7-8.8c-4.1,5.5-7,8.9-8.9,10.3c-0.8,0.8-1.8,1.2-2.8,1.2s-1.5-0.9-1.5-2.5
			c0-2.6,1.1-5.8,3.4-9.8c2.6-4.2,5.2-6.3,7.9-6.3c1.4,0,2.4,0.4,3,1.2c2.2-10.2,5.2-20.2,8.9-30.1c4.3-11.3,8.1-16.9,11.6-16.9
			c1.9,0,2.9,1.6,2.9,4.8c0,2.8-0.9,6.4-2.6,10.8c-2.2,5.3-4.9,10.8-8.2,16.5c-4.3,7.2-7.8,12.8-10.6,16.7c-1.1,5.3-1.7,9.7-1.7,13
			c0,3.6,0.8,5.4,2.3,5.4c0.7,0,1.5-0.2,2.5-0.8c3.5-2.1,8.9-7.8,15.9-17.1c0.1-0.2,0.3-0.3,0.6-0.3c0.5,0,0.8,0.2,0.9,0.7
			c0,0.2-0.1,0.5-0.2,0.7c-4.2,5.6-7.7,9.8-10.6,12.7c0,0.1,0,0.1-0.1,0.1c-3.9,3.9-7,5.9-9.3,5.9C321.3,79,320,76.5,320,71.4
			L320,71.4z M321.4,58.6c-0.5,0-0.8-0.1-1.1-0.3c-0.3-0.2-0.7-0.2-1.1-0.2c-1.1,0-2.2,0.7-3.5,2c-1.6,1.8-3,3.8-4.2,6.2
			c-1.1,2.4-1.7,4.1-1.7,5.2v0.3c0.1,0.1,0.1,0.1,0.2,0.1C311.5,71.8,315.3,67.4,321.4,58.6z M341.1,24.6c1.6-4.2,2.5-7.5,2.5-10.1
			c0-1.1-0.2-2.1-0.5-2.5c-0.1,0-0.2,0-0.2-0.1s-0.2-0.1-0.3-0.1c-1.5,0-3.4,2.5-5.8,7.5c-2.4,4.8-4.3,9.4-5.7,13.9
			c-2.4,7-4.4,13.9-6.1,20.6C332.1,43,337.6,33.2,341.1,24.6L341.1,24.6z"/>
		<path class="st0" d="M338.6,77.2c-0.7-0.8-1.1-2.1-1.1-4.1c0-0.8,0.1-1.7,0.2-2.8c0.1-0.7,0.2-1.2,0.3-1.8c0.6-2.8,1.6-5.7,3-7.6
			c1.2-2,2.9-3.3,4.4-3.3l0.6,0.1c0.1,0,0.2,0,0.2,0.1c0.4,0.1,0.7,0.6,0.7,1h0.3c0.6,0,1.2,0.5,1.5,1.9c0.2,0.8,0.3,1.6,0.3,2.4
			c0.4,0.2,0.8,0.2,1.4,0.2c2,0,5.1-1.1,10-4.1l0.5-0.2c0.2,0,0.6,0.2,0.7,0.5c0.1,0.2,0.1,0.3,0.1,0.5c0,0.3-0.2,0.6-0.4,0.7
			c-5,3.1-8.5,4.3-10.7,4.3c-0.6,0-1.1-0.1-1.5-0.2c-0.3,4.1-2.1,8-4.1,10.3l-0.2,0.3c-1.1,1.2-2.1,2.1-3.1,2.5
			c-0.4,0.2-0.8,0.2-1.2,0.2C339.8,78.2,339.1,77.8,338.6,77.2L338.6,77.2z M341.9,75.4c0.5-0.2,1.1-0.7,1.9-1.4
			c2-2.4,3.7-6.1,3.8-9.9c-0.5-0.3-0.8-0.8-1.1-1.2c-0.3-0.7-0.4-1.3-0.4-1.9v-0.5c0-0.3,0.1-0.7,0.2-0.9h-0.4c-0.7,0-1.6,0.7-2.3,2
			c-1.1,1.6-2,3.8-2.5,6.4l-0.3,1.6c-0.1,1.1-0.2,2-0.2,2.8c0,0.9,0.1,1.6,0.2,2.1c0.1,0.5,0.2,0.7,0.4,0.8l0.3,0.2L341.9,75.4
			L341.9,75.4z"/>
		<path class="st0" d="M367.5,75.5l-0.1-1.5c0-1.8,0.3-4.3,1.1-7.8c-1.4,2.2-2.6,4-3.7,5.3l-0.2,0.2c-1.4,1.6-2.5,2.6-3.4,3.2
			c-0.6,0.3-1.1,0.5-1.6,0.5c-0.7,0-1.3-0.5-1.8-1.2c-0.4-0.8-0.7-2.1-0.7-3.5v-0.7c0.2-4.1,2-9.9,4.2-12.1c0.3-0.3,0.8-0.7,1.3-0.8
			c0.3,0,0.7,0,1.1,0.2l0.2,0.1l0.1,0.2c0.1,0,0.1,0.1,0.1,0.1c0.1,0.2,0.2,0.3,0.2,0.6s-0.2,0.6-0.3,0.7c-2,1.6-3.9,6.9-4.1,10.6
			v0.8c0,0.7,0.1,1.3,0.2,1.8c0.1,0.3,0.2,0.5,0.5,0.5h0.1c0.6,0,1.6-0.7,3-2.3v-0.1c1.7-2.1,3.8-5.3,6.4-10.1v-0.1
			c0.2-0.3,0.6-0.7,0.8-0.8c0.2-0.1,0.4-0.1,0.7-0.1c0.3,0.2,0.6,0.3,0.7,0.7l0.1,0.2c0,0.2,0,0.6-0.1,1c-1.4,5.7-2.3,10.2-2.3,12.9
			v0.3c0.1,1,0.3,1.6,0.9,1.6c0.4,0,1.1-0.2,1.7-0.9c3.6-3.2,8.6-10.4,11.8-15.7c0.2-0.2,0.4-0.4,0.7-0.4l0.4,0.2
			c0.2,0.2,0.4,0.5,0.4,0.8l-0.2,0.5c-3.3,5.3-8.4,12.7-12.1,16c-1.3,1.2-2.5,2-3.6,2C368.6,78.3,367.7,77.5,367.5,75.5L367.5,75.5z
			"/>
		<path class="st0" d="M389.5,64.2c-0.1,0.1-0.2,0.2-0.2,0.3l-0.7,1c-0.4,0.5-0.7,0.9-1.1,1.3c-3.2,4.2-5.5,6.4-6.9,6.6
			c-0.4,0.1-0.7,0.2-1,0.2c-1,0-1.5-0.7-1.5-2v-0.2c0-0.5,0.1-1.1,0.2-1.7c0.4-2.2,1.4-4.6,3-7.2c1.1-1.6,2.2-3,3.5-4.2
			c1.2-1.2,2.5-1.7,3.9-1.7c0.6,0,1.1,0.2,1.7,0.4c0.7,0.3,1.1,0.8,1.1,1.5c0,0.2-0.1,0.4-0.2,0.7l1.2-1.5h0.1v-0.1h0.1
			c0.1-0.2,0.2-0.2,0.2-0.3c1.5-1.6,2.7-2.4,3.8-2.4h0.2c0.7,0.1,1.2,0.5,1.6,1.3s0.6,2.1,0.6,3.9c0,1.1-0.1,2.2-0.2,3.6l-0.3,2.5
			l-0.3,2.6c3-3.2,6.3-6.4,9.9-9.6c0.2-0.2,0.3-0.2,0.5-0.2c0.2,0,0.4,0.1,0.7,0.3c0.1,0.2,0.2,0.3,0.2,0.6s-0.1,0.5-0.3,0.7
			c-4.1,3.8-7.9,7.5-11.2,11.2c-2.1,14.8-4.7,26.7-7.7,35.3c-3,8.7-6,14.8-9,18.1c-2.4,2.9-4.6,4.3-6.5,4.3c-0.9,0-1.6-0.2-2.4-0.8
			c-1.6-1.3-2.5-3.8-2.5-7.5c0-1.2,0.1-2.7,0.3-4.3c0.7-5.3,3-11.8,7-19.6s10.2-16.3,18.5-25.6c0.4-2.6,0.7-5.3,1.1-8.2
			c0.2-1.6,0.2-2.9,0.2-3.8c0-1.6-0.2-2.4-0.6-2.5c-0.1-0.1-0.1-0.1-0.2-0.1c-0.5,0-1.3,0.6-2.5,1.8V59h-0.1
			C392.2,60.5,390.9,62.3,389.5,64.2L389.5,64.2z M383.7,117c4.2-7.8,7.8-20.6,10.8-38.4c0.2-1.2,0.5-2.5,0.7-3.8
			c-7.6,8.8-13.2,16.8-16.9,24.1s-5.9,13.4-6.5,18.3c-0.2,1.6-0.3,2.9-0.3,4.2c0,2.9,0.6,4.9,1.8,5.9c0.3,0.2,0.7,0.4,1,0.4
			c0.1,0,0.2,0,0.4-0.1C377.2,127.3,380.2,123.8,383.7,117L383.7,117z M388.9,59c-1.1,0-2.3,0.8-3.5,2.4c-1.3,1.6-2.5,3.3-3.4,5.2
			c-0.6,1.2-1.1,2.2-1.3,3.3c-0.1,0.6-0.2,1.1-0.2,1.3v0.2c0,0.1,0,0.1,0.1,0.1c0.2,0,0.7-0.3,1.3-1c0.6-0.6,1.2-1.3,2-2.1
			c0.7-0.7,1.2-1.4,1.7-2c0.3-0.4,0.6-0.7,0.7-0.7c0.6-0.7,1.1-1.6,1.7-2.4c0.4-0.4,0.7-0.9,1.1-1.4s0.7-1,1.1-1.4
			c-0.1,0-0.2,0-0.2-0.1c-0.2,0-0.3,0-0.4-0.1c-0.2-0.2-0.3-0.5-0.3-0.7s0.1-0.4,0.2-0.6C389.2,59,389.1,59,388.9,59L388.9,59z"/>
		<path class="st0" d="M407.8,59.6c0.6-3.7,1.3-7.4,2-11.2c2.2-11.4,4.9-21,8-28.7c3.8-8.6,7-13.5,9.9-14.9h0.1
			c0.7-0.4,1.4-0.6,2-0.6s1.1,0.2,1.6,0.5c0.7,0.5,1.3,1.4,1.7,2.7v0.2c0.1,0.2,0.1,0.3,0.2,0.6c0.2,0.7,0.2,1.6,0.2,2.5
			c0,4.2-1.6,10-5,17.4c-2.3,4.7-4.9,9.3-7.8,14.2c-3,4.8-5.6,8.9-7.9,12.5c-0.9,1.4-1.7,2.6-2.3,3.7c-1,5.8-1.6,11-2,15.7
			c0.5-0.7,1.3-1.9,2.5-3.4c1.1-1.6,2.4-3.1,3.6-4.7c1.2-1.5,2.1-2.5,2.8-2.9c0.5-0.2,0.9-0.3,1.2-0.3c0.6,0,1.1,0.3,1.3,1
			c0.2,0.7,0.3,1.5,0.3,2.4c0,1-0.2,2.1-0.3,3.3v0.2c-0.2,1.4-0.2,2.6-0.3,3.8v0.6c0,0.8,0.1,1.4,0.3,1.7c0.1,0.1,0.2,0.2,0.3,0.2
			c0.3,0,0.9-0.3,1.7-0.9s2.2-2,4.2-4.2c3.2-3.7,6.3-7.5,9.2-11.5c0.2-0.2,0.3-0.3,0.6-0.4c0.2,0,0.4,0.1,0.7,0.2
			c0.2,0.2,0.2,0.3,0.3,0.6c0,0.2-0.1,0.5-0.2,0.7c-3,4-6.1,8-9.4,11.6c-1.8,2-3.3,3.4-4.5,4.3c-1.5,1.1-2.6,1.6-3.4,1.6
			c-0.4,0-0.7-0.2-1-0.4c-0.6-0.6-0.9-1.6-0.9-2.9v-1.3c0-0.8,0.1-2.1,0.3-3.7v-0.2c0.2-1.1,0.3-2.1,0.4-3c0-0.4,0.1-0.8,0.1-1.1
			c0-0.3-0.1-0.5-0.1-0.7l-0.1,0.1c-0.8,0.5-1.9,1.6-3.2,3.3c-1.3,1.7-2.6,3.4-3.9,5.3c-1.3,1.9-2.4,3.4-3.1,4.7
			c-0.2,0.2-0.4,0.5-0.5,0.7c-0.2,0.2-0.4,0.4-0.7,0.4c-0.2,0-0.4-0.1-0.6-0.2s-0.2-0.4-0.2-0.7C406.1,73.3,406.7,67.1,407.8,59.6
			L407.8,59.6L407.8,59.6z M411.5,53.6c0.1-0.1,0.1-0.2,0.2-0.2c2.3-3.5,4.9-7.6,7.8-12.4c2.9-4.7,5.4-9.3,7.6-13.9
			c3.2-7.1,4.8-12.6,4.8-16.3c0-0.8-0.1-1.6-0.2-2.2c-0.1-0.1-0.1-0.2-0.1-0.2V8c-0.2-0.4-0.3-0.7-0.6-1c-0.2-0.2-0.4-0.2-0.7-0.2
			c-0.2,0-0.3,0.1-0.5,0.1c-0.6,0.2-1.3,0.7-2.2,1.5c-2.2,2.1-4.8,6.4-7.5,12.8c-2.9,7.1-5.3,15.9-7.5,26.6c-0.4,2-0.8,4.1-1.2,6.2
			L411.5,53.6L411.5,53.6z"/>
	</g>
</g>
</svg>
