<?xml version="1.0" encoding="utf-8"?>
<!-- Generator: Adobe Illustrator 27.8.1, SVG Export Plug-In . SVG Version: 6.00 Build 0)  -->
<svg version="1.1" id="Layer_2_00000012444828324093904360000011982777102289984686_"
	 xmlns="http://www.w3.org/2000/svg" xmlns:xlink="http://www.w3.org/1999/xlink" x="0px" y="0px" viewBox="0 0 341.3 108.5"
	 style="enable-background:new 0 0 341.3 108.5;" xml:space="preserve">
<style type="text/css">
	.st0{fill:#F9F0DF;}
</style>
<g id="Layer_1-2">
	<path class="st0" d="M16.4,85.5c-0.9-0.9-1.6-2.9-2.1-6.5c-0.2-1.3-0.2-2.7-0.2-3.9c0-1.5,0.1-2.9,0.2-4l-0.8,1.2
		c-2.9,4.1-5.1,5.9-6.7,6.2H6.3c-1.2,0-2.1-0.7-2.6-2.1c-0.3-0.9-0.5-2.1-0.5-3.4l0.1-1.4c0.3-5,2.8-11.8,6.6-14.3
		c0.3-0.3,0.9-0.6,1.3-0.7h0.1c0.3,0,0.5,0.1,0.7,0.2c0.2,0.2,0.4,0.5,0.4,0.8v0.2c0,0.3-0.2,0.6-0.4,0.7c-3.4,2-5.7,8.4-6.2,13
		l-0.1,1.4c0,1,0.1,1.8,0.3,2.4C6.2,75.7,6.5,76,6.9,76h0.2c1.1-0.2,2.9-1.8,5.3-5.3c0.7-1.1,1.3-1.9,1.7-2.4
		c0.3-0.6,0.8-1.5,1.3-1.6l0.2-0.1l0.7,0.2c0.4,0.2,0.7,0.7,0.7,1.2v0.2c-0.1,0.2-0.1,0.5-0.1,0.9c-0.2,1.2-0.4,3.6-0.4,6.2
		c0,1.2,0,2.4,0.2,3.5c0.3,2.5,0.7,3.9,1.2,4.6c0.2,0.2,0.2,0.3,0.4,0.3c0.2-0.1,0.5-0.3,0.9-0.8c1.2-1.6,2.5-4.8,3.7-8.5
		c1.2-3.4,2-9.8,2-13.9v-1.4c0-2,0.7-2.8,1.7-2.9c0.8,0,1.8,0.5,3,1.2c1.6,0.9,3.9,2.1,6.3,2.1c1.5,0,3-0.4,4.7-1.6
		c0.1-0.1,0.2-0.2,0.4-0.2c0.3,0,0.6,0.2,0.7,0.4l0.2,0.5c0,0.3-0.2,0.6-0.4,0.7c-2,1.5-3.8,2-5.5,2c-2.8,0-5.3-1.4-7.1-2.4
		c-1-0.5-1.8-0.7-2.1-0.7c-0.2,0-0.2,0.1-0.2,1.1v1.1c0,4.4-0.9,10.5-2.3,14.7c-0.7,2.6-1.6,5.1-2.5,6.9c-0.7,1.6-1.6,2.7-2.4,3.4
		c-0.6,0.5-1.1,0.7-1.6,0.7S16.9,86,16.4,85.5L16.4,85.5z"/>
	<path class="st0" d="M40.1,58.7c0.6-3.7,1.3-7.4,2-11.2c2.2-11.4,4.9-21,8-28.7c3.8-8.6,7-13.5,9.9-14.9h0.1c0.7-0.4,1.4-0.6,2-0.6
		s1.2,0.2,1.6,0.5c0.7,0.5,1.3,1.4,1.7,2.7v0.2c0.1,0.2,0.1,0.3,0.2,0.6c0.2,0.7,0.2,1.6,0.2,2.5c0,4.2-1.6,10-5,17.4
		c-2.3,4.7-4.9,9.3-7.8,14.2c-3,4.8-5.6,8.9-7.9,12.5c-0.9,1.4-1.7,2.6-2.3,3.7c-1,5.8-1.6,11-2,15.7c0.5-0.7,1.3-1.9,2.5-3.4
		s2.4-3.1,3.6-4.7c1.2-1.5,2.1-2.5,2.8-2.9c0.5-0.2,0.9-0.3,1.2-0.3c0.6,0,1.1,0.3,1.3,1c0.2,0.7,0.3,1.5,0.3,2.4
		c0,1-0.2,2.1-0.3,3.3v0.2c-0.2,1.4-0.2,2.6-0.3,3.8v0.6c0,0.8,0.1,1.4,0.3,1.7c0.1,0.1,0.2,0.2,0.3,0.2c0.3,0,0.9-0.3,1.7-0.9
		s2.2-2,4.2-4.2c3.2-3.7,6.3-7.5,9.2-11.5c0.2-0.2,0.3-0.3,0.6-0.4c0.2,0,0.4,0.1,0.7,0.2c0.2,0.2,0.2,0.3,0.3,0.6
		c0,0.2-0.1,0.5-0.2,0.7c-3,4-6.1,8-9.3,11.6c-1.8,2-3.3,3.4-4.5,4.3c-1.5,1.1-2.6,1.6-3.4,1.6c-0.4,0-0.7-0.2-1-0.4
		c-0.6-0.6-0.9-1.6-0.9-2.9v-1.3c0-0.8,0.1-2.1,0.3-3.7v-0.2c0.2-1.1,0.3-2.1,0.4-3c0-0.4,0.1-0.8,0.1-1.1c0-0.3-0.1-0.5-0.1-0.7
		l-0.1,0.1c-0.8,0.5-1.9,1.6-3.2,3.3c-1.3,1.7-2.6,3.4-3.8,5.3c-1.3,1.9-2.4,3.4-3.1,4.7c-0.2,0.2-0.4,0.5-0.5,0.7
		c-0.2,0.2-0.4,0.4-0.7,0.4c-0.2,0-0.4-0.1-0.6-0.2c-0.2-0.2-0.2-0.4-0.2-0.7C38.4,72.3,39,66.2,40.1,58.7L40.1,58.7L40.1,58.7z
		 M43.8,52.6c0.1-0.1,0.1-0.2,0.2-0.2c2.3-3.5,4.9-7.6,7.8-12.4c2.9-4.7,5.4-9.4,7.6-13.9c3.2-7.1,4.8-12.6,4.8-16.3
		c0-0.8-0.1-1.6-0.2-2.2c-0.1-0.1-0.1-0.2-0.1-0.2V7c-0.2-0.4-0.3-0.7-0.6-1c-0.2-0.2-0.4-0.2-0.7-0.2c-0.2,0-0.3,0.1-0.5,0.1
		C61.6,6,60.9,6.5,60,7.3c-2.2,2.1-4.8,6.4-7.5,12.8c-2.9,7.1-5.3,15.9-7.5,26.6c-0.4,2-0.8,4.1-1.2,6.2L43.8,52.6L43.8,52.6z"/>
	<path class="st0" d="M63.7,75c-0.8-0.7-1.2-2-1.3-3.4v-0.7c0-3.4,1.6-7.8,3.8-10.8c2.5-3.4,4.4-4.7,5.6-4.8h0.3
		c1.3,0,2.1,1,2.2,2.5v0.8c-0.2,1-0.6,2.2-1.3,3.2C72,63,70.5,64,68.4,64c-0.5,0-1,0-1.6-0.2c-1.2,2.4-2,4.9-2,7v0.7
		c0,0.7,0.1,1.2,0.2,1.6c0.2,0.4,0.6,0.7,1.1,0.7h0.2c1.1,0,2.7-0.7,4.8-2.2l0.2-0.2c3-2.4,7.1-6.5,12.4-13c0.2-0.2,0.4-0.3,0.7-0.3
		c0.2,0,0.3,0,0.5,0.2c0.2,0.2,0.2,0.5,0.2,0.7s-0.1,0.4-0.2,0.6c-5.3,6.6-9.5,10.9-12.7,13.4l-0.6,0.4c-1.7,1.3-3.2,2-4.3,2.3
		c-0.5,0.2-1,0.2-1.4,0.2C65.1,75.9,64.3,75.6,63.7,75L63.7,75z M71.7,60.5c0.6-0.7,0.8-1.5,0.9-2.2V58c0-0.3-0.1-0.5-0.3-0.5
		l-0.4,0.1c-0.7,0.3-1.8,1.3-3.3,3.4l-0.8,1.2l0.7,0.1C70,62.2,71,61.4,71.7,60.5z"/>
	<path class="st0" d="M81.2,82c-0.5-0.2-0.7-0.7-0.7-1.6v-0.3c0.1-0.7,0.2-1.6,0.6-2.5c1-3.4,3-8.3,4.2-10.9
		c0.7-1.7,1.1-2.9,1.1-3.8c0-1.6-0.9-2.2-1.7-2.9c-0.9-0.7-1.8-1.4-1.8-2.6c0-0.7,0.3-1.6,1-2.7l0.1-0.2l0.5-0.7
		c0.2-0.2,0.6-0.3,0.9-0.3c0.2,0,0.5,0.2,0.5,0.2c0.2,0.1,0.3,0.2,0.4,0.4l0.1,0.5c0,0.3-0.1,0.6-0.2,0.9c-0.5,0.7-0.7,1.3-0.7,1.8
		c0,0.7,0.6,1.2,1.1,1.6c1.1,0.8,2.2,1.8,2.2,3.9c0,1.2-0.4,2.7-1.3,4.8c-0.9,2.1-2.5,5.7-3.6,8.5c-0.7,2.1-1.2,3.3-1.2,3.7
		c1.6-1.4,4.7-6,8.2-11.3c2.3-3.7,4.8-7.5,6.9-10.2c0.2-0.2,0.3-0.3,0.6-0.3l0.4,0.2c0.2,0.2,0.2,0.3,0.2,0.6s-0.1,0.4-0.2,0.6
		c-2.1,2.8-4.5,6.5-6.9,10.2c-1.4,2.2-7.6,12.4-10,12.7C81.5,82.1,81.4,82.1,81.2,82L81.2,82z"/>
	<path class="st0" d="M93.5,75c-0.8-0.7-1.2-2-1.3-3.4v-0.7c0-3.4,1.6-7.8,3.8-10.8c2.5-3.4,4.3-4.7,5.6-4.8h0.3
		c1.3,0,2.1,1,2.2,2.5v0.8c-0.2,1-0.6,2.2-1.3,3.2c-1,1.3-2.5,2.3-4.6,2.3c-0.5,0-1,0-1.6-0.2c-1.2,2.4-2,4.9-2.1,7v0.7
		c0,0.7,0.1,1.2,0.2,1.6c0.2,0.4,0.6,0.7,1.1,0.7h0.2c1.1,0,2.7-0.7,4.8-2.2l0.2-0.2c3-2.4,7.1-6.5,12.4-13c0.2-0.2,0.4-0.3,0.7-0.3
		c0.2,0,0.3,0,0.5,0.2c0.2,0.2,0.2,0.5,0.2,0.7s-0.1,0.4-0.2,0.6c-5.3,6.6-9.5,10.9-12.7,13.4l-0.6,0.4c-1.7,1.3-3.2,2-4.3,2.3
		c-0.5,0.2-1,0.2-1.4,0.2C94.8,75.9,94.1,75.6,93.5,75L93.5,75z M101.5,60.5c0.6-0.7,0.8-1.5,0.9-2.2V58c0-0.3-0.1-0.5-0.3-0.5
		l-0.4,0.1c-0.7,0.3-1.8,1.3-3.3,3.4l-0.8,1.2l0.7,0.1C99.7,62.2,100.8,61.4,101.5,60.5z"/>
	<path class="st0" d="M126.5,104.3v-1.2c0-6.1,2.1-27.9,5.4-47.7c0.9-5.7,2.1-11.1,3.1-16.1l-20.6-0.1c-0.1,0.2-0.2,0.2-0.3,0.2
		c-0.6,0.2-1.2,0.3-1.6,0.3c-0.3,0-0.7-0.1-0.8-0.2c-0.3-0.2-0.6-0.5-0.7-0.8c0-0.3,0-0.7,0.2-1v-0.1c0.2-0.2,0.6-0.5,1-0.5h0.2
		c0.6-0.1,1.6-0.1,2.9-0.1l9.1,0.2l11,0.2c1.4-6.1,3-11.2,4.7-14.6c0.2-0.7,1-1.5,1.7-1.6c0.3,0,0.6,0,0.9,0.2
		c0.2,0.2,0.4,0.5,0.5,0.8l0.1,0.4c0,0.4-0.2,0.9-0.4,1.5c-0.1,0.2-0.2,0.2-0.4,0.3c-1.5,3.1-2.9,7.6-4.3,13.1h0.9
		c8.1,0.1,16.6,0.2,23.3,0.2c6,0,10.6-0.1,12.1-0.3h0.2c0.4,0,0.8,0.3,0.9,0.7v0.2c0,0.4-0.3,0.8-0.7,0.9c-1.6,0.2-6.2,0.3-12.3,0.3
		c-7.9,0-15.7-0.2-24.8-0.2c-1.2,5.2-2.4,10.9-3.4,16.9c-3.6,20.2-5.9,42.3-5.9,47.2v0.2l0.1,0.6c0,0.7-0.5,1.2-1,1.2
		C127.1,105.4,126.7,105.1,126.5,104.3L126.5,104.3z"/>
	<path class="st0" d="M137.6,76.2c-0.7-0.8-1.1-2.1-1.1-4.1c0-0.8,0.1-1.7,0.2-2.8c0.1-0.7,0.2-1.2,0.3-1.8c0.6-2.8,1.6-5.7,3-7.6
		c1.2-2,2.9-3.3,4.4-3.3l0.6,0.1c0.1,0,0.2,0,0.2,0.1c0.4,0.1,0.7,0.6,0.7,1h0.3c0.6,0,1.2,0.5,1.5,1.9c0.2,0.8,0.3,1.6,0.3,2.4
		c0.4,0.2,0.8,0.2,1.4,0.2c2,0,5.1-1.1,10-4.1l0.5-0.2c0.2,0,0.6,0.2,0.7,0.5c0.1,0.2,0.1,0.3,0.1,0.5c0,0.3-0.2,0.6-0.4,0.7
		c-5,3.1-8.4,4.3-10.7,4.3c-0.6,0-1.1-0.1-1.5-0.2c-0.3,4.1-2.1,8-4.1,10.3l-0.2,0.3c-1.1,1.2-2.1,2.1-3.1,2.5
		c-0.4,0.2-0.8,0.2-1.2,0.2C138.8,77.2,138.1,76.9,137.6,76.2L137.6,76.2z M140.9,74.4c0.5-0.2,1.1-0.7,1.9-1.4
		c2-2.4,3.7-6.1,3.8-9.9c-0.5-0.3-0.8-0.8-1.1-1.2c-0.3-0.7-0.4-1.3-0.4-1.9v-0.5c0-0.3,0.1-0.7,0.2-0.9h-0.4c-0.7,0-1.6,0.7-2.3,2
		c-1.1,1.6-2,3.8-2.5,6.4l-0.3,1.6c-0.1,1.1-0.2,2-0.2,2.8c0,0.9,0.1,1.6,0.2,2.1c0.1,0.5,0.2,0.7,0.4,0.8l0.3,0.2L140.9,74.4
		L140.9,74.4z"/>
	<path class="st0" d="M170.8,104.4c-0.2-0.6-0.5-1.6-0.5-3.3v-0.8c0-2.4,0.2-5.3,0.2-8.2c0.2-5.6,0.6-10.7,0.6-11l0.5-5.7
		c-0.2-0.2-0.3-0.4-0.6-0.6c-0.2-0.2-0.5-0.5-0.6-0.7c-0.2-0.4-0.4-0.9-0.4-1.3c0-0.8,0.4-1.6,1.1-2.5c0.3-0.5,0.8-1,1.3-1.5
		c2.4-15.8,6.8-26.7,10.2-32c1.1-1.9,2.2-3.1,3.1-3.7c0.6-0.3,1-0.5,1.4-0.5c0.7,0,1.1,0.4,1.3,1.4c0.1,0.2,0.1,0.6,0.1,1
		c0,1.1-0.2,2.5-0.9,4.4c-0.2,0.6-0.7,0.8-1.1,0.8c-0.6,0-1.1-0.4-1.1-1.2l0.1-0.5c0.3-0.8,0.6-1.6,0.7-2.1c-0.7,0.7-1.5,2-2.5,3.8
		l-0.2,0.5c-2.3,3.8-4.9,10-7.1,18.5c-0.6,2.4-1.1,4.8-1.6,7.5h0.1c4.3-3.2,10.7-6.6,15-8.6l0.3-0.1c0.3,0,0.7,0.2,0.7,0.6l0.1,0.4
		c0,0.3-0.2,0.7-0.5,0.8c-4.3,2-10.5,5.2-14.8,8.4c-0.5,0.4-1,0.8-1.5,1.2c-0.2,1.9-0.6,3.8-0.7,5.8c2.2,3.1,2.9,7.7,2.9,12.3
		c0,3.7-0.5,7.5-1.1,10.5c-0.6,2.4-1.2,4.3-1.8,5.5c-0.7,1.2-1.2,2-1.8,2C171.5,105.4,171.2,105.1,170.8,104.4L170.8,104.4z M172,72
		c-0.1,0.2-0.2,0.5-0.2,0.7l0.1,0.3L172,72z M172.2,102.5c0.6-1,1.1-2.9,1.6-5c0.7-2.9,1.1-6.6,1.1-10.2c0-3.4-0.4-6.7-1.6-9.3
		c-0.2,1.7-0.3,3.4-0.4,5.2c-0.1,0.3-0.3,5.5-0.7,11l-0.2,8.1c0,0.4,0,0.6,0.1,0.6L172.2,102.5L172.2,102.5z"/>
	<path class="st0" d="M190.3,56.9c0.2-0.2,0.5-0.2,0.7-0.2l0.2,0.1c0.3,0.1,0.6,0.3,0.8,0.7c0.1,0.2,0.2,0.3,0.2,0.6v0.3
		c0,0.2,0,0.3-0.1,0.5c-1.5,6.1-2.2,10.4-2.2,13l0.1,0.6c0,0.6,0.2,0.8,0.5,0.8c0.4,0,1.1-0.4,1.9-1.2c1.2-1.2,2.5-2.9,3.9-4.8
		c1.4-1.9,2.5-3.6,3.6-5.3c0.2-0.2,0.5-0.7,1-1.4c0.7-0.9,1.1-1.6,1.4-1.8c0.6-0.7,1.1-1,1.8-1c0.2,0,0.4,0.1,0.6,0.3
		s0.2,0.5,0.2,0.8c-0.1,0.2-0.2,0.5-0.4,0.7c-0.1,0.1-0.2,0.2-0.4,0.2H204l-0.2,0.1c0,0.1-0.5,0.7-1.6,2c-0.3,0.5-0.6,0.8-0.7,1.1
		c-1.1,1.8-2.3,3.7-3.7,5.6c-1.4,2-2.8,3.7-4.2,5.1c-0.7,0.6-1.3,1.1-1.8,1.4c-0.8,0.7-1.6,1-2.2,1c-0.2,0-0.4,0-0.6-0.1
		c-1.1-0.2-1.6-1.6-1.6-4.4v-0.3c0-2.7,0.7-7.1,2.1-13c0-0.1,0-0.2,0.1-0.2C189.9,57.5,190.1,57.2,190.3,56.9L190.3,56.9z
		 M193.8,50.3v0.2c0,0.2,0,0.4-0.1,0.7c-0.1,0.1-0.1,0.1-0.1,0.2v0.3c0,0.2-0.1,0.5-0.3,0.7c-0.2,0.2-0.4,0.3-0.7,0.3
		s-0.4-0.1-0.6-0.3c-0.6-0.6-0.8-1.1-0.9-1.5v-0.4c0-0.2,0.1-0.5,0.2-0.7c0.2-0.2,0.5-0.4,0.7-0.5c0.4,0,0.8,0.1,1.1,0.2
		C193.6,49.9,193.7,50.1,193.8,50.3L193.8,50.3z"/>
	<path class="st0" d="M198.6,77.7v-0.5c0.1-0.7,0.3-1.7,0.7-3c1.2-5.3,4.3-14.9,5.3-17.8c0.2-0.6,0.8-0.8,1.3-0.8s1,0.2,1,0.8v0.2
		l-0.1,0.4c-1.1,2.9-4.2,11.7-5.6,16.8v0.2l1.1-2.1c2.1-3.8,5.3-10.1,8.2-13.1c0.6-0.7,1.1-1.1,1.6-1.3c0.2-0.1,0.5-0.2,0.8-0.2
		c0.2,0,0.6,0.1,0.8,0.2c0.4,0.2,0.7,0.7,0.9,1.5c0.2,0.7,0.3,1.6,0.3,2.9c0,0.8-0.1,1.8-0.2,2.9s-0.1,2-0.1,2.9
		c0,4.3,0.7,6.7,1.8,7.7c0.3,0.3,0.8,0.5,1.3,0.5c1.2,0,2.8-0.8,4.5-2.1c4.6-3.4,10.2-9.9,15.1-15.7c0.2-0.2,0.5-0.3,0.7-0.3
		c0.2,0,0.4,0.1,0.5,0.2c0.2,0.2,0.2,0.4,0.2,0.7c0,0.2-0.1,0.4-0.2,0.6c-5,5.8-10.7,12.5-15.5,16v0.1l-1.8,1.2
		c-1.6,1-2.9,1.5-4.2,1.5c-2.7,0-4.4-2.6-4.4-9.3c0-1.2,0.1-2.3,0.2-3.6c0.1-1.3,0.1-2.4,0.1-3.2c0-1.8-0.2-2.5-0.5-2.5l-0.5,0.1
		c-0.9,0.8-2.1,2.5-2.8,3.5c-2.1,3-3.9,6.7-5.5,9.7l-2.9,5.2c-0.4,0.6-0.7,0.9-1,1.1c-0.2,0.2-0.6,0.3-0.7,0.3
		C198.8,79.1,198.6,78.6,198.6,77.7L198.6,77.7z"/>
	<path class="st0" d="M244.7,70.4c0-2.9,0.2-5.7,0.7-8.8c-4.1,5.5-7.1,8.9-8.9,10.3c-0.8,0.8-1.8,1.2-2.8,1.2s-1.5-0.9-1.5-2.5
		c0-2.6,1.1-5.8,3.4-9.8c2.6-4.2,5.2-6.3,7.9-6.3c1.4,0,2.4,0.4,3,1.2c2.2-10.2,5.2-20.2,8.9-30.1c4.3-11.3,8.1-16.9,11.6-16.9
		c1.9,0,2.9,1.6,2.9,4.8c0,2.8-0.9,6.4-2.6,10.8c-2.2,5.3-4.9,10.8-8.2,16.5c-4.3,7.2-7.8,12.8-10.6,16.7c-1.1,5.3-1.7,9.7-1.7,13
		c0,3.6,0.8,5.4,2.3,5.4c0.7,0,1.5-0.2,2.5-0.8c3.5-2.1,8.9-7.8,15.9-17.1c0.1-0.2,0.3-0.3,0.6-0.3c0.5,0,0.8,0.2,0.9,0.7
		c0,0.2-0.1,0.5-0.2,0.7c-4.2,5.6-7.7,9.8-10.6,12.7c0,0.1,0,0.1-0.1,0.1c-3.9,3.9-7.1,5.9-9.3,5.9C246,78,244.7,75.5,244.7,70.4
		L244.7,70.4z M246.1,57.6c-0.5,0-0.8-0.1-1.1-0.3c-0.3-0.2-0.7-0.2-1.1-0.2c-1.1,0-2.2,0.7-3.4,2c-1.6,1.8-3,3.8-4.2,6.2
		c-1.1,2.4-1.7,4.1-1.7,5.2v0.3c0.1,0.1,0.1,0.1,0.2,0.1C236.2,70.8,239.9,66.4,246.1,57.6z M265.8,23.6c1.6-4.2,2.5-7.5,2.5-10.1
		c0-1.1-0.2-2.1-0.5-2.5c-0.1,0-0.2,0-0.2-0.1s-0.2-0.1-0.3-0.1c-1.5,0-3.5,2.5-5.8,7.5c-2.4,4.8-4.3,9.4-5.7,13.9
		c-2.4,7-4.4,13.9-6.1,20.6C256.8,42,262.2,32.3,265.8,23.6L265.8,23.6z"/>
	<path class="st0" d="M289,74.6l-0.1-1.5c0-1.8,0.3-4.3,1.1-7.8c-1.4,2.2-2.6,4-3.7,5.3l-0.2,0.2c-1.4,1.6-2.5,2.6-3.4,3.2
		c-0.6,0.3-1.1,0.5-1.6,0.5c-0.7,0-1.3-0.5-1.8-1.2c-0.4-0.8-0.7-2.1-0.7-3.5v-0.7c0.2-4.1,2-9.9,4.2-12.1c0.3-0.3,0.8-0.7,1.3-0.8
		c0.3,0,0.7,0,1.1,0.2l0.2,0.1l0.1,0.2c0.1,0,0.1,0.1,0.1,0.1c0.1,0.2,0.2,0.3,0.2,0.6s-0.2,0.6-0.3,0.7c-2,1.6-3.9,6.9-4.1,10.6
		v0.8c0,0.7,0.1,1.3,0.2,1.8c0.1,0.3,0.2,0.5,0.5,0.5h0.1c0.6,0,1.6-0.7,3-2.3v-0.1c1.7-2.1,3.8-5.3,6.4-10.1v-0.1
		c0.2-0.3,0.6-0.7,0.8-0.8c0.2-0.1,0.4-0.1,0.7-0.1c0.3,0.2,0.6,0.3,0.7,0.7l0.1,0.2c0,0.2,0,0.6-0.1,1c-1.4,5.7-2.3,10.2-2.3,12.9
		v0.3c0.1,1,0.3,1.6,0.9,1.6c0.4,0,1.1-0.2,1.7-0.9c3.6-3.2,8.6-10.4,11.8-15.7c0.2-0.2,0.4-0.4,0.7-0.4l0.4,0.2
		c0.2,0.2,0.4,0.5,0.4,0.8l-0.2,0.5c-3.3,5.3-8.4,12.7-12.1,16c-1.3,1.2-2.5,2-3.6,2C290.1,77.3,289.2,76.5,289,74.6L289,74.6z"/>
	<path class="st0" d="M299.6,87c-1.1,0-2.2-0.6-2.6-1.8c-0.2-0.5-0.2-1.1-0.2-1.7c0-1.4,0.4-3.2,1.5-5.4h0.1l0.2-0.3
		c1.6-3.4,4.4-6.6,7.5-9.7l-0.3-2c-0.3-1.9-0.7-3.6-0.7-5.1v-0.4c0-3.2,1-4.2,1.8-4.2c0.7,0,1.4,0.7,1.4,1.3c0,0.2-0.1,0.5-0.3,0.7
		c-0.4,0.4-0.6,1.1-0.6,1.9v0.5c0,1.3,0.2,3,0.6,4.8l0.2,0.7c3.8-3.4,6.3-5.3,9.8-8l0.4-0.2c0.3,0,0.6,0.2,0.7,0.4
		c0.1,0.2,0.2,0.3,0.2,0.6s-0.2,0.6-0.3,0.7l-1.2,0.9c-2.8,2.2-6.1,4.8-9.2,7.7c0.1,1.1,0.2,2.1,0.2,3.2c0,6.2-2,10.6-4.4,13.1
		c-1.3,1.4-2.8,2.2-4,2.4L299.6,87L299.6,87z M302.8,83.2c1.8-2.1,3.4-5.9,3.4-11.3v-1.5c-2.7,2.6-4.9,5.5-6.2,8.2
		c-0.2,0.2-0.2,0.2-0.2,0.4c-0.8,2-1.2,3.4-1.2,4.3l0.2,1c0.2,0.5,0.5,0.7,1,0.7h0.3C300.8,84.9,301.8,84.2,302.8,83.2L302.8,83.2z"
		/>
	<path class="st0" d="M326.6,89c-0.9-0.2-1.3-0.8-1.3-1.3l0.1-0.4c0.1-0.5,0.5-0.9,0.9-1.1c0.2-0.2,0.4-0.2,0.7-0.2s0.5,0,0.7,0.2
		c0.3,0.2,0.6,0.5,0.6,1c0,0.2-0.1,0.5-0.2,0.8c-0.1,0.1-0.2,0.2-0.2,0.2v0.1c-0.1,0.4-0.4,0.7-0.8,0.7L326.6,89L326.6,89z
		 M327.4,80C327.4,79.9,327.4,79.9,327.4,80l-0.2-0.1v-0.1l-0.2-0.1c0-0.1-0.1-0.1-0.1-0.1v-0.1H327l-0.1-0.6l7.8-72.7
		c0-0.4,0.2-0.9,0.3-1.2c0.1-0.2,0.2-0.3,0.4-0.4c0-0.1,0-0.1,0.1-0.1c0.2-0.1,0.3-0.2,0.5-0.2c0.2,0,0.5,0.1,0.7,0.4
		c0.1,0.2,0.2,0.4,0.2,0.7V6l-8.3,73.4l-0.2,0.3l-0.1,0.1c0,0,0,0.1-0.1,0.1l-0.2,0.1c-0.1,0.1-0.2,0.1-0.3,0.1L327.4,80L327.4,80z"
		/>
</g>
</svg>
