<?xml version="1.0" encoding="utf-8"?>
<!-- Generator: Adobe Illustrator 27.8.1, SVG Export Plug-In . SVG Version: 6.00 Build 0)  -->
<svg version="1.1" id="Layer_2_00000160153835686343500300000011298769790976127906_"
	 xmlns="http://www.w3.org/2000/svg" xmlns:xlink="http://www.w3.org/1999/xlink" x="0px" y="0px" viewBox="0 0 191.6 126.5"
	 style="enable-background:new 0 0 191.6 126.5;" xml:space="preserve">
<style type="text/css">
	.st0{fill:#4D4D4F;}
</style>
<g id="Layer_1-2">
	<g>
		<path class="st0" d="M3.5,84.3v-0.9l0.2-1.6c0.2-1.2,0.7-2.6,1.4-4.2c2.4-5,7.4-11.5,15.9-17.1c0.6-2.2,0.9-4.2,0.9-5.7v-0.6
			c0-1.5-0.2-2.6-0.7-3.4c-0.3-0.6-0.8-1-1.4-1h-0.3c-0.3,0-0.7,0.1-1.1,0.3c-0.7,0.4-1.3,0.8-2,1.6l-0.1,0.1c-2.7,2.5-6,7.4-9.4,15
			c-0.1,0.2-0.3,0.5-0.6,0.5H6.1c-0.5,0-0.8-0.4-0.8-0.9C6.8,33.7,12.7,15.7,18,8.3c2.2-3,4.3-4.4,6-4.4c0.4,0,0.8,0.1,1.2,0.2
			c0.8,0.2,1.5,1.2,1.5,1.2c1,1.2,1.6,3.4,1.6,6.4v0.6c-0.3,8.4-5.5,23-19.9,40c-0.2,2.8-0.5,5.7-0.7,8.8c2.1-3.9,4.5-8,7.6-11
			c0.7-0.7,1.4-1.3,2.1-1.7l0.6-0.3c0.8-0.4,1.6-0.6,2.3-0.6c0.8,0,1.6,0.2,2.1,0.7c1.1,0.9,1.7,2.5,1.9,4.8v1.1
			c0,1.3-0.1,2.9-0.5,4.5c4-2.4,8.7-4.5,14.1-6.3l0.3-0.1c0.3,0,0.7,0.2,0.7,0.7l0.1,0.2c0,0.4-0.2,0.7-0.7,0.8
			c-5.9,2-11,4.4-15.2,7c-1.4,4.8-4,10.8-8.3,17.5c-3.4,5.2-6.2,7.6-8,8.2c-0.4,0.1-0.7,0.2-1.1,0.2C4.5,86.9,3.7,85.9,3.5,84.3
			L3.5,84.3z M7,84.2c1.4-0.7,3.4-2.6,5.9-6.4c3.5-5.5,5.9-10.5,7.3-14.7C13,68.3,8.7,73.9,6.6,78.4c-0.7,1.4-1.1,2.7-1.2,3.7
			l-0.1,1c0,0.4,0.1,0.7,0.2,1c0.2,0.2,0.2,0.3,0.5,0.3h0.2L7,84.2L7,84.2z M26.5,12.3v-1c0-2.2-0.4-3.8-1.1-4.8l-0.6-0.3l-0.4-0.1
			c-0.9,0-2,0.7-3.2,1.9c-1.6,1.7-3.4,4.5-5.1,8.5c-3,7-5.9,17.6-7.5,32.7C21.6,33.4,26.2,20,26.5,12.3L26.5,12.3z"/>
		<path class="st0" d="M33.5,69.3c-0.8-0.7-1.2-2-1.3-3.4v-0.7c0-3.4,1.6-7.8,3.8-10.8c2.5-3.4,4.3-4.7,5.6-4.8h0.3
			c1.3,0,2,1,2.2,2.5v0.8c-0.2,1-0.6,2.2-1.3,3.2c-1,1.3-2.5,2.3-4.6,2.3c-0.5,0-1,0-1.6-0.2c-1.1,2.4-2,4.9-2,7v0.7
			c0,0.7,0.1,1.2,0.2,1.6c0.2,0.4,0.6,0.7,1.1,0.7H36c1.1,0,2.7-0.7,4.8-2.2l0.2-0.2c3-2.4,7-6.5,12.4-13c0.2-0.2,0.4-0.3,0.7-0.3
			c0.2,0,0.3,0,0.5,0.2c0.2,0.2,0.2,0.5,0.2,0.7s-0.1,0.4-0.2,0.6c-5.3,6.6-9.5,10.9-12.7,13.4l-0.6,0.4c-1.7,1.3-3.2,2-4.3,2.3
			c-0.5,0.2-1,0.2-1.4,0.2C34.8,70.2,34.1,69.9,33.5,69.3L33.5,69.3z M41.4,54.8c0.6-0.7,0.8-1.5,0.9-2.2v-0.2
			c0-0.3-0.1-0.5-0.3-0.5l-0.4,0.1c-0.7,0.3-1.8,1.3-3.3,3.4l-0.8,1.2l0.7,0.1C39.7,56.5,40.7,55.7,41.4,54.8z"/>
		<path class="st0" d="M55.1,75.4c-1.6-0.2-2.5-2.9-2.5-9.4c0-3.5,0.2-8.2,0.9-14.3l0.1-0.3c0.2-0.7,0.5-1.2,0.7-1.4
			c0.2-0.2,0.3-0.2,0.5-0.3h0.3c0.2,0,0.5,0.1,0.7,0.2c0.2,0.2,0.3,0.7,0.3,1.2v0.2C55.4,58.3,55,63.4,55,67c0,2,0.1,3.5,0.3,4.6
			c0.2,1,0.4,1.3,0.8,1.3c0.6,0,1.5-1.2,2.1-2.3c3.3-5.4,5.7-10.4,8.5-16.2c0.5-1.2,1.1-2.3,1.3-3c0.7-1.3,1.2-1.7,2-1.7
			c0.3,0,0.7,0.1,1.2,0.3c0.4,0.3,0.9,0.7,1.3,1.1c1.2,1,2.7,2.3,5.1,2.3c1.2,0,2.5-0.3,4-1.2l0.3-0.1c0.3,0,0.7,0.2,0.8,0.5
			l0.1,0.4c0,0.3-0.2,0.7-0.5,0.9c-1.9,1-3.4,1.4-4.8,1.4c-2.8,0-4.6-1.6-6-2.8c-0.5-0.4-0.8-0.7-1.2-0.7s-0.6,0.2-0.9,0.7
			c-0.7,1.2-0.9,1.8-1.2,2.6c-2.4,4.8-4.7,9.7-7.3,14.3c-1.1,1.9-3.3,5.9-5.6,5.9L55.1,75.4L55.1,75.4z"/>
		<path class="st0" d="M77.3,69.3c-0.8-0.7-1.2-2-1.3-3.4v-0.7c0-3.4,1.6-7.8,3.8-10.8c2.5-3.4,4.3-4.7,5.6-4.8h0.3
			c1.3,0,2.1,1,2.2,2.5v0.8c-0.2,1-0.6,2.2-1.3,3.2c-1,1.3-2.5,2.3-4.6,2.3c-0.5,0-1,0-1.6-0.2c-1.2,2.4-2,4.9-2.1,7v0.7
			c0,0.7,0.1,1.2,0.2,1.6c0.2,0.4,0.6,0.7,1.1,0.7h0.2c1.1,0,2.7-0.7,4.8-2.2l0.2-0.2c3-2.4,7.1-6.5,12.4-13
			c0.2-0.2,0.4-0.3,0.7-0.3c0.2,0,0.3,0,0.5,0.2c0.2,0.2,0.2,0.5,0.2,0.7s-0.1,0.4-0.2,0.6c-5.3,6.6-9.5,10.9-12.7,13.4l-0.6,0.4
			c-1.7,1.3-3.2,2-4.3,2.3c-0.5,0.2-1,0.2-1.4,0.2C78.7,70.2,77.9,69.9,77.3,69.3L77.3,69.3z M85.3,54.8c0.6-0.7,0.8-1.5,0.9-2.2
			v-0.2c0-0.3-0.1-0.5-0.3-0.5l-0.4,0.1c-0.7,0.3-1.8,1.3-3.3,3.4l-0.8,1.2l0.7,0.1C83.6,56.5,84.6,55.7,85.3,54.8z"/>
		<path class="st0" d="M94.8,76.3c-0.5-0.2-0.7-0.7-0.7-1.6v-0.3c0.1-0.7,0.2-1.6,0.6-2.5c1-3.4,3-8.3,4.2-10.9
			c0.7-1.7,1.1-2.9,1.1-3.8c0-1.6-0.9-2.2-1.7-2.9c-0.9-0.7-1.8-1.4-1.8-2.6c0-0.7,0.3-1.6,1-2.7l0.1-0.2l0.5-0.7
			c0.2-0.2,0.6-0.3,0.9-0.3c0.2,0,0.5,0.2,0.5,0.2c0.2,0.1,0.3,0.2,0.4,0.4l0.1,0.5c0,0.3-0.1,0.6-0.2,0.9c-0.5,0.7-0.7,1.3-0.7,1.8
			c0,0.7,0.6,1.2,1.1,1.6c1.1,0.8,2.2,1.8,2.2,3.9c0,1.2-0.4,2.7-1.3,4.8c-0.9,2.1-2.5,5.7-3.6,8.5c-0.7,2.1-1.2,3.3-1.2,3.7
			c1.6-1.4,4.7-6,8.2-11.3c2.3-3.7,4.8-7.5,6.9-10.2c0.2-0.2,0.3-0.3,0.6-0.3l0.4,0.2c0.2,0.2,0.2,0.3,0.2,0.6s-0.1,0.4-0.2,0.6
			c-2.1,2.8-4.5,6.5-6.9,10.2c-1.4,2.2-7.6,12.4-10,12.7C95.1,76.4,94.9,76.4,94.8,76.3L94.8,76.3z"/>
		<path class="st0" d="M113.8,69.8l-0.1-1.2c0-2.4,0.6-5.8,1.9-10.7c-2.9,4.8-7.3,7.8-7.3,7.8c-0.7,0.4-1.2,0.6-1.7,0.6
			c-0.9,0-1.3-0.8-1.4-2.1l0.2-1.3c0.3-2,1.4-4.7,2.9-7c1.8-3,4.3-5.4,6.8-5.4c0.6,0,1.1,0.1,1.6,0.3c0.4,0.2,0.7,0.7,0.7,1.2
			l-0.2,0.7c-0.1,0.2-0.4,0.4-0.7,0.4c-0.2,0-0.2,0-0.4-0.1c-0.2-0.2-0.5-0.2-0.8-0.2c-2,0-4.7,3.7-6.2,7c-0.6,1.2-0.9,2.2-1.2,3
			c-0.2,0.5-0.2,0.8-0.2,1.1c0,0.2,0,0.2,0.1,0.3h0.2l0.4-0.3c1.7-1.3,4.6-4.5,8.9-10.8c0.2-0.4,0.7-0.7,1-0.8l0.3-0.1l0.3,0.1
			c0.2,0.1,0.5,0.3,0.6,0.7l0.1,0.6l-0.1,0.6c-1.6,5.6-2.9,11.1-2.9,14.4v0.3c0,1.3,0.3,2.1,1.1,2.1c0.4,0,1.1-0.2,1.9-1
			c0.6-0.5,1.1-0.9,1.6-1.5c3.4-3.3,7.5-8.9,11.8-15.3c0.2-0.2,0.4-0.4,0.7-0.4l0.5,0.2c0.2,0.2,0.3,0.5,0.3,0.7s-0.1,0.4-0.2,0.6
			c-5.3,8.1-10.6,14.9-14.3,17.6l-1.3,0.9l-0.2,0.1c-0.7,0.4-1.5,0.5-2,0.5H116C114.8,72.7,114,71.7,113.8,69.8L113.8,69.8z"/>
		<path class="st0" d="M138.2,57.5c-0.1,0.1-0.2,0.2-0.2,0.3c-0.2,0.3-0.5,0.7-0.7,1c-0.4,0.5-0.7,0.9-1.1,1.3
			c-3.2,4.2-5.5,6.4-6.9,6.6c-0.4,0.1-0.7,0.2-1,0.2c-1,0-1.5-0.7-1.5-2v-0.2c0-0.5,0.1-1.1,0.2-1.7c0.4-2.2,1.4-4.6,2.9-7.2
			c1.1-1.6,2.2-3,3.4-4.2s2.5-1.7,3.9-1.7c0.6,0,1.1,0.2,1.7,0.4c0.7,0.3,1.1,0.8,1.1,1.5c0,0.2-0.1,0.4-0.2,0.7l1.2-1.5h0.1v-0.1
			h0.1c0.1-0.2,0.2-0.2,0.2-0.3c1.5-1.6,2.7-2.4,3.8-2.4h0.2c0.7,0.1,1.2,0.5,1.6,1.3s0.6,2.1,0.6,3.9c0,1.1-0.1,2.2-0.2,3.6
			l-0.3,2.5l-0.3,2.6c3-3.2,6.3-6.4,9.9-9.6c0.2-0.2,0.3-0.2,0.5-0.2c0.2,0,0.4,0.1,0.7,0.3c0.1,0.2,0.2,0.3,0.2,0.6
			s-0.1,0.5-0.3,0.7c-4.1,3.8-7.9,7.5-11.2,11.2c-2.1,14.8-4.7,26.7-7.7,35.3c-3,8.7-6,14.8-9,18.1c-2.4,2.9-4.6,4.3-6.5,4.3
			c-0.9,0-1.6-0.2-2.4-0.8c-1.6-1.3-2.5-3.8-2.5-7.5c0-1.2,0.1-2.7,0.3-4.3c0.7-5.3,2.9-11.8,7-19.6c4-7.8,10.2-16.3,18.4-25.6
			c0.4-2.6,0.7-5.3,1.1-8.2c0.2-1.6,0.2-2.9,0.2-3.8c0-1.6-0.2-2.4-0.6-2.5c-0.1-0.1-0.1-0.1-0.2-0.1c-0.5,0-1.3,0.6-2.5,1.8v0.1
			h-0.1C140.9,53.8,139.6,55.6,138.2,57.5L138.2,57.5z M132.3,110.3c4.2-7.8,7.8-20.6,10.8-38.4c0.2-1.2,0.5-2.5,0.7-3.8
			c-7.6,8.8-13.2,16.8-16.9,24.1c-3.7,7.3-5.9,13.4-6.5,18.3c-0.2,1.6-0.3,2.9-0.3,4.2c0,2.9,0.6,4.9,1.8,5.9c0.3,0.2,0.7,0.4,1,0.4
			c0.1,0,0.2,0,0.4-0.1C125.8,120.6,128.8,117.1,132.3,110.3L132.3,110.3z M137.5,52.3c-1.1,0-2.3,0.8-3.5,2.4
			c-1.3,1.6-2.5,3.3-3.4,5.2c-0.6,1.2-1.1,2.2-1.3,3.3c-0.1,0.6-0.2,1.1-0.2,1.3v0.2c0,0.1,0,0.1,0.1,0.1c0.2,0,0.7-0.3,1.3-1
			c0.6-0.6,1.2-1.3,2-2c0.7-0.7,1.2-1.4,1.7-2c0.3-0.4,0.6-0.7,0.7-0.7c0.6-0.7,1.1-1.6,1.7-2.4c0.4-0.4,0.7-0.9,1.1-1.4
			c0.3-0.5,0.7-1,1.1-1.4c-0.1,0-0.2,0-0.2-0.1c-0.2,0-0.3,0-0.4-0.1c-0.2-0.2-0.3-0.5-0.3-0.7s0.1-0.4,0.2-0.6
			C137.8,52.3,137.7,52.3,137.5,52.3L137.5,52.3z"/>
		<path class="st0" d="M152.8,69.3c-0.8-0.7-1.2-2-1.3-3.4v-0.7c0-3.4,1.6-7.8,3.8-10.8c2.5-3.4,4.4-4.7,5.6-4.8h0.3
			c1.3,0,2.1,1,2.2,2.5v0.8c-0.2,1-0.6,2.2-1.3,3.2c-1,1.3-2.5,2.3-4.6,2.3c-0.5,0-1,0-1.6-0.2c-1.1,2.4-2,4.9-2.1,7v0.7
			c0,0.7,0.1,1.2,0.2,1.6c0.2,0.4,0.6,0.7,1.1,0.7h0.2c1.1,0,2.7-0.7,4.8-2.2l0.2-0.2c3-2.4,7.1-6.5,12.4-13
			c0.2-0.2,0.4-0.3,0.7-0.3c0.2,0,0.3,0,0.5,0.2c0.2,0.2,0.2,0.5,0.2,0.7s-0.1,0.4-0.2,0.6c-5.3,6.6-9.5,10.9-12.7,13.4l-0.6,0.4
			c-1.7,1.3-3.2,2-4.4,2.3c-0.5,0.2-1,0.2-1.4,0.2C154.1,70.2,153.4,69.9,152.8,69.3L152.8,69.3z M160.7,54.8
			c0.6-0.7,0.8-1.5,0.9-2.2v-0.2c0-0.3-0.1-0.5-0.3-0.5l-0.4,0.1c-0.7,0.3-1.8,1.3-3.3,3.4l-0.8,1.2l0.7,0.1
			C159,56.5,160.1,55.7,160.7,54.8L160.7,54.8z"/>
		<path class="st0" d="M166.9,81.3c-1.1,0-2.2-0.6-2.6-1.8c-0.2-0.5-0.2-1.1-0.2-1.7c0-1.4,0.4-3.2,1.5-5.4h0.1l0.2-0.3
			c1.6-3.4,4.4-6.6,7.5-9.7l-0.3-2c-0.3-1.9-0.7-3.6-0.7-5.1v-0.4c0-3.2,1-4.2,1.8-4.2c0.7,0,1.4,0.7,1.4,1.3c0,0.2-0.1,0.5-0.3,0.7
			c-0.4,0.4-0.6,1.1-0.6,1.9v0.5c0,1.3,0.2,3,0.6,4.8l0.2,0.7c3.8-3.4,6.3-5.3,9.8-8l0.4-0.2c0.3,0,0.6,0.2,0.7,0.4
			c0.1,0.2,0.2,0.3,0.2,0.6s-0.2,0.6-0.3,0.7l-1.2,0.9c-2.8,2.2-6.1,4.8-9.2,7.7c0.1,1.1,0.2,2.1,0.2,3.2c0,6.1-2.1,10.6-4.4,13.1
			c-1.3,1.4-2.8,2.2-4,2.4L166.9,81.3L166.9,81.3z M170,77.5c1.8-2.1,3.4-5.9,3.4-11.3v-1.5c-2.7,2.6-4.9,5.5-6.2,8.2
			c-0.2,0.2-0.2,0.2-0.2,0.4c-0.8,2-1.2,3.4-1.2,4.3l0.2,1c0.2,0.5,0.5,0.7,1,0.7h0.3C168,79.2,169,78.5,170,77.5z"/>
	</g>
</g>
</svg>
