<?xml version="1.0" encoding="utf-8"?>
<!-- Generator: Adobe Illustrator 27.8.1, SVG Export Plug-In . SVG Version: 6.00 Build 0)  -->
<svg version="1.1" id="Layer_2_00000140710019990033354800000015267233133680595340_"
	 xmlns="http://www.w3.org/2000/svg" xmlns:xlink="http://www.w3.org/1999/xlink" x="0px" y="0px" viewBox="0 0 190.8 108"
	 style="enable-background:new 0 0 190.8 108;" xml:space="preserve">
<style type="text/css">
	.st0{fill:#4D4D4F;}
</style>
<g id="Layer_1-2">
	<g>
		<path class="st0" d="M18.3,104.1v-1.2c0-6.1,2.1-27.9,5.4-47.7c0.9-5.7,2-11.1,3.1-16.1L6.3,39c-0.1,0.2-0.2,0.2-0.3,0.2
			c-0.6,0.2-1.2,0.3-1.6,0.3c-0.3,0-0.7-0.1-0.8-0.2c-0.3-0.2-0.6-0.5-0.7-0.8c0-0.3,0-0.7,0.2-1v-0.1c0.2-0.2,0.6-0.5,1-0.5h0.2
			c0.6-0.1,1.6-0.1,3-0.1l9.1,0.2l11,0.2c1.4-6.1,3-11.2,4.7-14.6c0.2-0.7,1-1.5,1.7-1.6c0.3,0,0.6,0,0.9,0.2
			c0.2,0.2,0.4,0.5,0.5,0.8l0.1,0.4c0,0.4-0.2,0.9-0.4,1.5c-0.1,0.2-0.2,0.2-0.4,0.3c-1.5,3.1-2.9,7.6-4.3,13.1h0.9
			c8.1,0.1,16.6,0.2,23.3,0.2c6,0,10.6-0.1,12.1-0.3h0.2c0.4,0,0.8,0.3,0.9,0.7v0.2c0,0.4-0.3,0.8-0.7,0.9
			c-1.6,0.2-6.2,0.3-12.3,0.3c-7.9,0-15.7-0.2-24.8-0.2c-1.2,5.2-2.4,10.9-3.4,16.9c-3.6,20.2-5.9,42.3-5.9,47.1v0.2l0.1,0.6
			c0,0.7-0.5,1.2-1,1.2S18.5,104.8,18.3,104.1L18.3,104.1z"/>
		<path class="st0" d="M36.3,58.4c0.6-3.7,1.3-7.4,2-11.2c2.2-11.4,4.9-21,8-28.7c3.8-8.6,7-13.5,9.9-14.9h0.1C57,3.1,57.7,3,58.2,3
			s1.2,0.2,1.6,0.5c0.7,0.5,1.3,1.4,1.7,2.7v0.2c0.1,0.2,0.1,0.3,0.2,0.6C61.9,7.6,62,8.5,62,9.4c0,4.2-1.6,10-5,17.4
			c-2.3,4.7-4.9,9.3-7.8,14.2c-3,4.8-5.6,8.9-7.9,12.5c-0.9,1.4-1.7,2.6-2.3,3.7c-1,5.8-1.6,11-2,15.7c0.5-0.7,1.3-1.9,2.5-3.4
			s2.4-3.1,3.6-4.7c1.2-1.5,2.1-2.5,2.8-2.9c0.5-0.2,0.9-0.3,1.2-0.3c0.6,0,1.1,0.3,1.3,1c0.2,0.7,0.3,1.5,0.3,2.4
			c0,1-0.2,2-0.3,3.3v0.2c-0.2,1.4-0.2,2.6-0.3,3.8v0.6c0,0.8,0.1,1.4,0.3,1.7c0.1,0.1,0.2,0.2,0.3,0.2c0.3,0,0.9-0.3,1.7-0.9
			s2.2-2,4.2-4.2c3.2-3.7,6.3-7.5,9.2-11.5c0.2-0.2,0.3-0.3,0.6-0.4c0.2,0,0.4,0.1,0.7,0.2c0.2,0.2,0.2,0.3,0.3,0.6
			c0,0.2-0.1,0.5-0.2,0.7c-3,4-6.1,7.9-9.3,11.6c-1.8,2-3.3,3.4-4.5,4.3c-1.5,1.1-2.6,1.6-3.4,1.6c-0.4,0-0.7-0.2-1-0.4
			c-0.6-0.6-0.9-1.6-0.9-2.9v-1.3c0-0.8,0.1-2.1,0.3-3.7V68c0.2-1.1,0.3-2,0.4-2.9c0-0.4,0.1-0.8,0.1-1.1c0-0.3-0.1-0.5-0.1-0.7
			l-0.1,0.1c-0.8,0.5-1.9,1.6-3.2,3.3s-2.6,3.4-3.8,5.3c-1.3,1.9-2.4,3.4-3.1,4.7c-0.2,0.2-0.4,0.5-0.5,0.7
			c-0.2,0.2-0.4,0.4-0.7,0.4c-0.2,0-0.4-0.1-0.6-0.2c-0.2-0.2-0.2-0.4-0.2-0.7C34.5,72.1,35.1,65.9,36.3,58.4L36.3,58.4L36.3,58.4z
			 M40,52.3c0.1-0.1,0.1-0.2,0.2-0.2c2.3-3.5,4.9-7.6,7.8-12.4c2.9-4.7,5.4-9.4,7.6-13.9c3.2-7.1,4.8-12.6,4.8-16.3
			c0-0.8-0.1-1.6-0.2-2.2C60,7.2,60,7.1,60,7.1V6.7c-0.2-0.4-0.3-0.7-0.6-1c-0.2-0.2-0.4-0.2-0.7-0.2c-0.2,0-0.3,0.1-0.5,0.1
			c-0.6,0.2-1.3,0.7-2.2,1.5c-2.2,2.1-4.8,6.4-7.5,12.8c-2.9,7.1-5.3,15.9-7.5,26.6c-0.4,2-0.8,4.1-1.2,6.2L40,52.3L40,52.3z"/>
		<path class="st0" d="M59.9,74.7c-0.8-0.7-1.2-2-1.3-3.4v-0.7c0-3.4,1.6-7.8,3.8-10.8c2.5-3.4,4.4-4.7,5.6-4.8h0.3
			c1.3,0,2.1,1,2.2,2.5v0.8c-0.2,1-0.6,2.2-1.3,3.2c-1,1.3-2.5,2.3-4.6,2.3c-0.5,0-1,0-1.6-0.2c-1.2,2.4-2,4.9-2,7v0.7
			c0,0.7,0.1,1.2,0.2,1.6c0.2,0.4,0.6,0.7,1.1,0.7h0.2c1.1,0,2.7-0.7,4.8-2.2l0.2-0.2c3-2.4,7.1-6.5,12.4-13
			c0.2-0.2,0.4-0.3,0.7-0.3c0.2,0,0.3,0,0.5,0.2c0.2,0.2,0.2,0.5,0.2,0.7s-0.1,0.4-0.2,0.6c-5.3,6.6-9.5,10.9-12.7,13.4l-0.6,0.4
			c-1.7,1.3-3.2,2-4.3,2.3c-0.5,0.2-1,0.2-1.4,0.2C61.2,75.6,60.5,75.3,59.9,74.7L59.9,74.7z M67.8,60.2c0.6-0.7,0.8-1.5,0.9-2.2
			v-0.2c0-0.3-0.1-0.5-0.3-0.5L68,57.3c-0.7,0.3-1.8,1.3-3.3,3.4l-0.8,1.2l0.7,0.1C66.1,61.9,67.2,61.1,67.8,60.2z"/>
		<path class="st0" d="M91.1,104.2c-0.2-0.6-0.5-1.6-0.5-3.3v-0.8c0-2.4,0.2-5.3,0.2-8.2c0.2-5.6,0.6-10.7,0.6-11l0.5-5.7
			c-0.2-0.2-0.3-0.4-0.6-0.6c-0.2-0.2-0.5-0.5-0.6-0.7c-0.2-0.4-0.4-0.9-0.4-1.3c0-0.8,0.4-1.6,1.1-2.5c0.3-0.5,0.8-1,1.3-1.5
			c2.4-15.8,6.8-26.7,10.2-32c1.2-1.9,2.2-3.1,3.1-3.7c0.6-0.3,1-0.5,1.4-0.5c0.7,0,1.2,0.4,1.3,1.4c0.1,0.2,0.1,0.6,0.1,1
			c0,1.1-0.2,2.5-0.9,4.4c-0.2,0.6-0.7,0.8-1.1,0.8c-0.6,0-1.2-0.4-1.2-1.2l0.1-0.5c0.3-0.8,0.6-1.6,0.7-2.1c-0.7,0.7-1.5,2-2.5,3.8
			l-0.2,0.5c-2.3,3.8-4.9,10-7.1,18.5c-0.6,2.4-1.1,4.8-1.6,7.5h0.1c4.3-3.2,10.7-6.6,15-8.6l0.3-0.1c0.3,0,0.7,0.2,0.7,0.6l0.1,0.4
			c0,0.3-0.2,0.7-0.5,0.8c-4.3,2-10.5,5.2-14.8,8.4c-0.5,0.4-1,0.8-1.5,1.2c-0.2,1.9-0.6,3.8-0.7,5.8c2.2,3.1,2.9,7.7,2.9,12.3
			c0,3.7-0.5,7.5-1.2,10.5c-0.6,2.4-1.2,4.3-1.8,5.5c-0.7,1.2-1.2,2-1.8,2C91.8,105.1,91.5,104.8,91.1,104.2L91.1,104.2z M92.3,71.8
			c-0.1,0.2-0.2,0.5-0.2,0.7l0.1,0.3L92.3,71.8z M92.5,102.3c0.6-1,1.2-2.9,1.6-5c0.7-2.9,1.2-6.6,1.2-10.2c0-3.4-0.4-6.7-1.6-9.3
			c-0.2,1.7-0.3,3.4-0.4,5.2c-0.1,0.3-0.3,5.5-0.7,11l-0.2,8.1c0,0.4,0,0.6,0.1,0.6L92.5,102.3L92.5,102.3z"/>
		<path class="st0" d="M107.9,73.7c0-2.7,0.2-6.2,0.9-10.4c0.2-1.6,0.9-5.2,0.9-5.2c1.2-7,3.1-15,5.4-22.5
			c2.5-8.1,5.4-15.7,8.4-21.1c2.4-4.2,4.9-6.6,6.7-7.4c0.5-0.2,0.9-0.2,1.3-0.2s0.8,0.1,1.1,0.3c0.4,0.2,0.7,0.6,1,1.1h0.1
			c0.1,0.3,0.2,0.7,0.3,1.1l0.2,1.3c0,2-0.7,5.1-2.4,8.9c-2.3,5.6-6.3,13.5-10.2,20.8c-3.8,7.1-7.5,13.6-9.4,16.8
			c-0.5,2.2-0.8,4.4-1.2,6.5c-0.6,3.9-0.8,7-0.8,9.3c0,3.6,0.6,5.6,1.6,6.2c0.3,0.2,0.7,0.2,1,0.2c1.8,0,4.5-2,7.5-4.8
			c4.4-4.5,9.5-11,13.9-16.6c0.2-0.2,0.4-0.3,0.7-0.3c0.2,0,0.3,0.1,0.5,0.2c0.2,0.2,0.3,0.4,0.3,0.7c0,0.2-0.1,0.4-0.2,0.6
			c-4.4,5.7-14.1,16.9-14.1,16.9c-2,2-3.8,3.6-5.5,4.7c-1.6,1-3,1.6-4.2,1.6C109.3,82.4,107.8,80,107.9,73.7L107.9,73.7z
			 M120.2,39.5c3.8-7.3,7.9-15.2,10.2-20.7c1.6-3.6,2.1-6.3,2.1-8l-0.1-1.1c-0.1-0.4-0.3-0.7-0.6-0.7l-0.6,0.2
			c-0.6,0.2-1.2,0.7-2,1.4c-1.2,1.1-2.4,2.8-3.7,5c-2.9,5.2-5.8,12.6-8.3,20.7c-1.6,5.2-2.9,10.7-4.1,15.9
			C115.2,48.9,117.7,44.4,120.2,39.5L120.2,39.5z"/>
		<path class="st0" d="M130.2,75.9c-0.7-0.8-1.1-2.1-1.1-4.1c0-0.8,0.1-1.7,0.2-2.8c0.1-0.7,0.2-1.2,0.3-1.8c0.6-2.8,1.6-5.7,3-7.6
			c1.2-2,2.9-3.3,4.4-3.3l0.6,0.1c0.1,0,0.2,0,0.2,0.1c0.4,0.1,0.7,0.6,0.7,1h0.3c0.6,0,1.2,0.5,1.5,1.9c0.2,0.8,0.3,1.6,0.3,2.4
			c0.4,0.2,0.8,0.2,1.4,0.2c2,0,5.1-1.1,10-4.1l0.5-0.2c0.2,0,0.6,0.2,0.7,0.5c0.1,0.2,0.1,0.3,0.1,0.5c0,0.3-0.2,0.6-0.4,0.7
			c-5,3.1-8.4,4.3-10.7,4.3c-0.6,0-1.1-0.1-1.5-0.2c-0.3,4.1-2.1,7.9-4.1,10.3l-0.2,0.3c-1.1,1.2-2.1,2.1-3.1,2.5
			c-0.4,0.2-0.8,0.2-1.2,0.2C131.3,76.9,130.6,76.6,130.2,75.9L130.2,75.9z M133.4,74.1c0.5-0.2,1.1-0.7,1.9-1.4
			c2-2.4,3.7-6.1,3.8-9.9c-0.5-0.3-0.8-0.8-1.1-1.2c-0.3-0.7-0.4-1.3-0.4-1.9v-0.5c0-0.3,0.1-0.7,0.2-0.9h-0.4c-0.7,0-1.6,0.7-2.3,2
			c-1.1,1.6-2,3.8-2.5,6.4l-0.3,1.6c-0.1,1.1-0.2,2-0.2,2.8c0,0.9,0.1,1.6,0.2,2.1c0.1,0.5,0.2,0.7,0.4,0.8l0.3,0.2L133.4,74.1
			L133.4,74.1z"/>
		<path class="st0" d="M148,75.9c-0.7-0.8-1.1-2.1-1.1-4.1c0-0.8,0.1-1.7,0.2-2.8c0.1-0.7,0.2-1.2,0.3-1.8c0.6-2.8,1.6-5.7,3-7.6
			c1.2-2,2.9-3.3,4.4-3.3l0.6,0.1c0.1,0,0.2,0,0.2,0.1c0.4,0.1,0.7,0.6,0.7,1h0.3c0.6,0,1.2,0.5,1.5,1.9c0.2,0.8,0.3,1.6,0.3,2.4
			c0.4,0.2,0.8,0.2,1.4,0.2c2,0,5.1-1.1,10-4.1l0.5-0.2c0.2,0,0.6,0.2,0.7,0.5c0.1,0.2,0.1,0.3,0.1,0.5c0,0.3-0.2,0.6-0.4,0.7
			c-5,3.1-8.4,4.3-10.7,4.3c-0.6,0-1.1-0.1-1.5-0.2c-0.3,4.1-2.1,7.9-4.1,10.3l-0.2,0.3c-1.1,1.2-2.1,2.1-3.1,2.5
			c-0.4,0.2-0.8,0.2-1.2,0.2C149.2,76.9,148.5,76.6,148,75.9L148,75.9z M151.3,74.1c0.5-0.2,1.1-0.7,1.9-1.4c2-2.4,3.7-6.1,3.8-9.9
			c-0.5-0.3-0.8-0.8-1.1-1.2c-0.3-0.7-0.4-1.3-0.4-1.9v-0.5c0-0.3,0.1-0.7,0.2-0.9h-0.4c-0.7,0-1.6,0.7-2.3,2
			c-1.1,1.6-2,3.8-2.5,6.4l-0.3,1.6c-0.1,1.1-0.2,2-0.2,2.8c0,0.9,0.1,1.6,0.2,2.1c0.1,0.5,0.2,0.7,0.4,0.8l0.3,0.2L151.3,74.1
			L151.3,74.1z"/>
		<path class="st0" d="M166.6,104.2c-0.2-0.6-0.5-1.6-0.5-3.3v-0.8c0-2.4,0.2-5.3,0.2-8.2c0.2-5.6,0.6-10.7,0.6-11l0.5-5.7
			c-0.2-0.2-0.3-0.4-0.6-0.6c-0.2-0.2-0.5-0.5-0.6-0.7c-0.2-0.4-0.4-0.9-0.4-1.3c0-0.8,0.4-1.6,1.1-2.5c0.3-0.5,0.8-1,1.3-1.5
			c2.4-15.8,6.8-26.7,10.2-32c1.1-1.9,2.2-3.1,3.1-3.7c0.6-0.3,1-0.5,1.4-0.5c0.7,0,1.1,0.4,1.3,1.4c0.1,0.2,0.1,0.6,0.1,1
			c0,1.1-0.2,2.5-0.9,4.4c-0.2,0.6-0.7,0.8-1.1,0.8c-0.6,0-1.1-0.4-1.1-1.2l0.1-0.5c0.3-0.8,0.6-1.6,0.7-2.1c-0.7,0.7-1.5,2-2.5,3.8
			l-0.2,0.5c-2.3,3.8-4.9,10-7.1,18.5c-0.6,2.4-1.1,4.8-1.6,7.5h0.1c4.3-3.2,10.7-6.6,15-8.6l0.3-0.1c0.3,0,0.7,0.2,0.7,0.6l0.1,0.4
			c0,0.3-0.2,0.7-0.5,0.8c-4.3,2-10.5,5.2-14.8,8.4c-0.5,0.4-1,0.8-1.5,1.2c-0.2,1.9-0.6,3.8-0.7,5.8c2.2,3.1,2.9,7.7,2.9,12.3
			c0,3.7-0.5,7.5-1.1,10.5c-0.6,2.4-1.2,4.3-1.8,5.5c-0.7,1.2-1.2,2-1.8,2C167.2,105.1,166.9,104.8,166.6,104.2L166.6,104.2z
			 M167.7,71.8c-0.1,0.2-0.2,0.5-0.2,0.7l0.1,0.3L167.7,71.8z M168,102.3c0.6-1,1.1-2.9,1.6-5c0.7-2.9,1.1-6.6,1.1-10.2
			c0-3.4-0.4-6.7-1.6-9.3c-0.2,1.7-0.3,3.4-0.4,5.2c-0.1,0.3-0.3,5.5-0.7,11l-0.2,8.1c0,0.4,0,0.6,0.1,0.6L168,102.3L168,102.3z"/>
	</g>
</g>
</svg>
