<?xml version="1.0" encoding="utf-8"?>
<!-- Generator: Adobe Illustrator 27.8.1, SVG Export Plug-In . SVG Version: 6.00 Build 0)  -->
<svg version="1.1" id="Layer_2_00000156566539600195919030000007487772546914413957_"
	 xmlns="http://www.w3.org/2000/svg" xmlns:xlink="http://www.w3.org/1999/xlink" x="0px" y="0px" viewBox="0 0 350.4 135.3"
	 style="enable-background:new 0 0 350.4 135.3;" xml:space="preserve">
<style type="text/css">
	.st0{fill:#4D4D4F;stroke:#4D4D4F;stroke-width:0.5;stroke-miterlimit:10;}
	.st1{fill:#4D4D4F;stroke:#4D4D4F;stroke-miterlimit:10;}
</style>
<g id="Layer_1-2">
	<g>
		<path class="st0" d="M331.4,48.6c-0.7-0.5-1-1.3-1.1-2.3v-0.4c0-2.2,1.3-5.2,3.1-7.2c2-2.2,3.5-3.1,4.6-3.2h0.3
			c1.1,0,1.7,0.7,1.8,1.6v0.5c-0.1,0.7-0.5,1.5-1.1,2.1c-0.8,0.9-2.1,1.5-3.8,1.5c-0.4,0-0.8,0-1.3-0.1c-0.9,1.6-1.6,3.3-1.7,4.6
			v0.4c0,0.4,0.1,0.8,0.2,1.1c0.2,0.3,0.5,0.4,0.9,0.5h0.1c0.9,0,2.2-0.4,4-1.5l0.2-0.1c2.5-1.6,5.8-4.3,10.1-8.7
			c0.1-0.2,0.3-0.2,0.5-0.2c0.1,0,0.3,0,0.4,0.1c0.1,0.2,0.2,0.3,0.2,0.5s-0.1,0.3-0.1,0.4c-4.4,4.4-7.8,7.3-10.4,8.9l-0.5,0.3
			c-1.4,0.9-2.6,1.3-3.5,1.5c-0.4,0.1-0.8,0.2-1.1,0.2C332.5,49.2,331.9,49,331.4,48.6L331.4,48.6z M337.9,39c0.5-0.4,0.7-1,0.7-1.5
			v-0.2c0-0.2-0.1-0.3-0.3-0.3l-0.3,0c-0.6,0.2-1.5,0.9-2.7,2.2l-0.7,0.8l0.5,0C336.5,40.1,337.4,39.6,337.9,39L337.9,39z"/>
		<g>
			<path class="st0" d="M11.7,45.6c0-1.9,0.2-3.8,0.6-5.8c-3.3,3.7-5.8,6-7.3,6.9c-0.7,0.5-1.5,0.8-2.3,0.8s-1.2-0.6-1.2-1.7
				c0-1.8,0.9-3.9,2.8-6.5c2.1-2.8,4.3-4.2,6.4-4.2c1.1,0,1.9,0.3,2.5,0.8c1.8-6.8,4.2-13.5,7.3-20C24,8.3,27.1,4.6,29.9,4.6
				c1.5,0,2.3,1.1,2.3,3.2c0,1.9-0.7,4.3-2.1,7.2c-1.8,3.5-4,7.2-6.7,11c-3.5,4.8-6.4,8.5-8.6,11.1c-0.9,3.5-1.4,6.4-1.4,8.7
				c0,2.4,0.7,3.6,1.9,3.6c0.6,0,1.2-0.2,2-0.5c2.9-1.4,7.2-5.2,13-11.4c0.1-0.2,0.3-0.2,0.5-0.2c0.4,0,0.7,0.2,0.7,0.5
				c0,0.2-0.1,0.3-0.2,0.5c-3.4,3.7-6.3,6.5-8.6,8.5c0,0,0,0-0.1,0c-3.2,2.6-5.8,3.9-7.6,3.9C12.7,50.6,11.7,48.9,11.7,45.6
				L11.7,45.6z M12.8,37.1c-0.4,0-0.7,0-0.9-0.2c-0.3-0.1-0.6-0.2-0.9-0.2c-0.9,0-1.8,0.4-2.8,1.3c-1.3,1.2-2.5,2.6-3.4,4.1
				c-0.9,1.6-1.4,2.7-1.4,3.5v0.2c0,0,0.1,0,0.1,0C4.7,45.8,7.8,42.9,12.8,37.1L12.8,37.1z M28.9,14.5c1.3-2.8,2.1-5,2.1-6.7
				c0-0.8-0.1-1.4-0.4-1.7c-0.1,0-0.1,0-0.2-0.1c-0.1,0-0.1,0-0.3,0c-1.2,0-2.8,1.7-4.8,5c-1.9,3.2-3.5,6.3-4.6,9.3
				c-1.9,4.6-3.6,9.2-5,13.7C21.6,26.7,26,20.2,28.9,14.5L28.9,14.5z"/>
			<path class="st0" d="M27,48.6c-0.7-0.5-1-1.3-1.1-2.3v-0.4c0-2.2,1.3-5.2,3.1-7.2c2-2.2,3.5-3.1,4.6-3.2h0.3
				c1.1,0,1.7,0.7,1.8,1.6v0.5c-0.1,0.7-0.5,1.5-1.1,2.1c-0.8,0.9-2.1,1.5-3.8,1.5c-0.4,0-0.8,0-1.3-0.1c-0.9,1.6-1.6,3.3-1.7,4.6
				v0.4c0,0.4,0.1,0.8,0.2,1.1c0.2,0.3,0.5,0.4,0.9,0.5h0.1c0.9,0,2.2-0.4,4-1.5l0.2-0.1c2.5-1.6,5.8-4.3,10.1-8.7
				c0.1-0.2,0.3-0.2,0.5-0.2c0.1,0,0.3,0,0.4,0.1c0.1,0.2,0.2,0.3,0.2,0.5s-0.1,0.3-0.1,0.4c-4.3,4.4-7.8,7.3-10.4,8.9l-0.5,0.3
				c-1.4,0.9-2.6,1.3-3.5,1.5c-0.4,0.1-0.8,0.2-1.1,0.2C28.1,49.2,27.5,49,27,48.6z M33.5,39c0.5-0.4,0.7-1,0.7-1.5v-0.2
				c0-0.2-0.1-0.3-0.3-0.3l-0.3,0c-0.6,0.2-1.5,0.9-2.7,2.2l-0.7,0.8l0.5,0C32.1,40.1,33,39.6,33.5,39L33.5,39z"/>
			<path class="st0" d="M41.6,48c0-1.8,0.2-4.1,0.7-6.9c0.2-1.1,0.7-3.4,0.7-3.4c1-4.6,2.5-10,4.4-15c2-5.4,4.4-10.5,6.9-14
				c1.9-2.8,4-4.4,5.5-4.9c0.4-0.1,0.7-0.2,1.1-0.2s0.7,0.1,0.9,0.2c0.3,0.1,0.6,0.4,0.8,0.7h0.1c0.1,0.2,0.2,0.4,0.3,0.7L63.2,6
				c0,1.4-0.6,3.4-1.9,6c-1.9,3.7-5.2,9-8.3,13.9c-3.1,4.8-6.1,9.1-7.7,11.2c-0.4,1.5-0.7,3-0.9,4.3c-0.5,2.6-0.7,4.6-0.7,6.2
				c0,2.4,0.5,3.7,1.3,4.2c0.3,0.1,0.5,0.2,0.8,0.2c1.5,0,3.7-1.3,6.2-3.2c3.6-3,7.8-7.3,11.3-11.1c0.1-0.1,0.3-0.2,0.5-0.2
				c0.1,0,0.3,0,0.4,0.2c0.2,0.1,0.3,0.3,0.3,0.5c0,0.1-0.1,0.3-0.1,0.4c-3.6,3.8-11.5,11.2-11.5,11.2c-1.6,1.3-3.2,2.4-4.5,3.1
				c-1.3,0.7-2.5,1-3.4,1C42.8,53.8,41.6,52.1,41.6,48L41.6,48z M51.7,25.2c3.2-4.9,6.4-10.1,8.3-13.8c1.3-2.4,1.7-4.2,1.7-5.3
				l-0.1-0.7C61.6,5.1,61.4,5,61.2,5l-0.5,0.1c-0.5,0.1-1,0.4-1.6,0.9c-0.9,0.7-1.9,1.9-3,3.3c-2.4,3.4-4.8,8.4-6.8,13.8
				c-1.3,3.5-2.4,7.1-3.3,10.6C47.6,31.4,49.7,28.4,51.7,25.2L51.7,25.2z"/>
			<path class="st0" d="M63.7,36.6c0.2-0.1,0.4-0.2,0.6-0.2l0.1,0c0.3,0,0.5,0.2,0.7,0.5c0.1,0.1,0.1,0.2,0.1,0.4v0.2
				c0,0.1,0,0.2-0.1,0.3c-1.2,4-1.8,6.9-1.8,8.7l0.1,0.4c0,0.4,0.1,0.5,0.4,0.5c0.3,0,0.9-0.3,1.5-0.8c1-0.8,2.1-1.9,3.2-3.2
				c1.1-1.3,2.1-2.4,2.9-3.5c0.1-0.2,0.4-0.4,0.8-0.9c0.6-0.6,0.9-1,1.1-1.2c0.5-0.4,0.9-0.7,1.5-0.7c0.2,0,0.3,0,0.5,0.2
				c0.1,0.2,0.2,0.3,0.2,0.5c-0.1,0.2-0.1,0.3-0.3,0.5c-0.1,0-0.2,0.1-0.3,0.1h-0.1l-0.1,0c0,0-0.4,0.5-1.3,1.4
				c-0.3,0.3-0.5,0.5-0.5,0.7c-0.9,1.2-1.9,2.5-3,3.7c-1.1,1.3-2.3,2.5-3.4,3.4c-0.6,0.4-1.1,0.7-1.5,0.9c-0.7,0.4-1.3,0.7-1.8,0.7
				c-0.2,0-0.3,0-0.5,0c-0.9-0.1-1.3-1.1-1.3-3v-0.2c0-1.8,0.6-4.7,1.7-8.7c0,0,0-0.1,0.1-0.2C63.4,37,63.5,36.8,63.7,36.6
				L63.7,36.6z M66.5,32.2v0.2c0,0.2,0,0.3-0.1,0.4c0,0-0.1,0.1-0.1,0.1v0.2c0,0.2-0.1,0.3-0.3,0.5c-0.1,0.2-0.3,0.2-0.5,0.2
				s-0.3,0-0.5-0.2c-0.5-0.4-0.7-0.7-0.7-1v-0.3c0-0.2,0.1-0.3,0.2-0.4c0.2-0.2,0.4-0.3,0.6-0.3c0.3,0,0.7,0,0.9,0.2
				C66.3,31.9,66.4,32,66.5,32.2L66.5,32.2z"/>
			<path class="st0" d="M70.7,50.5c-0.5-0.4-0.7-1.2-0.7-2.1c0-2.1,1.2-5.1,2.9-7.8c2.2-3.8,5.4-7.1,7.6-7.1h0.2
				c1.3,0.2,2.2,1.5,2.2,4.4c0,1-0.1,2.1-0.3,3.5c0,0.4-0.3,0.7-0.5,0.8c0,0,0,0-0.1,0l-0.3,0h-0.2c-0.2,0-0.4-0.1-0.5-0.2
				c-0.3-0.3-0.5-0.7-0.5-1.4c0-0.3,0.2-0.5,0.5-0.6c0.2-1.2,0.3-2.1,0.3-2.8c0-1.4-0.3-2.1-0.8-2.1h-0.1c-1.1,0-2.9,1.7-4.6,4
				c-1.9,2.5-3.6,5.7-4,8c-0.1,0.3-0.1,0.7-0.1,0.9c0,0.9,0.3,1.6,1.3,1.7H73c3.8,0,15.3-9.9,18.2-12.4c0.1-0.1,0.3-0.2,0.5-0.2
				c0.1,0,0.3,0,0.5,0.2c0.1,0.1,0.2,0.3,0.2,0.4c0,0.1-0.1,0.3-0.2,0.4c-2.5,2.2-14.5,12.8-19.8,12.8
				C71.7,51.1,71.1,50.9,70.7,50.5L70.7,50.5z"/>
			<path class="st0" d="M91.8,36.6c0.2-0.1,0.4-0.2,0.6-0.2l0.1,0c0.3,0,0.5,0.2,0.7,0.5c0.1,0.1,0.1,0.2,0.1,0.4v0.2
				c0,0.1,0,0.2-0.1,0.3c-1.2,4-1.8,6.9-1.8,8.7l0.1,0.4c0,0.4,0.1,0.5,0.4,0.5c0.3,0,0.9-0.3,1.5-0.8c1-0.8,2.1-1.9,3.2-3.2
				c1.1-1.3,2.1-2.4,2.9-3.5c0.1-0.2,0.4-0.4,0.8-0.9c0.6-0.6,0.9-1,1.1-1.2c0.5-0.4,0.9-0.7,1.5-0.7c0.2,0,0.3,0,0.5,0.2
				c0.1,0.2,0.2,0.3,0.2,0.5c-0.1,0.2-0.1,0.3-0.3,0.5c-0.1,0-0.2,0.1-0.3,0.1h-0.1l-0.1,0c0,0-0.4,0.5-1.3,1.4
				c-0.3,0.3-0.5,0.5-0.5,0.7c-0.9,1.2-1.9,2.5-3,3.7c-1.1,1.3-2.3,2.5-3.4,3.4c-0.6,0.4-1.1,0.7-1.5,0.9c-0.7,0.4-1.3,0.7-1.8,0.7
				c-0.2,0-0.3,0-0.5,0c-0.9-0.1-1.3-1.1-1.3-3v-0.2c0-1.8,0.6-4.7,1.7-8.7c0,0,0-0.1,0.1-0.2C91.5,37,91.6,36.8,91.8,36.6
				L91.8,36.6z M94.6,32.2v0.2c0,0.2,0,0.3-0.1,0.4c0,0-0.1,0.1-0.1,0.1v0.2c0,0.2-0.1,0.3-0.3,0.5c-0.1,0.2-0.3,0.2-0.5,0.2
				s-0.3,0-0.5-0.2c-0.5-0.4-0.7-0.7-0.7-1v-0.3c0-0.2,0.1-0.3,0.2-0.4c0.2-0.2,0.4-0.3,0.6-0.3c0.3,0,0.7,0,0.9,0.2
				C94.4,31.9,94.5,32,94.6,32.2L94.6,32.2z"/>
			<path class="st0" d="M99.5,49.5c-0.5-0.5-0.9-1.4-0.9-2.7c0-0.5,0.1-1.2,0.2-1.9c0.1-0.4,0.1-0.8,0.3-1.2
				c0.5-1.9,1.3-3.8,2.5-5.1c1-1.3,2.3-2.2,3.6-2.2l0.5,0c0.1,0,0.1,0,0.2,0c0.3,0,0.5,0.4,0.5,0.7h0.3c0.5,0,1,0.3,1.2,1.3
				c0.1,0.5,0.3,1,0.3,1.6c0.3,0.1,0.7,0.2,1.1,0.2c1.6,0,4.2-0.7,8.2-2.7l0.4-0.1c0.2,0,0.5,0.1,0.5,0.3c0.1,0.1,0.1,0.2,0.1,0.3
				c0,0.2-0.1,0.4-0.3,0.5c-4.1,2.1-6.9,2.8-8.8,2.8c-0.5,0-0.9,0-1.2-0.1c-0.3,2.7-1.7,5.3-3.3,6.9l-0.2,0.2
				c-0.9,0.8-1.7,1.4-2.6,1.6c-0.3,0.1-0.7,0.2-1,0.2C100.5,50.1,99.9,49.9,99.5,49.5L99.5,49.5z M102.2,48.3
				c0.4-0.1,0.9-0.4,1.5-0.9c1.6-1.6,3-4,3.1-6.6c-0.4-0.2-0.7-0.5-0.9-0.8c-0.3-0.4-0.3-0.9-0.3-1.3v-0.3c0-0.2,0.1-0.4,0.1-0.6
				h-0.3c-0.6,0-1.3,0.5-1.9,1.4c-0.9,1-1.6,2.6-2,4.3l-0.3,1.1c-0.1,0.7-0.1,1.3-0.1,1.9c0,0.6,0.1,1,0.2,1.4
				c0.1,0.3,0.2,0.5,0.3,0.5l0.3,0.1L102.2,48.3L102.2,48.3z"/>
			<path class="st0" d="M123.1,48.4l-0.1-1c0-1.2,0.3-2.9,0.9-5.2c-1.1,1.5-2.1,2.7-3,3.5l-0.1,0.2c-1.1,1.1-2,1.8-2.8,2.1
				c-0.5,0.2-0.9,0.3-1.3,0.3c-0.6,0-1.1-0.3-1.5-0.8c-0.3-0.5-0.5-1.4-0.5-2.3v-0.4c0.1-2.7,1.6-6.6,3.4-8.1
				c0.3-0.2,0.7-0.4,1.1-0.5c0.3,0,0.6,0,0.9,0.2l0.1,0l0.1,0.1c0.1,0,0.1,0,0.1,0c0.1,0.1,0.1,0.2,0.1,0.4s-0.1,0.4-0.3,0.5
				c-1.7,1.1-3.2,4.6-3.3,7V45c0,0.5,0.1,0.9,0.1,1.2c0.1,0.2,0.2,0.3,0.4,0.3h0.1c0.5,0,1.3-0.5,2.4-1.5v0c1.4-1.4,3.1-3.5,5.2-6.7
				v0c0.2-0.2,0.5-0.4,0.7-0.5c0.2,0,0.3,0,0.5,0c0.3,0.1,0.5,0.2,0.5,0.4l0.1,0.1c0,0.2,0,0.4-0.1,0.7c-1.1,3.8-1.9,6.8-1.9,8.6
				v0.2c0.1,0.7,0.3,1,0.7,1c0.3,0,0.9-0.2,1.4-0.6c3-2.1,7-6.9,9.7-10.4c0.1-0.2,0.3-0.3,0.6-0.3l0.3,0.1c0.2,0.1,0.3,0.3,0.3,0.5
				l-0.1,0.3c-2.7,3.5-6.8,8.5-9.9,10.7c-1.1,0.8-2.1,1.3-2.9,1.3C124,50.2,123.3,49.7,123.1,48.4L123.1,48.4z"/>
			<path class="st0" d="M131.8,56.7c-0.9,0-1.8-0.4-2.1-1.2c-0.1-0.3-0.2-0.7-0.2-1.2c0-0.9,0.3-2.1,1.2-3.6h0.1l0.1-0.2
				c1.3-2.2,3.6-4.4,6.1-6.4l-0.3-1.3c-0.3-1.3-0.5-2.4-0.5-3.4v-0.3c0-2.1,0.8-2.8,1.5-2.8c0.6,0,1.1,0.4,1.1,0.9
				c0,0.2-0.1,0.3-0.3,0.4c-0.3,0.3-0.5,0.7-0.5,1.3v0.3c0,0.9,0.2,2,0.5,3.2l0.1,0.4c3.1-2.2,5.2-3.5,8-5.3l0.3-0.1
				c0.3,0,0.5,0.1,0.6,0.3c0.1,0.1,0.1,0.2,0.1,0.4s-0.1,0.4-0.3,0.5l-1,0.6c-2.3,1.5-5,3.2-7.5,5.1c0.1,0.7,0.1,1.4,0.1,2.1
				c0,4.1-1.7,7-3.6,8.7c-1.1,0.9-2.3,1.5-3.3,1.6L131.8,56.7L131.8,56.7z M134.3,54.1c1.5-1.4,2.8-3.9,2.8-7.5v-1
				c-2.2,1.8-4,3.7-5.1,5.5c-0.1,0.2-0.2,0.2-0.2,0.3c-0.7,1.3-1,2.2-1,2.9l0.1,0.7c0.1,0.3,0.4,0.4,0.8,0.4h0.3
				C132.7,55.3,133.5,54.8,134.3,54.1L134.3,54.1z"/>
			<path class="st0" d="M168,40.8c-0.1,0-0.1,0.2-0.2,0.2c-0.2,0.2-0.4,0.4-0.6,0.7c-0.3,0.3-0.6,0.6-0.9,0.9
				c-2.6,2.8-4.5,4.3-5.6,4.4c-0.3,0-0.6,0.1-0.8,0.1c-0.8,0-1.2-0.4-1.2-1.3v-0.2c0-0.3,0.1-0.7,0.1-1.2c0.3-1.5,1.1-3.1,2.4-4.8
				c0.9-1.1,1.8-2,2.8-2.8s2.1-1.2,3.2-1.2c0.5,0,0.9,0.1,1.4,0.3c0.6,0.2,0.9,0.5,0.9,1c0,0.2-0.1,0.3-0.1,0.4l1-1h0.1v0h0.1
				c0.1-0.1,0.1-0.2,0.2-0.2c1.2-1,2.2-1.6,3.1-1.6h0.2c0.5,0,1,0.3,1.3,0.9c0.3,0.5,0.5,1.4,0.5,2.6c0,0.7-0.1,1.5-0.2,2.4
				l-0.3,1.6l-0.3,1.8c2.5-2.1,5.2-4.3,8.1-6.4c0.1-0.1,0.3-0.2,0.4-0.2c0.2,0,0.3,0,0.5,0.2c0.1,0.1,0.1,0.2,0.1,0.4
				s-0.1,0.3-0.3,0.5c-3.4,2.5-6.4,5-9.2,7.4c-1.7,9.9-3.8,17.7-6.3,23.5s-4.9,9.8-7.4,12.1c-1.9,1.9-3.8,2.8-5.3,2.8
				c-0.7,0-1.3-0.2-1.9-0.6c-1.3-0.9-2-2.6-2-5c0-0.8,0.1-1.8,0.3-2.8c0.5-3.6,2.4-7.9,5.7-13.1s8.3-10.9,15.1-17
				c0.3-1.8,0.6-3.5,0.9-5.5c0.1-1,0.2-1.9,0.2-2.5c0-1-0.1-1.6-0.5-1.7c0,0-0.1,0-0.1,0c-0.4,0-1.1,0.4-2,1.2v0h-0.1
				C170.2,38.4,169.2,39.6,168,40.8L168,40.8z M163.3,75.9c3.4-5.2,6.4-13.7,8.8-25.6c0.2-0.8,0.4-1.7,0.5-2.6
				c-6.2,5.8-10.8,11.2-13.8,16c-3,4.9-4.8,8.9-5.3,12.2c-0.2,1-0.3,2-0.3,2.8c0,2,0.5,3.3,1.5,3.9c0.3,0.2,0.5,0.3,0.8,0.3
				c0.1,0,0.2,0,0.3-0.1C157.9,82.8,160.4,80.4,163.3,75.9L163.3,75.9z M167.5,37.3c-0.9,0-1.9,0.5-2.9,1.6c-1.1,1-2,2.2-2.8,3.4
				c-0.5,0.8-0.9,1.5-1.1,2.2c-0.1,0.4-0.1,0.7-0.1,0.9v0.2c0,0,0,0,0.1,0c0.2,0,0.5-0.2,1.1-0.7c0.5-0.4,1-0.9,1.6-1.4
				c0.5-0.5,1-0.9,1.4-1.3c0.3-0.3,0.5-0.4,0.5-0.5c0.5-0.5,0.9-1,1.4-1.6c0.3-0.3,0.6-0.6,0.9-0.9s0.5-0.7,0.9-0.9
				c-0.1,0-0.1,0-0.2,0c-0.1,0-0.3,0-0.3,0c-0.2-0.2-0.3-0.3-0.3-0.5s0.1-0.3,0.1-0.4C167.8,37.3,167.6,37.3,167.5,37.3L167.5,37.3z
				"/>
			<path class="st0" d="M181.4,48c0-1.8,0.2-4.1,0.7-6.9c0.2-1.1,0.7-3.4,0.7-3.4c1-4.6,2.6-10,4.4-15c2-5.4,4.4-10.5,6.9-14
				c1.9-2.8,4-4.4,5.5-4.9c0.4-0.1,0.7-0.2,1.1-0.2s0.7,0.1,0.9,0.2c0.3,0.1,0.6,0.4,0.8,0.7h0.1c0.1,0.2,0.2,0.4,0.3,0.7L203,6
				c0,1.4-0.6,3.4-1.9,6c-1.9,3.7-5.2,9-8.3,13.9c-3.1,4.8-6.1,9.1-7.7,11.2c-0.4,1.5-0.7,3-0.9,4.3c-0.5,2.6-0.7,4.6-0.7,6.2
				c0,2.4,0.5,3.7,1.3,4.2c0.3,0.1,0.5,0.2,0.8,0.2c1.5,0,3.7-1.3,6.2-3.2c3.6-3,7.8-7.3,11.3-11.1c0.1-0.1,0.3-0.2,0.5-0.2
				c0.1,0,0.3,0,0.4,0.2c0.2,0.1,0.3,0.3,0.3,0.5c0,0.1-0.1,0.3-0.1,0.4c-3.6,3.8-11.5,11.2-11.5,11.2c-1.6,1.3-3.1,2.4-4.5,3.1
				c-1.3,0.7-2.5,1-3.4,1C182.6,53.8,181.4,52.1,181.4,48L181.4,48z M191.5,25.2c3.1-4.9,6.4-10.1,8.3-13.8c1.3-2.4,1.7-4.2,1.7-5.3
				l-0.1-0.7c-0.1-0.3-0.3-0.4-0.5-0.4l-0.5,0.1c-0.5,0.1-1,0.4-1.6,0.9c-0.9,0.7-1.9,1.9-3,3.3c-2.4,3.4-4.8,8.4-6.8,13.8
				c-1.3,3.5-2.4,7.1-3.4,10.6C187.5,31.4,189.5,28.4,191.5,25.2L191.5,25.2z"/>
			<path class="st0" d="M208.6,48.4l-0.1-1c0-1.2,0.3-2.9,0.9-5.2c-1.1,1.5-2.1,2.7-3,3.5l-0.1,0.2c-1.1,1.1-2,1.8-2.8,2.1
				c-0.5,0.2-0.9,0.3-1.3,0.3c-0.6,0-1.1-0.3-1.5-0.8c-0.3-0.5-0.5-1.4-0.5-2.3v-0.4c0.1-2.7,1.6-6.6,3.4-8.1
				c0.3-0.2,0.7-0.4,1.1-0.5c0.3,0,0.6,0,0.9,0.2l0.1,0l0.1,0.1c0.1,0,0.1,0,0.1,0c0.1,0.1,0.1,0.2,0.1,0.4s-0.1,0.4-0.3,0.5
				c-1.7,1.1-3.1,4.6-3.4,7V45c0,0.5,0.1,0.9,0.1,1.2c0.1,0.2,0.2,0.3,0.4,0.3h0.1c0.5,0,1.3-0.5,2.4-1.5v0c1.4-1.4,3.1-3.5,5.2-6.7
				v0c0.2-0.2,0.5-0.4,0.7-0.5c0.2,0,0.3,0,0.5,0c0.3,0.1,0.5,0.2,0.5,0.4l0.1,0.1c0,0.2,0,0.4-0.1,0.7c-1.1,3.8-1.9,6.8-1.9,8.6
				v0.2c0.1,0.7,0.3,1,0.7,1c0.3,0,0.9-0.2,1.4-0.6c2.9-2.1,7-6.9,9.6-10.4c0.1-0.2,0.3-0.3,0.6-0.3l0.3,0.1
				c0.2,0.1,0.3,0.3,0.3,0.5l-0.1,0.3c-2.7,3.5-6.8,8.5-9.9,10.7c-1.1,0.8-2.1,1.3-2.9,1.3C209.6,50.2,208.8,49.7,208.6,48.4
				L208.6,48.4z"/>
			<path class="st0" d="M218.3,68.2v-0.8c0-4,1.7-18.6,4.4-31.8c0.7-3.8,1.7-7.4,2.6-10.7l-16.8,0c-0.1,0.1-0.1,0.2-0.3,0.2
				c-0.5,0.2-0.9,0.2-1.3,0.2c-0.3,0-0.5,0-0.7-0.2c-0.3-0.1-0.5-0.3-0.5-0.5c0-0.2,0-0.5,0.1-0.7v0c0.2-0.2,0.5-0.3,0.8-0.3h0.1
				c0.5,0,1.3,0,2.4,0l7.4,0.1l9,0.2c1.1-4,2.5-7.5,3.8-9.7c0.2-0.4,0.8-1,1.4-1.1c0.3,0,0.5,0,0.7,0.1c0.2,0.1,0.3,0.3,0.4,0.6
				l0.1,0.3c0,0.3-0.1,0.6-0.3,1c-0.1,0.1-0.2,0.2-0.3,0.2c-1.2,2.1-2.4,5.1-3.5,8.7h0.7c6.6,0,13.5,0.1,19,0.1c4.9,0,8.6,0,9.9-0.2
				h0.1c0.3,0,0.7,0.2,0.7,0.5v0.1c0,0.3-0.3,0.5-0.6,0.6c-1.3,0.2-5.1,0.2-10.1,0.2c-6.4,0-12.9-0.1-20.2-0.1
				c-1,3.4-1.9,7.3-2.8,11.2c-2.9,13.5-4.8,28.2-4.8,31.4v0.2l0.1,0.4c0,0.5-0.4,0.8-0.8,0.8S218.5,68.7,218.3,68.2L218.3,68.2z"/>
			<path class="st0" d="M230,48.6c-0.7-0.5-1-1.3-1.1-2.3v-0.4c0-2.2,1.3-5.2,3.1-7.2c2-2.2,3.6-3.1,4.6-3.2h0.3
				c1.1,0,1.7,0.7,1.8,1.6v0.5c-0.1,0.7-0.5,1.5-1.1,2.1c-0.8,0.9-2.1,1.5-3.8,1.5c-0.4,0-0.8,0-1.3-0.1c-0.9,1.6-1.6,3.3-1.7,4.6
				v0.4c0,0.4,0.1,0.8,0.2,1.1c0.2,0.3,0.5,0.4,0.9,0.5h0.1c0.9,0,2.2-0.4,3.9-1.5l0.2-0.1c2.5-1.6,5.8-4.3,10.1-8.7
				c0.1-0.2,0.3-0.2,0.5-0.2c0.1,0,0.3,0,0.4,0.1c0.1,0.2,0.2,0.3,0.2,0.5s-0.1,0.3-0.1,0.4c-4.4,4.4-7.8,7.3-10.4,8.9l-0.5,0.3
				c-1.4,0.9-2.6,1.3-3.6,1.5c-0.4,0.1-0.8,0.2-1.1,0.2C231.1,49.2,230.5,49,230,48.6L230,48.6z M236.5,39c0.5-0.4,0.7-1,0.7-1.5
				v-0.2c0-0.2-0.1-0.3-0.3-0.3l-0.3,0c-0.6,0.2-1.5,0.9-2.7,2.2l-0.7,0.8l0.5,0C235.1,40.1,236,39.6,236.5,39L236.5,39z"/>
			<path class="st0" d="M242.1,50.4v-0.3c0.1-0.5,0.3-1.2,0.5-2c1-3.5,3.5-9.9,4.4-11.8c0.2-0.4,0.7-0.5,1.1-0.5s0.8,0.2,0.8,0.5
				v0.1l-0.1,0.3c-0.9,1.9-3.4,7.8-4.6,11.2v0.1l0.9-1.4c1.7-2.6,4.4-6.7,6.7-8.7c0.5-0.4,0.9-0.7,1.3-0.9c0.2,0,0.4-0.1,0.7-0.1
				c0.2,0,0.5,0,0.7,0.2c0.3,0.2,0.6,0.5,0.7,1c0.1,0.4,0.3,1.1,0.3,1.9c0,0.5-0.1,1.2-0.1,1.9c-0.1,0.7-0.1,1.4-0.1,2
				c0,2.9,0.5,4.5,1.5,5.1c0.3,0.2,0.7,0.3,1.1,0.3c1,0,2.3-0.5,3.7-1.4c3.8-2.2,8.3-6.6,12.3-10.5c0.2-0.1,0.4-0.2,0.6-0.2
				c0.1,0,0.3,0,0.4,0.2c0.1,0.1,0.2,0.3,0.2,0.5c0,0.1-0.1,0.3-0.2,0.4c-4.1,3.9-8.8,8.3-12.7,10.7v0l-1.5,0.8
				c-1.3,0.7-2.4,1-3.4,1c-2.2,0-3.6-1.8-3.6-6.2c0-0.8,0.1-1.5,0.1-2.4c0.1-0.9,0.1-1.6,0.1-2.1c0-1.2-0.1-1.7-0.4-1.7l-0.4,0
				c-0.7,0.5-1.7,1.6-2.3,2.3c-1.7,2-3.2,4.5-4.5,6.4l-2.4,3.4c-0.3,0.4-0.5,0.6-0.8,0.7c-0.2,0.1-0.5,0.2-0.6,0.2
				C242.2,51.3,242.1,51,242.1,50.4L242.1,50.4z"/>
			<path class="st0" d="M294.9,68.2c-0.2-0.4-0.4-1.1-0.4-2.2v-0.6c0-1.6,0.1-3.5,0.2-5.5c0.2-3.7,0.5-7.1,0.5-7.3l0.4-3.8
				c-0.1-0.1-0.3-0.3-0.5-0.4s-0.4-0.3-0.5-0.5c-0.2-0.3-0.3-0.6-0.3-0.9c0-0.5,0.3-1.1,0.9-1.7c0.3-0.3,0.7-0.7,1.1-1
				c1.9-10.5,5.6-17.8,8.4-21.3c0.9-1.3,1.8-2.1,2.5-2.5c0.5-0.2,0.8-0.3,1.1-0.3c0.5,0,0.9,0.3,1.1,0.9c0.1,0.2,0.1,0.4,0.1,0.7
				c0,0.7-0.2,1.7-0.7,3c-0.1,0.4-0.5,0.5-0.9,0.5c-0.5,0-0.9-0.3-0.9-0.8l0.1-0.3c0.3-0.5,0.5-1,0.6-1.4c-0.5,0.5-1.2,1.4-2.1,2.6
				l-0.2,0.3c-1.9,2.6-4,6.7-5.8,12.3c-0.5,1.6-0.9,3.2-1.3,5h0.1c3.5-2.1,8.7-4.4,12.3-5.7l0.3,0c0.3,0,0.5,0.1,0.6,0.4l0.1,0.3
				c0,0.2-0.1,0.4-0.4,0.5c-3.5,1.4-8.6,3.5-12.1,5.6c-0.4,0.3-0.8,0.5-1.2,0.8c-0.2,1.3-0.5,2.5-0.6,3.9c1.8,2.1,2.4,5.1,2.4,8.2
				c0,2.5-0.4,5-0.9,7c-0.5,1.6-1,2.8-1.5,3.7c-0.5,0.8-1,1.3-1.5,1.3C295.5,68.9,295.2,68.7,294.9,68.2L294.9,68.2z M295.9,46.7
				c-0.1,0.2-0.1,0.3-0.1,0.5l0.1,0.2L295.9,46.7L295.9,46.7z M296.1,67c0.5-0.7,0.9-1.9,1.3-3.3c0.5-2,0.9-4.4,0.9-6.8
				c0-2.2-0.3-4.5-1.3-6.2c-0.1,1.2-0.3,2.2-0.3,3.4c-0.1,0.2-0.3,3.7-0.5,7.3l-0.2,5.4c0,0.3,0,0.4,0.1,0.4L296.1,67L296.1,67z"/>
			<path class="st0" d="M308.3,53.3c-0.4-0.1-0.6-0.5-0.6-1v-0.2c0.1-0.4,0.2-1,0.5-1.7c0.8-2.2,2.5-5.5,3.4-7.3
				c0.6-1.2,0.9-1.9,0.9-2.5c0-1-0.7-1.5-1.4-1.9c-0.7-0.5-1.5-0.9-1.5-1.8c0-0.4,0.3-1,0.8-1.8l0.1-0.1l0.4-0.5
				c0.2-0.1,0.5-0.2,0.7-0.2c0.1,0,0.4,0.1,0.4,0.1c0.2,0,0.3,0.2,0.3,0.3l0.1,0.3c0,0.2-0.1,0.4-0.2,0.6c-0.4,0.5-0.5,0.9-0.5,1.2
				c0,0.5,0.5,0.8,0.9,1.1c0.9,0.5,1.8,1.2,1.8,2.6c0,0.8-0.3,1.8-1.1,3.2c-0.7,1.4-2.1,3.8-3,5.7c-0.6,1.4-0.9,2.2-1,2.5
				c1.3-0.9,3.8-4,6.7-7.5c1.9-2.5,3.9-5,5.6-6.8c0.1-0.1,0.3-0.2,0.5-0.2l0.3,0.1c0.1,0.1,0.2,0.2,0.2,0.4s-0.1,0.3-0.1,0.4
				c-1.7,1.9-3.7,4.3-5.6,6.8c-1.1,1.5-6.2,8.2-8.2,8.5C308.5,53.4,308.4,53.4,308.3,53.3L308.3,53.3z"/>
			<path class="st0" d="M318.3,48.6c-0.7-0.5-1-1.3-1.1-2.3v-0.4c0-2.2,1.3-5.2,3.1-7.2c2-2.2,3.5-3.1,4.6-3.2h0.3
				c1.1,0,1.7,0.7,1.8,1.6v0.5c-0.1,0.7-0.5,1.5-1.1,2.1c-0.8,0.9-2.1,1.5-3.8,1.5c-0.4,0-0.8,0-1.3-0.1c-0.9,1.6-1.6,3.3-1.7,4.6
				v0.4c0,0.4,0.1,0.8,0.2,1.1c0.2,0.3,0.5,0.4,0.9,0.5h0.1c0.9,0,2.2-0.4,4-1.5l0.2-0.1c2.5-1.6,5.8-4.3,10.1-8.7
				c0.1-0.2,0.3-0.2,0.5-0.2c0.1,0,0.3,0,0.4,0.1c0.1,0.2,0.2,0.3,0.2,0.5s-0.1,0.3-0.1,0.4c-4.4,4.4-7.8,7.3-10.4,8.9l-0.5,0.3
				c-1.4,0.9-2.6,1.3-3.5,1.5c-0.4,0.1-0.8,0.2-1.1,0.2C319.4,49.2,318.8,49,318.3,48.6L318.3,48.6z M324.8,39
				c0.5-0.4,0.7-1,0.7-1.5v-0.2c0-0.2-0.1-0.3-0.3-0.3l-0.3,0c-0.6,0.2-1.5,0.9-2.7,2.2l-0.7,0.8l0.5,0
				C323.4,40.1,324.3,39.6,324.8,39L324.8,39z"/>
			<g>
				<path class="st0" d="M74.8,132.6v-0.8c0-4,1.7-18.6,4.4-31.8c0.7-3.8,1.7-7.4,2.6-10.7l-16.8-0.1c-0.1,0.1-0.1,0.2-0.3,0.2
					c-0.5,0.2-0.9,0.2-1.3,0.2c-0.3,0-0.5-0.1-0.7-0.2c-0.3-0.1-0.5-0.3-0.5-0.6c0-0.2,0-0.5,0.1-0.7v-0.1c0.2-0.2,0.5-0.3,0.8-0.3
					h0.1c0.5-0.1,1.3-0.1,2.4-0.1l7.4,0.1l9,0.2c1.1-4,2.5-7.5,3.8-9.7c0.2-0.4,0.8-1,1.4-1.1c0.3,0,0.5,0,0.7,0.1
					c0.2,0.1,0.3,0.3,0.4,0.6l0.1,0.3c0,0.3-0.1,0.6-0.3,1c-0.1,0.1-0.2,0.2-0.3,0.2c-1.2,2.1-2.3,5.1-3.5,8.7h0.7
					c6.6,0.1,13.5,0.1,19,0.1c4.9,0,6.6-0.1,7.9-0.2h0.1c0.3,0,0.7,0.2,0.7,0.5v0.1c0,0.3-0.3,0.6-0.6,0.6c-1.3,0.2-3.1,0.2-8.1,0.2
					c-6.4,0-12.9-0.1-20.2-0.1c-1,3.4-1.9,7.3-2.8,11.2c-2.9,13.5-4.8,28.2-4.8,31.4v0.2l0.1,0.4c0,0.5-0.4,0.8-0.8,0.8
					S74.9,133.1,74.8,132.6L74.8,132.6z"/>
				<path class="st0" d="M87.6,117.7c-0.4-0.1-0.6-0.5-0.6-1v-0.2c0.1-0.4,0.2-1,0.5-1.7c0.8-2.2,2.5-5.5,3.4-7.3
					c0.6-1.2,0.9-1.9,0.9-2.5c0-1-0.7-1.5-1.4-1.9c-0.7-0.5-1.5-0.9-1.5-1.8c0-0.4,0.3-1,0.8-1.8l0.1-0.1l0.4-0.5
					c0.2-0.1,0.5-0.2,0.7-0.2c0.1,0,0.4,0.1,0.4,0.1c0.2,0.1,0.3,0.2,0.3,0.3l0.1,0.3c0,0.2-0.1,0.4-0.2,0.6
					c-0.4,0.5-0.5,0.9-0.5,1.2c0,0.5,0.5,0.8,0.9,1.1c0.9,0.6,1.8,1.2,1.8,2.6c0,0.8-0.3,1.8-1.1,3.2c-0.7,1.4-2.1,3.8-2.9,5.7
					c-0.6,1.4-0.9,2.2-1,2.5c1.3-0.9,3.8-4,6.7-7.5c1.9-2.5,3.9-5,5.6-6.8c0.1-0.1,0.3-0.2,0.5-0.2l0.3,0.1c0.1,0.1,0.2,0.2,0.2,0.4
					s-0.1,0.3-0.1,0.4c-1.7,1.9-3.7,4.3-5.6,6.8c-1.1,1.5-6.2,8.2-8.2,8.5C87.8,117.8,87.7,117.8,87.6,117.7L87.6,117.7z"/>
				<path class="st0" d="M97.6,113.1c-0.7-0.5-1-1.3-1.1-2.3v-0.4c0-2.2,1.3-5.2,3.1-7.2c2-2.2,3.6-3.1,4.6-3.2h0.3
					c1.1,0,1.7,0.7,1.8,1.6v0.6c-0.1,0.7-0.5,1.5-1.1,2.1c-0.8,0.9-2.1,1.5-3.8,1.5c-0.4,0-0.8,0-1.3-0.1c-0.9,1.6-1.6,3.3-1.7,4.6
					v0.4c0,0.4,0.1,0.8,0.2,1.1c0.2,0.3,0.5,0.4,0.9,0.5h0.1c0.9,0,2.2-0.4,3.9-1.5l0.2-0.1c2.5-1.6,5.8-4.3,10.1-8.7
					c0.1-0.2,0.3-0.2,0.5-0.2c0.1,0,0.3,0,0.4,0.1c0.1,0.2,0.2,0.3,0.2,0.5s-0.1,0.3-0.1,0.4c-4.4,4.4-7.8,7.3-10.4,8.9l-0.5,0.3
					c-1.4,0.9-2.6,1.3-3.6,1.5c-0.4,0.1-0.8,0.2-1.1,0.2C98.7,113.7,98.1,113.4,97.6,113.1L97.6,113.1z M104.1,103.4
					c0.5-0.4,0.7-1,0.7-1.5v-0.2c0-0.2-0.1-0.3-0.3-0.3l-0.3,0.1c-0.6,0.2-1.5,0.9-2.7,2.2l-0.7,0.8l0.5,0.1
					C102.7,104.5,103.6,104,104.1,103.4L104.1,103.4z"/>
				<path class="st0" d="M116.7,113.4l-0.1-0.8c0-1.6,0.5-3.9,1.5-7.2c-2.3,3.2-6,5.2-6,5.2c-0.5,0.3-1,0.4-1.4,0.4
					c-0.7,0-1.1-0.6-1.1-1.4l0.1-0.9c0.3-1.3,1.1-3.1,2.3-4.7c1.5-2,3.5-3.6,5.6-3.6c0.5,0,0.9,0.1,1.3,0.2c0.3,0.2,0.5,0.5,0.5,0.8
					l-0.1,0.4c-0.1,0.2-0.3,0.3-0.6,0.3c-0.1,0-0.2,0-0.3-0.1c-0.2-0.1-0.4-0.2-0.7-0.2c-1.6,0-3.8,2.5-5.1,4.6
					c-0.5,0.8-0.7,1.5-1,2c-0.1,0.3-0.2,0.6-0.2,0.7c0,0.1,0,0.2,0.1,0.2h0.1l0.3-0.2c1.4-0.9,3.8-3,7.2-7.2
					c0.2-0.3,0.5-0.5,0.8-0.6l0.3-0.1l0.3,0.1c0.2,0.1,0.4,0.2,0.5,0.4l0.1,0.4l-0.1,0.4c-1.3,3.7-2.3,7.4-2.4,9.6v0.2
					c0,0.9,0.3,1.4,0.9,1.4c0.3,0,0.9-0.2,1.5-0.7c0.5-0.3,0.9-0.6,1.3-1c2.8-2.2,6.2-5.9,9.7-10.2c0.1-0.2,0.3-0.3,0.5-0.3l0.4,0.1
					c0.1,0.1,0.3,0.3,0.3,0.5s-0.1,0.3-0.1,0.4c-4.4,5.4-8.6,9.9-11.7,11.7l-1.1,0.6l-0.1,0.1c-0.6,0.3-1.2,0.3-1.6,0.3h-0.3
					C117.5,115.3,116.9,114.7,116.7,113.4L116.7,113.4z"/>
				<path class="st0" d="M128.3,132.6v-0.8c0-4,1.7-18.6,4.4-31.8c0.7-3.8,1.7-7.4,2.6-10.7l-14.8-0.1c-0.1,0.1-0.1,0.2-0.3,0.2
					c-0.5,0.2-0.9,0.2-1.3,0.2c-0.3,0-0.5-0.1-0.7-0.2c-0.3-0.1-0.5-0.3-0.5-0.6c0-0.2,0-0.5,0.1-0.7v-0.1c0.2-0.2,0.5-0.3,0.8-0.3
					h0.1c0.5-0.1-0.7-0.1,0.4-0.1l7.4,0.1l9,0.2c1.1-4,2.5-7.5,3.8-9.7c0.2-0.4,0.8-1,1.4-1.1c0.3,0,0.5,0,0.7,0.1
					c0.2,0.1,0.3,0.3,0.4,0.6l0.1,0.3c0,0.3-0.1,0.6-0.3,1c-0.1,0.1-0.2,0.2-0.3,0.2c-1.2,2.1-2.3,5.1-3.5,8.7h0.7
					c6.6,0.1,13.5,0.1,19,0.1c4.9,0,6.6-0.1,7.9-0.2h0.1c0.3,0,0.7,0.2,0.7,0.5v0.1c0,0.3-0.3,0.6-0.6,0.6c-1.3,0.2-3.1,0.2-8.1,0.2
					c-6.4,0-12.9-0.1-20.2-0.1c-1,3.4-1.9,7.3-2.8,11.2c-2.9,13.5-4.8,28.2-4.8,31.4v0.2l0.1,0.4c0,0.5-0.4,0.8-0.8,0.8
					S128.5,133.1,128.3,132.6L128.3,132.6z"/>
				<path class="st0" d="M138.4,121.1c-0.9,0-1.8-0.4-2.1-1.2c-0.1-0.3-0.2-0.7-0.2-1.2c0-0.9,0.3-2.1,1.2-3.6h0.1l0.1-0.2
					c1.3-2.2,3.6-4.4,6.1-6.4l-0.3-1.3c-0.3-1.3-0.5-2.4-0.5-3.4v-0.3c0-2.1,0.8-2.8,1.5-2.8c0.6,0,1.1,0.4,1.1,0.9
					c0,0.2-0.1,0.3-0.3,0.4c-0.3,0.3-0.5,0.7-0.5,1.3v0.3c0,0.9,0.2,2,0.5,3.2l0.1,0.4c3.1-2.2,5.2-3.6,8-5.3l0.3-0.1
					c0.3,0,0.5,0.1,0.6,0.3c0.1,0.1,0.1,0.2,0.1,0.4s-0.1,0.4-0.3,0.5l-1,0.6c-2.3,1.5-5,3.2-7.5,5.1c0.1,0.7,0.1,1.4,0.1,2.1
					c0,4.1-1.7,7-3.6,8.7c-1.1,0.9-2.3,1.5-3.3,1.6L138.4,121.1L138.4,121.1z M140.9,118.5c1.5-1.4,2.8-3.9,2.8-7.5v-1
					c-2.2,1.8-4,3.7-5.1,5.5c-0.1,0.2-0.2,0.2-0.2,0.3c-0.7,1.3-1,2.2-1,2.9l0.1,0.7c0.1,0.3,0.4,0.4,0.8,0.4h0.3
					C139.3,119.7,140.1,119.2,140.9,118.5L140.9,118.5z"/>
				<path class="st0" d="M162.3,132.7c-0.2-0.4-0.4-1.1-0.4-2.2v-0.6c0-1.6,0.1-3.5,0.2-5.5c0.2-3.7,0.5-7.1,0.5-7.3l0.4-3.8
					c-0.1-0.1-0.3-0.3-0.5-0.4s-0.4-0.3-0.5-0.5c-0.2-0.3-0.3-0.6-0.3-0.9c0-0.6,0.3-1.1,0.9-1.7c0.3-0.3,0.7-0.7,1.1-1
					c1.9-10.5,5.6-17.8,8.4-21.3c0.9-1.3,1.8-2.1,2.6-2.5c0.5-0.2,0.8-0.3,1.1-0.3c0.5,0,0.9,0.3,1.1,0.9c0.1,0.2,0.1,0.4,0.1,0.7
					c0,0.7-0.2,1.7-0.7,2.9c-0.1,0.4-0.5,0.6-0.9,0.6c-0.5,0-0.9-0.3-0.9-0.8l0.1-0.3c0.3-0.6,0.5-1,0.6-1.4
					c-0.5,0.5-1.2,1.4-2.1,2.6l-0.2,0.3c-1.9,2.6-4,6.7-5.8,12.3c-0.5,1.6-0.9,3.2-1.3,5h0.1c3.5-2.1,8.7-4.4,12.3-5.7l0.3-0.1
					c0.3,0,0.5,0.1,0.6,0.4l0.1,0.3c0,0.2-0.1,0.4-0.4,0.6c-3.5,1.4-8.6,3.5-12.1,5.6c-0.4,0.3-0.8,0.6-1.2,0.8
					c-0.2,1.3-0.5,2.5-0.6,3.9c1.8,2.1,2.4,5.1,2.4,8.2c0,2.5-0.4,5-0.9,7c-0.5,1.6-1,2.8-1.5,3.7c-0.5,0.8-1,1.3-1.5,1.3
					C162.8,133.3,162.6,133.1,162.3,132.7L162.3,132.7z M163.2,111.1c-0.1,0.2-0.1,0.3-0.1,0.5l0.1,0.2L163.2,111.1L163.2,111.1z
					 M163.4,131.4c0.5-0.7,0.9-1.9,1.3-3.3c0.5-2,0.9-4.4,0.9-6.8c0-2.2-0.3-4.5-1.3-6.2c-0.1,1.2-0.3,2.2-0.3,3.4
					c-0.1,0.2-0.3,3.7-0.5,7.3l-0.2,5.4c0,0.3,0,0.4,0.1,0.4L163.4,131.4L163.4,131.4z"/>
				<path class="st0" d="M174.3,113.9c-0.5-0.6-0.9-1.4-0.9-2.7c0-0.6,0.1-1.2,0.2-1.9c0.1-0.4,0.1-0.8,0.3-1.2
					c0.5-1.9,1.3-3.8,2.5-5.1c1-1.3,2.3-2.2,3.6-2.2l0.5,0.1c0.1,0,0.1,0,0.2,0.1c0.3,0.1,0.5,0.4,0.5,0.7h0.3c0.5,0,1,0.3,1.2,1.3
					c0.1,0.6,0.3,1,0.3,1.6c0.3,0.1,0.7,0.2,1.1,0.2c1.6,0,4.1-0.7,8.2-2.7l0.4-0.1c0.2,0,0.5,0.1,0.5,0.3c0.1,0.1,0.1,0.2,0.1,0.3
					c0,0.2-0.1,0.4-0.3,0.5c-4.1,2.1-6.9,2.8-8.8,2.8c-0.5,0-0.9-0.1-1.2-0.1c-0.3,2.7-1.7,5.3-3.4,6.9l-0.2,0.2
					c-0.9,0.8-1.7,1.4-2.6,1.6c-0.3,0.1-0.7,0.2-1,0.2C175.3,114.5,174.7,114.3,174.3,113.9L174.3,113.9z M177,112.7
					c0.4-0.1,0.9-0.4,1.5-0.9c1.6-1.6,3-4,3.1-6.6c-0.4-0.2-0.7-0.6-0.9-0.8c-0.3-0.4-0.3-0.9-0.3-1.3v-0.3c0-0.2,0.1-0.4,0.1-0.6
					h-0.3c-0.6,0-1.3,0.5-1.9,1.4c-0.9,1-1.6,2.6-2,4.3l-0.3,1.1c-0.1,0.7-0.1,1.3-0.1,1.9c0,0.6,0.1,1,0.2,1.4
					c0.1,0.3,0.2,0.5,0.3,0.6l0.3,0.1L177,112.7L177,112.7z"/>
				<path class="st0" d="M190.2,117.7c-0.4-0.1-0.6-0.5-0.6-1v-0.2c0.1-0.4,0.2-1,0.5-1.7c0.8-2.2,2.5-5.5,3.4-7.3
					c0.6-1.2,0.9-1.9,0.9-2.5c0-1-0.7-1.5-1.4-1.9c-0.7-0.5-1.5-0.9-1.5-1.8c0-0.4,0.3-1,0.8-1.8l0.1-0.1l0.4-0.5
					c0.2-0.1,0.5-0.2,0.7-0.2c0.1,0,0.4,0.1,0.4,0.1c0.2,0.1,0.3,0.2,0.3,0.3l0.1,0.3c0,0.2-0.1,0.4-0.2,0.6
					c-0.4,0.5-0.5,0.9-0.5,1.2c0,0.5,0.5,0.8,0.9,1.1c0.9,0.6,1.8,1.2,1.8,2.6c0,0.8-0.3,1.8-1.1,3.2c-0.7,1.4-2.1,3.8-2.9,5.7
					c-0.6,1.4-0.9,2.2-1,2.5c1.3-0.9,3.8-4,6.7-7.5c1.9-2.5,3.9-5,5.6-6.8c0.1-0.1,0.3-0.2,0.5-0.2l0.3,0.1c0.1,0.1,0.2,0.2,0.2,0.4
					s-0.1,0.3-0.1,0.4c-1.7,1.9-3.7,4.3-5.6,6.8c-1.1,1.5-6.2,8.2-8.2,8.5C190.5,117.8,190.3,117.8,190.2,117.7L190.2,117.7z"/>
				<path class="st0" d="M218.5,113.4l-0.1-0.8c0-1.6,0.5-3.9,1.5-7.2c-2.4,3.2-6,5.2-6,5.2c-0.5,0.3-1,0.4-1.4,0.4
					c-0.7,0-1.1-0.6-1.1-1.4l0.1-0.9c0.3-1.3,1.1-3.1,2.3-4.7c1.5-2,3.5-3.6,5.6-3.6c0.5,0,0.9,0.1,1.3,0.2c0.3,0.2,0.5,0.5,0.5,0.8
					l-0.1,0.4c-0.1,0.2-0.3,0.3-0.6,0.3c-0.1,0-0.2,0-0.3-0.1c-0.2-0.1-0.4-0.2-0.7-0.2c-1.6,0-3.8,2.5-5.1,4.6
					c-0.5,0.8-0.7,1.5-1,2c-0.1,0.3-0.2,0.6-0.2,0.7c0,0.1,0,0.2,0.1,0.2h0.1l0.3-0.2c1.4-0.9,3.8-3,7.2-7.2
					c0.2-0.3,0.5-0.5,0.8-0.6l0.3-0.1l0.3,0.1c0.2,0.1,0.4,0.2,0.5,0.4l0.1,0.4l-0.1,0.4c-1.3,3.7-2.4,7.4-2.4,9.6v0.2
					c0,0.9,0.3,1.4,0.9,1.4c0.3,0,0.9-0.2,1.5-0.7c0.5-0.3,0.9-0.6,1.3-1c2.8-2.2,6.2-5.9,9.6-10.2c0.1-0.2,0.3-0.3,0.5-0.3l0.4,0.1
					c0.1,0.1,0.3,0.3,0.3,0.5s-0.1,0.3-0.1,0.4c-4.4,5.4-8.6,9.9-11.7,11.7l-1.1,0.6l-0.1,0.1c-0.6,0.3-1.2,0.3-1.6,0.3h-0.3
					C219.3,115.3,218.6,114.7,218.5,113.4L218.5,113.4z"/>
				<path class="st0" d="M232.1,112.4c0-1.8,0.2-4.1,0.7-6.9c0.2-1.1,0.7-3.4,0.7-3.4c1-4.6,2.6-10,4.4-15c2-5.4,4.4-10.5,6.9-14
					c1.9-2.8,4-4.4,5.5-4.9c0.4-0.1,0.7-0.2,1.1-0.2s0.7,0.1,0.9,0.2c0.3,0.1,0.6,0.4,0.8,0.7h0.1c0.1,0.2,0.2,0.4,0.3,0.7l0.1,0.9
					c0,1.4-0.6,3.4-1.9,5.9c-1.9,3.7-5.2,9-8.3,13.9c-3.1,4.8-6.1,9.1-7.7,11.2c-0.4,1.5-0.7,2.9-0.9,4.3c-0.5,2.6-0.7,4.6-0.7,6.2
					c0,2.4,0.5,3.7,1.3,4.2c0.3,0.1,0.5,0.2,0.8,0.2c1.5,0,3.7-1.3,6.2-3.2c3.6-3,7.8-7.3,11.3-11.1c0.1-0.1,0.3-0.2,0.5-0.2
					c0.1,0,0.3,0.1,0.4,0.2c0.2,0.1,0.3,0.3,0.3,0.5c0,0.1-0.1,0.3-0.1,0.4c-3.6,3.8-11.5,11.2-11.5,11.2c-1.6,1.3-3.1,2.4-4.5,3.1
					c-1.3,0.7-2.5,1-3.4,1C233.3,118.2,232.1,116.5,232.1,112.4L232.1,112.4z M242.3,89.6c3.1-4.9,6.4-10.1,8.3-13.8
					c1.3-2.4,1.7-4.2,1.7-5.3l-0.1-0.7c-0.1-0.3-0.3-0.4-0.5-0.4l-0.5,0.1c-0.5,0.1-1,0.4-1.6,0.9c-0.9,0.7-1.9,1.9-3,3.3
					c-2.4,3.4-4.8,8.4-6.8,13.8c-1.3,3.5-2.4,7.2-3.4,10.6C238.2,95.8,240.2,92.8,242.3,89.6L242.3,89.6z"/>
				<path class="st0" d="M252,112.4c0-1.8,0.2-4.1,0.7-6.9c0.2-1.1,0.7-3.4,0.7-3.4c1-4.6,2.6-10,4.4-15c2-5.4,4.4-10.5,6.9-14
					c1.9-2.8,4-4.4,5.5-4.9c0.4-0.1,0.7-0.2,1.1-0.2s0.7,0.1,0.9,0.2c0.3,0.1,0.6,0.4,0.8,0.7h0.1c0.1,0.2,0.2,0.4,0.3,0.7l0.1,0.9
					c0,1.4-0.6,3.4-1.9,5.9c-1.9,3.7-5.2,9-8.3,13.9c-3.1,4.8-6.1,9.1-7.7,11.2c-0.4,1.5-0.7,2.9-0.9,4.3c-0.5,2.6-0.7,4.6-0.7,6.2
					c0,2.4,0.5,3.7,1.3,4.2c0.3,0.1,0.5,0.2,0.8,0.2c1.5,0,3.7-1.3,6.2-3.2c3.6-3,7.8-7.3,11.3-11.1c0.1-0.1,0.3-0.2,0.5-0.2
					c0.1,0,0.3,0.1,0.4,0.2c0.2,0.1,0.3,0.3,0.3,0.5c0,0.1-0.1,0.3-0.1,0.4c-3.6,3.8-11.5,11.2-11.5,11.2c-1.6,1.3-3.1,2.4-4.5,3.1
					c-1.3,0.7-2.5,1-3.4,1C253.2,118.2,252,116.5,252,112.4L252,112.4z M262.1,89.6c3.1-4.9,6.4-10.1,8.3-13.8
					c1.3-2.4,1.7-4.2,1.7-5.3l-0.1-0.7c-0.1-0.3-0.3-0.4-0.5-0.4l-0.5,0.1c-0.5,0.1-1,0.4-1.6,0.9c-0.9,0.7-1.9,1.9-3,3.3
					c-2.4,3.4-4.8,8.4-6.8,13.8c-1.3,3.5-2.4,7.2-3.4,10.6C258,95.8,260,92.8,262.1,89.6z"/>
			</g>
			<path class="st1" d="M278.9,41.1c-0.1,0.2-0.2,0.4-0.3,0.6c-0.3,0.6-0.4,1.1,0,1.5l0.1,0.1c1.5,1.3,9.2-1.3,11.1-1.9
				c0.1,0,0.2,0,0.2,0c0,0,0.1,0.2,0.1,0.3c0,0.1,0,0.2-0.1,0.3c0,0.1-0.1,0.2-0.2,0.2c-1.7,0.6-9.8,3.4-11.9,1.7
				c-0.3-0.2-0.5-0.5-0.5-0.9c-0.1-0.5,0.1-1,0.4-1.6L278.9,41.1L278.9,41.1z"/>
		</g>
	</g>
</g>
</svg>
