<svg version="1.1" id="Layer_2_00000057843244254788144430000014295204374930857367_" xmlns="http://www.w3.org/2000/svg" xmlns:xlink="http://www.w3.org/1999/xlink" x="0px" y="0px" viewBox="0 0 558.5 84.5" style="enable-background:new 0 0 558.5 84.5;" xml:space="preserve"><style type="text/css">.st0{fill:#4D4D4F;stroke:#4D4D4F;stroke-width:0.5;stroke-miterlimit:10;}.st1{fill:#4D4D4F;stroke:#4D4D4F;stroke-miterlimit:10;}
</style><g id="Layer_1-2"><g><path class="st0" d="M11.8,44.1c0-1.9,0.2-3.8,0.6-5.8c-3.4,3.7-5.8,6-7.3,6.9c-0.7,0.5-1.5,0.8-2.3,0.8s-1.2-0.6-1.2-1.7 c0-1.8,0.9-3.9,2.8-6.5c2.1-2.8,4.3-4.2,6.4-4.2c1.1,0,1.9,0.3,2.5,0.8c1.8-6.8,4.2-13.5,7.3-20c3.5-7.5,6.6-11.2,9.5-11.2 c1.5,0,2.4,1.1,2.4,3.2c0,1.9-0.7,4.3-2.1,7.2c-1.8,3.6-4,7.2-6.7,11c-3.5,4.8-6.4,8.5-8.6,11.1c-0.9,3.5-1.4,6.4-1.4,8.7 c0,2.4,0.7,3.6,1.9,3.6c0.6,0,1.2-0.2,2-0.5c2.9-1.4,7.2-5.2,13-11.4c0.1-0.2,0.3-0.2,0.5-0.2c0.4,0,0.7,0.2,0.7,0.5 c0,0.2-0.1,0.3-0.2,0.5c-3.4,3.7-6.3,6.5-8.6,8.5c0,0,0,0-0.1,0c-3.2,2.6-5.8,3.9-7.6,3.9C12.9,49.1,11.8,47.4,11.8,44.1 L11.8,44.1z M13,35.6c-0.4,0-0.7,0-0.9-0.2c-0.3-0.1-0.6-0.2-0.9-0.2c-0.9,0-1.8,0.4-2.8,1.3c-1.3,1.2-2.5,2.6-3.4,4.1 c-0.9,1.6-1.4,2.7-1.4,3.5v0.2c0,0,0.1,0,0.1,0C4.9,44.3,7.9,41.4,13,35.6L13,35.6z M29.1,13c1.3-2.8,2.1-5,2.1-6.7 c0-0.8-0.1-1.4-0.4-1.7c-0.1,0-0.1,0-0.2,0c-0.1-0.1-0.1-0.1-0.3-0.1c-1.2,0-2.8,1.7-4.8,5c-1.9,3.2-3.5,6.3-4.6,9.3 c-1.9,4.6-3.6,9.2-5,13.7C21.8,25.2,26.2,18.7,29.1,13L29.1,13z"/><path class="st0" d="M27.2,47.1c-0.7-0.5-1-1.3-1.1-2.3v-0.4c0-2.2,1.3-5.2,3.1-7.2c2-2.2,3.5-3.1,4.6-3.2H34 c1.1,0,1.7,0.7,1.8,1.6v0.5c-0.1,0.7-0.5,1.5-1.1,2.1c-0.8,0.9-2.1,1.5-3.7,1.5c-0.4,0-0.8,0-1.3-0.1c-0.9,1.6-1.6,3.3-1.7,4.6 v0.4c0,0.4,0.1,0.8,0.2,1.1c0.2,0.3,0.5,0.4,0.9,0.5h0.1c0.9,0,2.2-0.4,3.9-1.5l0.2-0.1c2.5-1.6,5.8-4.3,10.1-8.7 c0.1-0.2,0.3-0.2,0.5-0.2c0.1,0,0.3,0,0.4,0.1c0.1,0.2,0.2,0.3,0.2,0.5s-0.1,0.3-0.1,0.4c-4.3,4.4-7.8,7.3-10.4,8.9L33.7,46 c-1.4,0.9-2.6,1.3-3.5,1.5c-0.4,0.1-0.8,0.2-1.1,0.2C28.3,47.7,27.7,47.5,27.2,47.1z M33.7,37.5c0.5-0.4,0.7-1,0.7-1.5v-0.2 c0-0.2-0.1-0.3-0.3-0.3l-0.3,0c-0.6,0.2-1.5,0.9-2.7,2.2l-0.7,0.8l0.5,0C32.3,38.6,33.2,38.1,33.7,37.5L33.7,37.5z"/><path class="st0" d="M41.8,46.5c0-1.8,0.2-4.1,0.7-6.9c0.2-1.1,0.7-3.4,0.7-3.4c1-4.6,2.5-10,4.4-15c2-5.4,4.4-10.5,6.9-14 c1.9-2.8,4-4.4,5.5-4.9C60.5,2.1,60.8,2,61.1,2s0.7,0,0.9,0.2c0.3,0.1,0.6,0.4,0.8,0.7H63c0.1,0.2,0.2,0.4,0.3,0.7l0.1,0.9 c0,1.4-0.6,3.4-1.9,6c-1.9,3.7-5.2,9-8.3,13.9c-3.1,4.8-6.1,9.1-7.7,11.2c-0.4,1.5-0.7,3-0.9,4.3c-0.5,2.6-0.7,4.6-0.7,6.2 c0,2.4,0.5,3.7,1.3,4.2c0.3,0.1,0.5,0.2,0.8,0.2c1.5,0,3.7-1.3,6.2-3.2c3.6-3,7.8-7.3,11.3-11.1c0.1-0.1,0.3-0.2,0.5-0.2 c0.1,0,0.3,0,0.4,0.2c0.2,0.1,0.3,0.3,0.3,0.5c0,0.1-0.1,0.3-0.1,0.4C60.9,40.6,53,48.1,53,48.1c-1.6,1.3-3.2,2.4-4.5,3.1 c-1.3,0.7-2.5,1-3.4,1C43,52.3,41.8,50.6,41.8,46.5L41.8,46.5z M51.9,23.7c3.2-4.9,6.4-10.1,8.3-13.8C61.5,7.6,62,5.8,62,4.6 l-0.1-0.7c-0.1-0.3-0.3-0.4-0.5-0.4l-0.5,0.1c-0.5,0.1-1,0.4-1.6,0.9c-0.9,0.7-1.9,1.9-3,3.3c-2.4,3.4-4.8,8.4-6.8,13.8 c-1.3,3.5-2.4,7.1-3.3,10.6C47.8,29.9,49.8,26.9,51.9,23.7L51.9,23.7z"/><path class="st0" d="M63.9,35.1c0.2-0.1,0.4-0.2,0.6-0.2l0.1,0c0.3,0,0.5,0.2,0.7,0.5c0.1,0.1,0.1,0.2,0.1,0.4v0.2 c0,0.1,0,0.2-0.1,0.3c-1.2,4-1.8,6.9-1.8,8.7l0.1,0.4c0,0.4,0.1,0.5,0.4,0.5c0.3,0,0.9-0.3,1.5-0.8c1-0.8,2.1-1.9,3.2-3.2 c1.1-1.3,2.1-2.4,2.9-3.5c0.1-0.2,0.4-0.4,0.8-0.9c0.6-0.6,0.9-1,1.1-1.2c0.5-0.4,0.9-0.7,1.5-0.7c0.2,0,0.3,0,0.5,0.2 c0.1,0.2,0.2,0.3,0.2,0.5c-0.1,0.2-0.1,0.3-0.3,0.5c-0.1,0-0.2,0.1-0.3,0.1H75l-0.1,0c0,0-0.4,0.5-1.3,1.4 c-0.3,0.3-0.5,0.5-0.5,0.7c-0.9,1.2-1.9,2.5-3,3.7c-1.1,1.3-2.3,2.5-3.4,3.4c-0.6,0.4-1.1,0.7-1.5,0.9c-0.7,0.4-1.3,0.7-1.8,0.7 c-0.2,0-0.3,0-0.5,0c-0.9-0.1-1.3-1.1-1.3-3v-0.2c0-1.8,0.6-4.7,1.7-8.7c0,0,0-0.1,0.1-0.2C63.6,35.5,63.7,35.3,63.9,35.1 L63.9,35.1z M66.7,30.7v0.2c0,0.2,0,0.3-0.1,0.4c0,0-0.1,0.1-0.1,0.1v0.2c0,0.2-0.1,0.3-0.3,0.5c-0.1,0.2-0.3,0.2-0.5,0.2 s-0.3,0-0.5-0.2c-0.5-0.4-0.7-0.7-0.7-1v-0.3c0-0.2,0.1-0.3,0.2-0.4c0.2-0.2,0.4-0.3,0.6-0.3c0.3,0,0.7,0,0.9,0.2 C66.5,30.4,66.6,30.5,66.7,30.7L66.7,30.7z"/><path class="st0" d="M70.9,49c-0.5-0.4-0.7-1.2-0.7-2.1c0-2.1,1.2-5.1,2.9-7.8c2.2-3.8,5.4-7.1,7.6-7.1h0.2 c1.3,0.2,2.2,1.5,2.2,4.4c0,1-0.1,2.1-0.3,3.5c0,0.4-0.3,0.7-0.5,0.8c0,0,0,0-0.1,0l-0.3,0h-0.2c-0.2,0-0.4-0.1-0.5-0.2 c-0.3-0.3-0.5-0.7-0.5-1.4c0-0.3,0.2-0.5,0.5-0.6c0.2-1.2,0.3-2.1,0.3-2.8c0-1.4-0.3-2.1-0.8-2.1h-0.1c-1.1,0-2.9,1.7-4.6,4 c-1.9,2.5-3.6,5.7-4,8c-0.1,0.3-0.1,0.7-0.1,0.9c0,0.9,0.3,1.6,1.3,1.7h0.3c3.8,0,15.3-9.9,18.2-12.4c0.1-0.1,0.3-0.2,0.5-0.2 c0.1,0,0.3,0,0.5,0.2c0.1,0.1,0.2,0.3,0.2,0.4c0,0.1-0.1,0.3-0.2,0.4C89.9,39,77.8,49.6,72.5,49.6C71.9,49.6,71.3,49.4,70.9,49 L70.9,49z"/><path class="st0" d="M92,35.1c0.2-0.1,0.4-0.2,0.6-0.2l0.1,0c0.3,0,0.5,0.2,0.7,0.5c0.1,0.1,0.1,0.2,0.1,0.4v0.2 c0,0.1,0,0.2-0.1,0.3c-1.2,4-1.8,6.9-1.8,8.7l0.1,0.4c0,0.4,0.1,0.5,0.4,0.5c0.3,0,0.9-0.3,1.5-0.8c1-0.8,2.1-1.9,3.2-3.2 c1.1-1.3,2.1-2.4,2.9-3.5c0.1-0.2,0.4-0.4,0.8-0.9c0.6-0.6,0.9-1,1.1-1.2c0.5-0.4,0.9-0.7,1.5-0.7c0.2,0,0.3,0,0.5,0.2 c0.1,0.2,0.2,0.3,0.2,0.5c-0.1,0.2-0.1,0.3-0.3,0.5c-0.1,0-0.2,0.1-0.3,0.1h-0.1l-0.1,0c0,0-0.4,0.5-1.3,1.4 c-0.3,0.3-0.5,0.5-0.5,0.7c-0.9,1.2-1.9,2.5-3,3.7c-1.1,1.3-2.3,2.5-3.4,3.4c-0.6,0.4-1.1,0.7-1.5,0.9C92.6,47.7,92,48,91.4,48 c-0.2,0-0.3,0-0.5,0c-0.9-0.1-1.3-1.1-1.3-3v-0.2c0-1.8,0.6-4.7,1.7-8.7c0,0,0-0.1,0.1-0.2C91.6,35.5,91.8,35.3,92,35.1L92,35.1z  M94.8,30.7v0.2c0,0.2,0,0.3-0.1,0.4c0,0-0.1,0.1-0.1,0.1v0.2c0,0.2-0.1,0.3-0.3,0.5c-0.1,0.2-0.3,0.2-0.5,0.2s-0.3,0-0.5-0.2 c-0.5-0.4-0.7-0.7-0.7-1v-0.3c0-0.2,0.1-0.3,0.2-0.4c0.2-0.2,0.4-0.3,0.6-0.3c0.3,0,0.7,0,0.9,0.2C94.6,30.4,94.7,30.5,94.8,30.7 L94.8,30.7z"/><path class="st0" d="M99.7,48c-0.5-0.5-0.9-1.4-0.9-2.7c0-0.5,0.1-1.2,0.2-1.9c0.1-0.4,0.1-0.8,0.3-1.2c0.5-1.9,1.3-3.8,2.5-5.1 c1-1.3,2.3-2.2,3.6-2.2l0.5,0c0.1,0,0.1,0,0.2,0c0.3,0,0.5,0.4,0.5,0.7h0.3c0.5,0,1,0.3,1.2,1.3c0.1,0.5,0.3,1,0.3,1.6 c0.3,0.1,0.7,0.2,1.1,0.2c1.6,0,4.2-0.7,8.2-2.7l0.4-0.1c0.2,0,0.5,0.1,0.5,0.3c0.1,0.1,0.1,0.2,0.1,0.3c0,0.2-0.1,0.4-0.3,0.5 c-4.1,2.1-6.9,2.8-8.8,2.8c-0.5,0-0.9,0-1.2-0.1c-0.3,2.7-1.7,5.3-3.3,6.9l-0.2,0.2c-0.9,0.8-1.7,1.4-2.6,1.6 c-0.3,0.1-0.7,0.2-1,0.2C100.6,48.6,100.1,48.4,99.7,48L99.7,48z M102.4,46.8c0.4-0.1,0.9-0.4,1.5-0.9c1.6-1.6,3-4,3.1-6.6 c-0.4-0.2-0.7-0.5-0.9-0.8c-0.3-0.4-0.3-0.9-0.3-1.3v-0.3c0-0.2,0.1-0.4,0.1-0.6h-0.3c-0.6,0-1.3,0.5-1.9,1.4 c-0.9,1-1.6,2.6-2,4.3l-0.3,1.1c-0.1,0.7-0.1,1.3-0.1,1.9c0,0.6,0.1,1,0.2,1.4c0.1,0.3,0.2,0.5,0.3,0.5l0.3,0.1L102.4,46.8 L102.4,46.8z"/><path class="st0" d="M123.3,46.9l-0.1-1c0-1.2,0.3-2.9,0.9-5.2c-1.1,1.5-2.1,2.7-3,3.5l-0.1,0.2c-1.1,1.1-2,1.8-2.8,2.1 c-0.5,0.2-0.9,0.3-1.3,0.3c-0.6,0-1.1-0.3-1.5-0.8c-0.3-0.5-0.5-1.4-0.5-2.3v-0.4c0.1-2.7,1.6-6.6,3.4-8.1 c0.3-0.2,0.7-0.4,1.1-0.5c0.3,0,0.6,0,0.9,0.2l0.1,0l0.1,0.1c0.1,0,0.1,0,0.1,0c0.1,0.1,0.1,0.2,0.1,0.4s-0.1,0.4-0.3,0.5 c-1.7,1.1-3.2,4.6-3.3,7v0.5c0,0.5,0.1,0.9,0.1,1.2c0.1,0.2,0.2,0.3,0.4,0.3h0.1c0.5,0,1.3-0.5,2.4-1.5v0c1.4-1.4,3.1-3.5,5.2-6.7 v0c0.2-0.2,0.5-0.4,0.7-0.5c0.2,0,0.3,0,0.5,0c0.3,0.1,0.5,0.2,0.5,0.4l0.1,0.1c0,0.2,0,0.4-0.1,0.7c-1.1,3.8-1.9,6.8-1.9,8.6V46 c0.1,0.7,0.3,1,0.7,1c0.3,0,0.9-0.2,1.4-0.6c3-2.1,7-6.9,9.7-10.4c0.1-0.2,0.3-0.3,0.6-0.3l0.3,0.1c0.2,0.1,0.3,0.3,0.3,0.5 l-0.1,0.3c-2.7,3.5-6.8,8.5-9.9,10.7c-1.1,0.8-2.1,1.3-2.9,1.3C124.2,48.7,123.4,48.2,123.3,46.9L123.3,46.9z"/><path class="st0" d="M132,55.2c-0.9,0-1.8-0.4-2.1-1.2c-0.1-0.3-0.2-0.7-0.2-1.2c0-0.9,0.3-2.1,1.2-3.6h0.1L131,49 c1.3-2.2,3.6-4.4,6.1-6.4l-0.3-1.3c-0.3-1.3-0.5-2.4-0.5-3.4v-0.3c0-2.1,0.8-2.8,1.5-2.8c0.6,0,1.1,0.4,1.1,0.9 c0,0.2-0.1,0.3-0.3,0.4c-0.3,0.3-0.5,0.7-0.5,1.3v0.3c0,0.9,0.2,2,0.5,3.2l0.1,0.4c3.1-2.2,5.2-3.5,8-5.3l0.3-0.1 c0.3,0,0.5,0.1,0.6,0.3c0.1,0.1,0.1,0.2,0.1,0.4s-0.1,0.4-0.3,0.5l-1,0.6c-2.3,1.5-5,3.2-7.5,5.1c0.1,0.7,0.1,1.4,0.1,2.1 c0,4.1-1.7,7-3.6,8.7c-1.1,0.9-2.3,1.5-3.3,1.6L132,55.2L132,55.2z M134.5,52.6c1.5-1.4,2.8-3.9,2.8-7.5v-1 c-2.2,1.8-4,3.7-5.1,5.5c-0.1,0.2-0.2,0.2-0.2,0.3c-0.7,1.3-1,2.2-1,2.9l0.1,0.7c0.1,0.3,0.4,0.4,0.8,0.4h0.3 C132.9,53.8,133.7,53.3,134.5,52.6L134.5,52.6z"/><path class="st0" d="M168.2,39.3c-0.1,0-0.1,0.2-0.2,0.2c-0.2,0.2-0.4,0.4-0.6,0.7c-0.3,0.3-0.6,0.6-0.9,0.9 c-2.6,2.8-4.5,4.3-5.6,4.4c-0.3,0-0.6,0.1-0.8,0.1c-0.8,0-1.2-0.4-1.2-1.3v-0.2c0-0.3,0.1-0.7,0.1-1.2c0.3-1.5,1.1-3.1,2.4-4.8 c0.9-1.1,1.8-2,2.8-2.8s2.1-1.2,3.2-1.2c0.5,0,0.9,0.1,1.4,0.3c0.6,0.2,0.9,0.5,0.9,1c0,0.2-0.1,0.3-0.1,0.4l1-1h0.1v0h0.1 c0.1-0.1,0.1-0.2,0.2-0.2c1.2-1,2.2-1.6,3.1-1.6h0.2c0.5,0,1,0.3,1.3,0.9c0.3,0.5,0.5,1.4,0.5,2.6c0,0.7-0.1,1.5-0.2,2.4l-0.3,1.6 l-0.3,1.8c2.5-2.1,5.2-4.3,8.1-6.4c0.1-0.1,0.3-0.2,0.4-0.2c0.2,0,0.3,0,0.5,0.2c0.1,0.1,0.1,0.2,0.1,0.4s-0.1,0.3-0.3,0.5 c-3.4,2.5-6.4,5-9.2,7.4c-1.7,9.9-3.8,17.7-6.3,23.5s-4.9,9.8-7.4,12.1c-1.9,1.9-3.8,2.8-5.3,2.8c-0.7,0-1.3-0.2-1.9-0.6 c-1.3-0.9-2-2.6-2-5c0-0.8,0.1-1.8,0.3-2.8c0.5-3.6,2.4-7.9,5.7-13s8.3-10.9,15.1-17c0.3-1.8,0.6-3.5,0.9-5.5 c0.1-1,0.2-1.9,0.2-2.5c0-1-0.1-1.6-0.5-1.7c0,0-0.1,0-0.1,0c-0.4,0-1.1,0.4-2,1.2v0h-0.1C170.4,36.9,169.3,38.1,168.2,39.3 L168.2,39.3z M163.4,74.4c3.4-5.2,6.4-13.7,8.8-25.5c0.2-0.8,0.4-1.7,0.5-2.6c-6.2,5.8-10.8,11.2-13.8,16c-3,4.9-4.8,8.9-5.3,12.2 c-0.2,1-0.3,2-0.3,2.8c0,2,0.5,3.3,1.5,3.9c0.3,0.2,0.5,0.3,0.8,0.3c0.1,0,0.2,0,0.3-0.1C158.1,81.3,160.5,78.9,163.4,74.4 L163.4,74.4z M167.7,35.8c-0.9,0-1.9,0.5-2.9,1.6c-1.1,1-2,2.2-2.8,3.4c-0.5,0.8-0.9,1.5-1.1,2.2c-0.1,0.4-0.1,0.7-0.1,0.9v0.2 c0,0,0,0,0.1,0c0.2,0,0.5-0.2,1.1-0.7c0.5-0.4,1-0.9,1.6-1.4c0.5-0.5,1-0.9,1.4-1.3c0.3-0.3,0.5-0.4,0.5-0.5 c0.5-0.5,0.9-1,1.4-1.6c0.3-0.3,0.6-0.6,0.9-0.9s0.5-0.7,0.9-0.9c-0.1,0-0.1,0-0.2,0c-0.1,0-0.3,0-0.3,0c-0.2-0.2-0.3-0.3-0.3-0.5 s0.1-0.3,0.1-0.4C167.9,35.8,167.8,35.8,167.7,35.8L167.7,35.8z"/><path class="st0" d="M181.6,46.5c0-1.8,0.2-4.1,0.7-6.9c0.2-1.1,0.7-3.4,0.7-3.4c1-4.6,2.6-10,4.4-15c2-5.4,4.4-10.5,6.9-14 c1.9-2.8,4-4.4,5.5-4.9c0.4-0.1,0.7-0.2,1.1-0.2s0.7,0,0.9,0.2c0.3,0.1,0.6,0.4,0.8,0.7h0.1c0.1,0.2,0.2,0.4,0.3,0.7l0.1,0.9 c0,1.4-0.6,3.4-1.9,6c-1.9,3.7-5.2,9-8.3,13.9c-3.1,4.8-6.1,9.1-7.7,11.2c-0.4,1.5-0.7,3-0.9,4.3c-0.5,2.6-0.7,4.6-0.7,6.2 c0,2.4,0.5,3.7,1.3,4.2c0.3,0.1,0.5,0.2,0.8,0.2c1.5,0,3.7-1.3,6.2-3.2c3.6-3,7.8-7.3,11.3-11.1c0.1-0.1,0.3-0.2,0.5-0.2 c0.1,0,0.3,0,0.4,0.2c0.2,0.1,0.3,0.3,0.3,0.5c0,0.1-0.1,0.3-0.1,0.4c-3.6,3.8-11.5,11.2-11.5,11.2c-1.6,1.3-3.1,2.4-4.5,3.1 c-1.3,0.7-2.5,1-3.4,1C182.8,52.3,181.6,50.6,181.6,46.5L181.6,46.5z M191.7,23.7c3.1-4.9,6.4-10.1,8.3-13.8 c1.3-2.4,1.7-4.2,1.7-5.4l-0.1-0.7c-0.1-0.3-0.3-0.4-0.5-0.4l-0.5,0.1c-0.5,0.1-1,0.4-1.6,0.9c-0.9,0.7-1.9,1.9-3,3.3 c-2.4,3.4-4.8,8.4-6.8,13.8c-1.3,3.5-2.4,7.1-3.4,10.6C187.6,29.9,189.6,26.9,191.7,23.7L191.7,23.7z"/><path class="st0" d="M208.8,46.9l-0.1-1c0-1.2,0.3-2.9,0.9-5.2c-1.1,1.5-2.1,2.7-3,3.5l-0.1,0.2c-1.1,1.1-2,1.8-2.8,2.1 c-0.5,0.2-0.9,0.3-1.3,0.3c-0.6,0-1.1-0.3-1.5-0.8c-0.3-0.5-0.5-1.4-0.5-2.3v-0.4c0.1-2.7,1.6-6.6,3.4-8.1 c0.3-0.2,0.7-0.4,1.1-0.5c0.3,0,0.6,0,0.9,0.2l0.1,0l0.1,0.1c0.1,0,0.1,0,0.1,0c0.1,0.1,0.1,0.2,0.1,0.4s-0.1,0.4-0.3,0.5 c-1.7,1.1-3.1,4.6-3.4,7v0.5c0,0.5,0.1,0.9,0.1,1.2c0.1,0.2,0.2,0.3,0.4,0.3h0.1c0.5,0,1.3-0.5,2.4-1.5v0c1.4-1.4,3.1-3.5,5.2-6.7 v0c0.2-0.2,0.5-0.4,0.7-0.5c0.2,0,0.3,0,0.5,0c0.3,0.1,0.5,0.2,0.5,0.4l0.1,0.1c0,0.2,0,0.4-0.1,0.7c-1.1,3.8-1.9,6.8-1.9,8.6V46 c0.1,0.7,0.3,1,0.7,1c0.3,0,0.9-0.2,1.4-0.6c2.9-2.1,7-6.9,9.6-10.4c0.1-0.2,0.3-0.3,0.6-0.3l0.3,0.1c0.2,0.1,0.3,0.3,0.3,0.5 l-0.1,0.3c-2.7,3.5-6.8,8.5-9.9,10.7c-1.1,0.8-2.1,1.3-2.9,1.3C209.7,48.7,209,48.2,208.8,46.9L208.8,46.9z"/><path class="st0" d="M218.5,66.7v-0.8c0-4,1.7-18.6,4.4-31.8c0.7-3.8,1.7-7.4,2.6-10.7l-16.8,0c-0.1,0.1-0.1,0.2-0.3,0.2 c-0.5,0.2-0.9,0.2-1.3,0.2c-0.3,0-0.5,0-0.7-0.2c-0.3-0.1-0.5-0.3-0.5-0.5c0-0.2,0-0.5,0.1-0.7v0c0.2-0.2,0.5-0.3,0.8-0.3h0.1 c0.5,0,1.3,0,2.4,0l7.4,0.1l9,0.2c1.1-4,2.5-7.5,3.8-9.7c0.2-0.4,0.8-1,1.4-1.1c0.3,0,0.5,0,0.7,0.1c0.2,0.1,0.3,0.3,0.4,0.6 l0.1,0.3c0,0.3-0.1,0.6-0.3,1c-0.1,0.1-0.2,0.2-0.3,0.2c-1.2,2.1-2.4,5.1-3.5,8.7h0.7c6.6,0,13.5,0.1,19,0.1c4.9,0,8.6,0,9.9-0.2 h0.1c0.3,0,0.7,0.2,0.7,0.5v0.1c0,0.3-0.3,0.5-0.6,0.6c-1.3,0.2-5.1,0.2-10.1,0.2c-6.4,0-12.9-0.1-20.2-0.1 c-1,3.4-1.9,7.3-2.8,11.2c-2.9,13.5-4.8,28.2-4.8,31.4v0.2l0.1,0.4c0,0.5-0.4,0.8-0.8,0.8S218.7,67.2,218.5,66.7L218.5,66.7z"/><path class="st0" d="M230.2,47.1c-0.7-0.5-1-1.3-1.1-2.3v-0.4c0-2.2,1.3-5.2,3.1-7.2c2-2.2,3.6-3.1,4.6-3.2h0.3 c1.1,0,1.7,0.7,1.8,1.6v0.5c-0.1,0.7-0.5,1.5-1.1,2.1c-0.8,0.9-2.1,1.5-3.8,1.5c-0.4,0-0.8,0-1.3-0.1c-0.9,1.6-1.6,3.3-1.7,4.6 v0.4c0,0.4,0.1,0.8,0.2,1.1c0.2,0.3,0.5,0.4,0.9,0.5h0.1c0.9,0,2.2-0.4,3.9-1.5l0.2-0.1c2.5-1.6,5.8-4.3,10.1-8.7 c0.1-0.2,0.3-0.2,0.5-0.2c0.1,0,0.3,0,0.4,0.1c0.1,0.2,0.2,0.3,0.2,0.5s-0.1,0.3-0.1,0.4c-4.4,4.4-7.8,7.3-10.4,8.9l-0.5,0.3 c-1.4,0.9-2.6,1.3-3.6,1.5c-0.4,0.1-0.8,0.2-1.1,0.2C231.2,47.7,230.6,47.5,230.2,47.1L230.2,47.1z M236.7,37.5 c0.5-0.4,0.7-1,0.7-1.5v-0.2c0-0.2-0.1-0.3-0.3-0.3l-0.3,0c-0.6,0.2-1.5,0.9-2.7,2.2l-0.7,0.8l0.5,0 C235.3,38.6,236.1,38.1,236.7,37.5L236.7,37.5z"/><path class="st0" d="M242.2,48.9v-0.3c0.1-0.5,0.3-1.2,0.5-2c1-3.5,3.5-9.9,4.4-11.8c0.2-0.4,0.7-0.5,1.1-0.5s0.8,0.2,0.8,0.5v0.1 l-0.1,0.3c-0.9,1.9-3.4,7.8-4.6,11.2v0.1l0.9-1.4c1.7-2.6,4.4-6.7,6.7-8.7c0.5-0.4,0.9-0.7,1.3-0.9c0.2,0,0.4-0.1,0.7-0.1 c0.2,0,0.5,0,0.7,0.2c0.3,0.2,0.6,0.5,0.7,1c0.1,0.4,0.3,1.1,0.3,1.9c0,0.5-0.1,1.2-0.1,1.9c-0.1,0.7-0.1,1.4-0.1,2 c0,2.9,0.5,4.5,1.5,5.1c0.3,0.2,0.7,0.3,1.1,0.3c1,0,2.3-0.5,3.7-1.4c3.8-2.2,8.3-6.6,12.3-10.5c0.2-0.1,0.4-0.2,0.6-0.2 c0.1,0,0.3,0,0.4,0.2c0.1,0.1,0.2,0.3,0.2,0.5c0,0.1-0.1,0.3-0.2,0.4c-4.1,3.9-8.8,8.3-12.7,10.7v0l-1.5,0.8c-1.3,0.7-2.4,1-3.4,1 c-2.2,0-3.6-1.8-3.6-6.2c0-0.8,0.1-1.5,0.1-2.4c0.1-0.9,0.1-1.6,0.1-2.1c0-1.2-0.1-1.7-0.4-1.7l-0.4,0c-0.7,0.5-1.7,1.6-2.3,2.3 c-1.7,2-3.2,4.5-4.5,6.4l-2.4,3.4c-0.3,0.4-0.5,0.6-0.8,0.7c-0.2,0.1-0.5,0.2-0.6,0.2C242.4,49.8,242.2,49.5,242.2,48.9 L242.2,48.9z"/><path class="st0" d="M295.1,66.7c-0.2-0.4-0.4-1.1-0.4-2.2V64c0-1.6,0.1-3.5,0.2-5.5c0.2-3.7,0.5-7.1,0.5-7.3l0.4-3.8 c-0.1-0.1-0.3-0.3-0.5-0.4s-0.4-0.3-0.5-0.5c-0.2-0.3-0.3-0.6-0.3-0.9c0-0.5,0.3-1.1,0.9-1.7c0.3-0.3,0.7-0.7,1.1-1 c1.9-10.5,5.6-17.8,8.4-21.3c0.9-1.3,1.8-2.1,2.5-2.5c0.5-0.2,0.8-0.3,1.1-0.3c0.5,0,0.9,0.3,1.1,0.9c0.1,0.2,0.1,0.4,0.1,0.7 c0,0.7-0.2,1.7-0.7,3c-0.1,0.4-0.5,0.5-0.9,0.5c-0.5,0-0.9-0.3-0.9-0.8l0.1-0.3c0.3-0.5,0.5-1,0.6-1.4c-0.5,0.5-1.2,1.4-2.1,2.6 l-0.2,0.3c-1.9,2.6-4,6.7-5.8,12.3c-0.5,1.6-0.9,3.2-1.3,5h0.1c3.5-2.1,8.7-4.4,12.3-5.7l0.3,0c0.3,0,0.5,0.1,0.6,0.4l0.1,0.3 c0,0.2-0.1,0.4-0.4,0.5c-3.5,1.4-8.6,3.5-12.1,5.6c-0.4,0.3-0.8,0.5-1.2,0.8c-0.2,1.3-0.5,2.5-0.6,3.9c1.8,2.1,2.4,5.1,2.4,8.2 c0,2.5-0.4,5-0.9,7c-0.5,1.6-1,2.8-1.5,3.7c-0.5,0.8-1,1.3-1.5,1.3C295.7,67.4,295.4,67.2,295.1,66.7L295.1,66.7z M296,45.2 c-0.1,0.2-0.1,0.3-0.1,0.5l0.1,0.2L296,45.2L296,45.2z M296.2,65.5c0.5-0.7,0.9-1.9,1.3-3.3c0.5-2,0.9-4.4,0.9-6.8 c0-2.2-0.3-4.5-1.3-6.2c-0.1,1.2-0.3,2.2-0.3,3.4c-0.1,0.2-0.3,3.7-0.5,7.3l-0.2,5.4c0,0.3,0,0.4,0.1,0.4L296.2,65.5L296.2,65.5z" /><path class="st0" d="M308.4,51.8c-0.4-0.1-0.6-0.5-0.6-1v-0.2c0.1-0.4,0.2-1,0.5-1.7c0.8-2.2,2.5-5.5,3.4-7.3 c0.6-1.2,0.9-1.9,0.9-2.5c0-1-0.7-1.5-1.4-1.9c-0.7-0.5-1.5-0.9-1.5-1.8c0-0.4,0.3-1,0.8-1.8l0.1-0.1l0.4-0.5 c0.2-0.1,0.5-0.2,0.7-0.2c0.1,0,0.4,0.1,0.4,0.1c0.2,0,0.3,0.2,0.3,0.3l0.1,0.3c0,0.2-0.1,0.4-0.2,0.6c-0.4,0.5-0.5,0.9-0.5,1.2 c0,0.5,0.5,0.8,0.9,1.1c0.9,0.5,1.8,1.2,1.8,2.6c0,0.8-0.3,1.8-1.1,3.2c-0.7,1.4-2.1,3.8-3,5.7c-0.6,1.4-0.9,2.2-1,2.5 c1.3-0.9,3.8-4,6.7-7.5c1.9-2.5,3.9-5,5.6-6.8c0.1-0.1,0.3-0.2,0.5-0.2l0.3,0.1c0.1,0.1,0.2,0.2,0.2,0.4s-0.1,0.3-0.1,0.4 c-1.7,1.9-3.7,4.3-5.6,6.8c-1.1,1.5-6.2,8.2-8.2,8.5C308.7,51.9,308.6,51.9,308.4,51.8L308.4,51.8z"/><path class="st0" d="M318.5,47.1c-0.7-0.5-1-1.3-1.1-2.3v-0.4c0-2.2,1.3-5.2,3.1-7.2c2-2.2,3.5-3.1,4.6-3.2h0.3 c1.1,0,1.7,0.7,1.8,1.6v0.5c-0.1,0.7-0.5,1.5-1.1,2.1c-0.8,0.9-2.1,1.5-3.8,1.5c-0.4,0-0.8,0-1.3-0.1c-0.9,1.6-1.6,3.3-1.7,4.6 v0.4c0,0.4,0.1,0.8,0.2,1.1c0.2,0.3,0.5,0.4,0.9,0.5h0.1c0.9,0,2.2-0.4,4-1.5l0.2-0.1c2.5-1.6,5.8-4.3,10.1-8.7 c0.1-0.2,0.3-0.2,0.5-0.2c0.1,0,0.3,0,0.4,0.1c0.1,0.2,0.2,0.3,0.2,0.5s-0.1,0.3-0.1,0.4c-4.4,4.4-7.8,7.3-10.4,8.9L325,46 c-1.4,0.9-2.6,1.3-3.5,1.5c-0.4,0.1-0.8,0.2-1.1,0.2C319.6,47.7,319,47.5,318.5,47.1L318.5,47.1z M325,37.5c0.5-0.4,0.7-1,0.7-1.5 v-0.2c0-0.2-0.1-0.3-0.3-0.3l-0.3,0c-0.6,0.2-1.5,0.9-2.7,2.2l-0.7,0.8l0.5,0C323.6,38.6,324.4,38.1,325,37.5L325,37.5z"/><path class="st0" d="M331.6,47.1c-0.7-0.5-1-1.3-1.1-2.3v-0.4c0-2.2,1.3-5.2,3.1-7.2c2-2.2,3.5-3.1,4.6-3.2h0.3 c1.1,0,1.7,0.7,1.8,1.6v0.5c-0.1,0.7-0.5,1.5-1.1,2.1c-0.8,0.9-2.1,1.5-3.8,1.5c-0.4,0-0.8,0-1.3-0.1c-0.9,1.6-1.6,3.3-1.7,4.6 v0.4c0,0.4,0.1,0.8,0.2,1.1c0.2,0.3,0.5,0.4,0.9,0.5h0.1c0.9,0,2.2-0.4,4-1.5l0.2-0.1c2.5-1.6,5.8-4.3,10.1-8.7 c0.1-0.2,0.3-0.2,0.5-0.2c0.1,0,0.3,0,0.4,0.1c0.1,0.2,0.2,0.3,0.2,0.5s-0.1,0.3-0.1,0.4c-4.4,4.4-7.8,7.3-10.4,8.9l-0.5,0.3 c-1.4,0.9-2.6,1.3-3.5,1.5c-0.4,0.1-0.8,0.2-1.1,0.2C332.7,47.7,332.1,47.5,331.6,47.1L331.6,47.1z M338.1,37.5 c0.5-0.4,0.7-1,0.7-1.5v-0.2c0-0.2-0.1-0.3-0.3-0.3l-0.3,0c-0.6,0.2-1.5,0.9-2.7,2.2l-0.7,0.8l0.5,0 C336.7,38.6,337.6,38.1,338.1,37.5L338.1,37.5z"/><path class="st0" d="M356.1,66.7v-0.8c0-4,1.7-18.6,4.4-31.8c0.7-3.8,1.7-7.4,2.5-10.7l-16.8,0c-0.1,0.1-0.1,0.2-0.3,0.2 c-0.5,0.2-0.9,0.2-1.3,0.2c-0.3,0-0.5,0-0.7-0.2c-0.3-0.1-0.5-0.3-0.5-0.5c0-0.2,0-0.5,0.1-0.7v0c0.2-0.2,0.5-0.3,0.8-0.3h0.1 c0.5,0,1.3,0,2.4,0l7.4,0.1l9,0.2c1.1-4,2.5-7.5,3.8-9.7c0.2-0.4,0.8-1,1.4-1.1c0.3,0,0.5,0,0.7,0.1c0.2,0.1,0.3,0.3,0.4,0.6 l0.1,0.3c0,0.3-0.1,0.6-0.3,1c-0.1,0.1-0.2,0.2-0.3,0.2c-1.2,2.1-2.3,5.1-3.5,8.7h0.7c6.6,0,13.5,0.1,19,0.1c4.9,0,6.6,0,7.9-0.2 h0.1c0.3,0,0.7,0.2,0.7,0.5v0.1c0,0.3-0.3,0.5-0.6,0.6c-1.3,0.2-3.1,0.2-8,0.2c-6.4,0-12.9-0.1-20.2-0.1c-1,3.4-1.9,7.3-2.8,11.2 c-3,13.5-4.8,28.2-4.8,31.4v0.2l0.1,0.4c0,0.5-0.4,0.8-0.8,0.8S356.3,67.2,356.1,66.7L356.1,66.7z"/><path class="st0" d="M368.9,51.8c-0.4-0.1-0.6-0.5-0.6-1v-0.2c0.1-0.4,0.2-1,0.5-1.7c0.8-2.2,2.5-5.5,3.4-7.3 c0.6-1.2,0.9-1.9,0.9-2.5c0-1-0.7-1.5-1.4-1.9c-0.7-0.5-1.5-0.9-1.5-1.8c0-0.4,0.3-1,0.8-1.8l0.1-0.1l0.4-0.5 c0.2-0.1,0.5-0.2,0.7-0.2c0.1,0,0.4,0.1,0.4,0.1c0.2,0,0.3,0.2,0.3,0.3l0.1,0.3c0,0.2-0.1,0.4-0.2,0.6c-0.4,0.5-0.5,0.9-0.5,1.2 c0,0.5,0.5,0.8,0.9,1.1c0.9,0.5,1.8,1.2,1.8,2.6c0,0.8-0.3,1.8-1.1,3.2c-0.7,1.4-2.1,3.8-3,5.7c-0.6,1.4-0.9,2.2-1,2.5 c1.3-0.9,3.8-4,6.7-7.5c1.9-2.5,3.9-5,5.6-6.8c0.1-0.1,0.3-0.2,0.5-0.2l0.3,0.1c0.1,0.1,0.2,0.2,0.2,0.4s-0.1,0.3-0.1,0.4 c-1.7,1.9-3.7,4.3-5.6,6.8c-1.1,1.5-6.2,8.2-8.2,8.5C369.2,51.9,369.1,51.9,368.9,51.8L368.9,51.8z"/><path class="st0" d="M379,47.1c-0.7-0.5-1-1.3-1.1-2.3v-0.4c0-2.2,1.3-5.2,3.1-7.2c2-2.2,3.5-3.1,4.6-3.2h0.3 c1.1,0,1.7,0.7,1.8,1.6v0.5c-0.1,0.7-0.5,1.5-1.1,2.1c-0.8,0.9-2.1,1.5-3.8,1.5c-0.4,0-0.8,0-1.3-0.1c-0.9,1.6-1.6,3.3-1.7,4.6 v0.4c0,0.4,0.1,0.8,0.2,1.1c0.2,0.3,0.5,0.4,0.9,0.5h0.1c0.9,0,2.2-0.4,4-1.5l0.2-0.1c2.5-1.6,5.8-4.3,10.1-8.7 c0.1-0.2,0.3-0.2,0.5-0.2c0.1,0,0.3,0,0.4,0.1c0.1,0.2,0.2,0.3,0.2,0.5s-0.1,0.3-0.1,0.4c-4.4,4.4-7.8,7.3-10.4,8.9l-0.5,0.3 c-1.4,0.9-2.6,1.3-3.5,1.5c-0.4,0.1-0.8,0.2-1.1,0.2C380.1,47.7,379.5,47.5,379,47.1L379,47.1z M385.5,37.5c0.5-0.4,0.7-1,0.7-1.5 v-0.2c0-0.2-0.1-0.3-0.3-0.3l-0.3,0c-0.6,0.2-1.5,0.9-2.7,2.2l-0.7,0.8l0.5,0C384.1,38.6,384.9,38.1,385.5,37.5L385.5,37.5z"/><path class="st0" d="M398.1,47.5l-0.1-0.8c0-1.6,0.5-3.9,1.5-7.2c-2.4,3.2-6,5.2-6,5.2c-0.5,0.3-1,0.4-1.4,0.4 c-0.7,0-1.1-0.5-1.1-1.4l0.1-0.9c0.3-1.3,1.1-3.1,2.3-4.7c1.5-2,3.5-3.6,5.6-3.6c0.5,0,0.9,0,1.3,0.2c0.3,0.2,0.5,0.5,0.5,0.8 l-0.1,0.4c-0.1,0.2-0.3,0.3-0.6,0.3c-0.1,0-0.2,0-0.3,0c-0.2-0.1-0.4-0.2-0.7-0.2c-1.6,0-3.8,2.5-5.1,4.6c-0.5,0.8-0.7,1.5-1,2 c-0.1,0.3-0.2,0.5-0.2,0.7c0,0.1,0,0.2,0.1,0.2h0.1l0.3-0.2c1.4-0.9,3.8-3,7.2-7.2c0.2-0.3,0.5-0.5,0.8-0.5l0.3,0l0.3,0 c0.2,0,0.4,0.2,0.5,0.4l0.1,0.4l-0.1,0.4c-1.3,3.7-2.4,7.4-2.4,9.6v0.2c0,0.9,0.3,1.4,0.9,1.4c0.3,0,0.9-0.2,1.5-0.7 c0.5-0.3,0.9-0.6,1.3-1c2.8-2.2,6.2-5.9,9.6-10.2c0.1-0.2,0.3-0.3,0.5-0.3l0.4,0.1c0.1,0.1,0.3,0.3,0.3,0.5s-0.1,0.3-0.1,0.4 c-4.4,5.4-8.6,9.9-11.7,11.7l-1.1,0.6l-0.1,0c-0.6,0.3-1.2,0.3-1.6,0.3h-0.3C398.9,49.4,398.2,48.8,398.1,47.5L398.1,47.5z"/><path class="st0" d="M409.7,66.7v-0.8c0-4,1.7-18.6,4.4-31.8c0.7-3.8,1.7-7.4,2.5-10.7l-14.8,0c-0.1,0.1-0.1,0.2-0.3,0.2 c-0.5,0.2-0.9,0.2-1.3,0.2c-0.3,0-0.5,0-0.7-0.2c-0.3-0.1-0.5-0.3-0.5-0.5c0-0.2,0-0.5,0.1-0.7v0c0.2-0.2,0.5-0.3,0.8-0.3h0.1 c0.5,0-0.7,0,0.4,0L408,22l9,0.2c1.1-4,2.5-7.5,3.8-9.7c0.2-0.4,0.8-1,1.4-1.1c0.3,0,0.5,0,0.7,0.1c0.2,0.1,0.3,0.3,0.4,0.6 l0.1,0.3c0,0.3-0.1,0.6-0.3,1c-0.1,0.1-0.2,0.2-0.3,0.2c-1.2,2.1-2.3,5.1-3.5,8.7h0.7c6.6,0,13.5,0.1,19,0.1c4.9,0,6.6,0,7.9-0.2 h0.1c0.3,0,0.7,0.2,0.7,0.5v0.1c0,0.3-0.3,0.5-0.6,0.6c-1.3,0.2-3.1,0.2-8,0.2c-6.4,0-12.9-0.1-20.2-0.1c-1,3.4-1.9,7.3-2.8,11.2 c-3,13.5-4.8,28.2-4.8,31.4v0.2l0.1,0.4c0,0.5-0.4,0.8-0.8,0.8S409.8,67.2,409.7,66.7L409.7,66.7z"/><path class="st0" d="M419.7,55.2c-0.9,0-1.8-0.4-2.1-1.2c-0.1-0.3-0.2-0.7-0.2-1.2c0-0.9,0.3-2.1,1.2-3.6h0.1l0.1-0.2 c1.3-2.2,3.5-4.4,6.1-6.4l-0.3-1.3c-0.3-1.3-0.5-2.4-0.5-3.4v-0.3c0-2.1,0.8-2.8,1.5-2.8c0.6,0,1.1,0.4,1.1,0.9 c0,0.2-0.1,0.3-0.3,0.4c-0.3,0.3-0.5,0.7-0.5,1.3v0.3c0,0.9,0.2,2,0.5,3.2l0.1,0.4c3.1-2.2,5.2-3.5,8-5.3l0.3-0.1 c0.3,0,0.5,0.1,0.6,0.3c0.1,0.1,0.1,0.2,0.1,0.4s-0.1,0.4-0.3,0.5l-1,0.6c-2.3,1.5-5,3.2-7.5,5.1c0.1,0.7,0.1,1.4,0.1,2.1 c0,4.1-1.7,7-3.5,8.7c-1.1,0.9-2.3,1.5-3.3,1.6L419.7,55.2L419.7,55.2z M422.3,52.6c1.5-1.4,2.8-3.9,2.8-7.5v-1 c-2.2,1.8-4,3.7-5.1,5.5c-0.1,0.2-0.2,0.2-0.2,0.3c-0.7,1.3-1,2.2-1,2.9l0.1,0.7c0.1,0.3,0.4,0.4,0.8,0.4h0.3 C420.7,53.8,421.5,53.3,422.3,52.6L422.3,52.6z"/><path class="st0" d="M443.6,66.7c-0.2-0.4-0.4-1.1-0.4-2.2V64c0-1.6,0.1-3.5,0.2-5.5c0.2-3.7,0.5-7.1,0.5-7.3l0.4-3.8 c-0.1-0.1-0.3-0.3-0.5-0.4s-0.4-0.3-0.5-0.5c-0.2-0.3-0.3-0.6-0.3-0.9c0-0.5,0.3-1.1,0.9-1.7c0.3-0.3,0.7-0.7,1.1-1 c1.9-10.5,5.6-17.8,8.4-21.3c0.9-1.3,1.8-2.1,2.5-2.5c0.5-0.2,0.8-0.3,1.1-0.3c0.5,0,0.9,0.3,1.1,0.9c0.1,0.2,0.1,0.4,0.1,0.7 c0,0.7-0.2,1.7-0.7,3c-0.1,0.4-0.5,0.5-0.9,0.5c-0.5,0-0.9-0.3-0.9-0.8l0.1-0.3c0.3-0.5,0.5-1,0.6-1.4c-0.5,0.5-1.2,1.4-2.1,2.6 l-0.2,0.3c-1.9,2.6-4,6.7-5.8,12.3c-0.5,1.6-0.9,3.2-1.3,5h0.1c3.5-2.1,8.7-4.4,12.3-5.7l0.3,0c0.3,0,0.5,0.1,0.6,0.4l0.1,0.3 c0,0.2-0.1,0.4-0.4,0.5c-3.5,1.4-8.6,3.5-12.1,5.6c-0.4,0.3-0.8,0.5-1.2,0.8c-0.2,1.3-0.5,2.5-0.6,3.9c1.8,2.1,2.4,5.1,2.4,8.2 c0,2.5-0.4,5-0.9,7c-0.5,1.6-1,2.8-1.5,3.7c-0.5,0.8-1,1.3-1.5,1.3C444.2,67.4,443.9,67.2,443.6,66.7L443.6,66.7z M444.6,45.2 c-0.1,0.2-0.1,0.3-0.1,0.5l0.1,0.2L444.6,45.2L444.6,45.2z M444.8,65.5c0.5-0.7,0.9-1.9,1.3-3.3c0.5-2,0.9-4.4,0.9-6.8 c0-2.2-0.3-4.5-1.3-6.2c-0.1,1.2-0.3,2.2-0.3,3.4c-0.1,0.2-0.3,3.7-0.5,7.3l-0.2,5.4c0,0.3,0,0.4,0.1,0.4L444.8,65.5L444.8,65.5z" /><path class="st0" d="M455.7,48c-0.5-0.5-0.9-1.4-0.9-2.7c0-0.5,0.1-1.2,0.2-1.9c0.1-0.4,0.1-0.8,0.3-1.2c0.5-1.9,1.3-3.8,2.5-5.1 c1-1.3,2.3-2.2,3.6-2.2l0.5,0c0.1,0,0.1,0,0.2,0c0.3,0,0.5,0.4,0.5,0.7h0.3c0.5,0,1,0.3,1.2,1.3c0.1,0.5,0.3,1,0.3,1.6 c0.3,0.1,0.7,0.2,1.1,0.2c1.6,0,4.1-0.7,8.2-2.7l0.4-0.1c0.2,0,0.5,0.1,0.5,0.3c0.1,0.1,0.1,0.2,0.1,0.3c0,0.2-0.1,0.4-0.3,0.5 c-4.1,2.1-6.9,2.8-8.8,2.8c-0.5,0-0.9,0-1.2-0.1c-0.3,2.7-1.7,5.3-3.4,6.9l-0.2,0.2c-0.9,0.8-1.7,1.4-2.5,1.6 c-0.3,0.1-0.7,0.2-1,0.2C456.6,48.6,456.1,48.4,455.7,48L455.7,48z M458.4,46.8c0.4-0.1,0.9-0.4,1.5-0.9c1.6-1.6,3-4,3.1-6.6 c-0.4-0.2-0.7-0.5-0.9-0.8c-0.3-0.4-0.3-0.9-0.3-1.3v-0.3c0-0.2,0.1-0.4,0.1-0.6h-0.3c-0.6,0-1.3,0.5-1.9,1.4 c-0.9,1-1.6,2.6-2,4.3l-0.3,1.1c-0.1,0.7-0.1,1.3-0.1,1.9c0,0.6,0.1,1,0.2,1.4c0.1,0.3,0.2,0.5,0.3,0.5l0.3,0.1L458.4,46.8 L458.4,46.8z"/><path class="st0" d="M471.6,51.8c-0.4-0.1-0.6-0.5-0.6-1v-0.2c0.1-0.4,0.2-1,0.5-1.7c0.8-2.2,2.5-5.5,3.4-7.3 c0.6-1.2,0.9-1.9,0.9-2.5c0-1-0.7-1.5-1.4-1.9c-0.7-0.5-1.5-0.9-1.5-1.8c0-0.4,0.3-1,0.8-1.8l0.1-0.1l0.4-0.5 c0.2-0.1,0.5-0.2,0.7-0.2c0.1,0,0.4,0.1,0.4,0.1c0.2,0,0.3,0.2,0.3,0.3l0.1,0.3c0,0.2-0.1,0.4-0.2,0.6c-0.4,0.5-0.5,0.9-0.5,1.2 c0,0.5,0.5,0.8,0.9,1.1c0.9,0.5,1.8,1.2,1.8,2.6c0,0.8-0.3,1.8-1.1,3.2c-0.7,1.4-2.1,3.8-3,5.7c-0.6,1.4-0.9,2.2-1,2.5 c1.3-0.9,3.8-4,6.7-7.5c1.9-2.5,3.9-5,5.6-6.8c0.1-0.1,0.3-0.2,0.5-0.2l0.3,0.1c0.1,0.1,0.2,0.2,0.2,0.4s-0.1,0.3-0.1,0.4 c-1.7,1.9-3.7,4.3-5.6,6.8c-1.1,1.5-6.2,8.2-8.2,8.5C471.8,51.9,471.7,51.9,471.6,51.8L471.6,51.8z"/><path class="st0" d="M499.8,47.5l-0.1-0.8c0-1.6,0.5-3.9,1.5-7.2c-2.4,3.2-6,5.2-6,5.2c-0.5,0.3-1,0.4-1.4,0.4 c-0.7,0-1.1-0.5-1.1-1.4l0.1-0.9c0.3-1.3,1.1-3.1,2.3-4.7c1.5-2,3.5-3.6,5.6-3.6c0.5,0,0.9,0,1.3,0.2c0.3,0.2,0.5,0.5,0.5,0.8 l-0.1,0.4c-0.1,0.2-0.3,0.3-0.6,0.3c-0.1,0-0.2,0-0.3,0c-0.2-0.1-0.4-0.2-0.7-0.2c-1.6,0-3.8,2.5-5.1,4.6c-0.5,0.8-0.7,1.5-1,2 c-0.1,0.3-0.2,0.5-0.2,0.7c0,0.1,0,0.2,0.1,0.2h0.1l0.3-0.2c1.4-0.9,3.8-3,7.2-7.2c0.2-0.3,0.5-0.5,0.8-0.5l0.3,0l0.3,0 c0.2,0,0.4,0.2,0.5,0.4l0.1,0.4l-0.1,0.4c-1.3,3.7-2.4,7.4-2.4,9.6v0.2c0,0.9,0.3,1.4,0.9,1.4c0.3,0,0.9-0.2,1.5-0.7 c0.5-0.3,0.9-0.6,1.3-1c2.8-2.2,6.2-5.9,9.6-10.2c0.1-0.2,0.3-0.3,0.5-0.3l0.4,0.1c0.1,0.1,0.3,0.3,0.3,0.5s-0.1,0.3-0.1,0.4 c-4.4,5.4-8.6,9.9-11.7,11.7l-1.1,0.6l-0.1,0c-0.6,0.3-1.2,0.3-1.6,0.3h-0.3C500.7,49.4,500,48.8,499.8,47.5L499.8,47.5z"/><path class="st0" d="M513.5,46.5c0-1.8,0.2-4.1,0.7-6.9c0.2-1.1,0.7-3.4,0.7-3.4c1-4.6,2.5-10,4.4-15c2-5.4,4.4-10.5,6.9-14 c1.9-2.8,4-4.4,5.5-4.9c0.4-0.1,0.7-0.2,1.1-0.2s0.7,0,0.9,0.2c0.3,0.1,0.6,0.4,0.8,0.7h0.1c0.1,0.2,0.2,0.4,0.3,0.7l0.1,0.9 c0,1.4-0.6,3.4-1.9,6c-1.9,3.7-5.2,9-8.3,13.9c-3.1,4.8-6.1,9.1-7.7,11.2c-0.4,1.5-0.7,3-0.9,4.3c-0.5,2.6-0.7,4.6-0.7,6.2 c0,2.4,0.5,3.7,1.3,4.2c0.3,0.1,0.5,0.2,0.8,0.2c1.5,0,3.7-1.3,6.2-3.2c3.6-3,7.8-7.3,11.3-11.1c0.1-0.1,0.3-0.2,0.5-0.2 c0.1,0,0.3,0,0.4,0.2c0.2,0.1,0.3,0.3,0.3,0.5c0,0.1-0.1,0.3-0.1,0.4c-3.6,3.8-11.5,11.2-11.5,11.2c-1.6,1.3-3.2,2.4-4.5,3.1 c-1.3,0.7-2.5,1-3.4,1C514.7,52.3,513.5,50.6,513.5,46.5L513.5,46.5z M523.6,23.7c3.2-4.9,6.4-10.1,8.3-13.8 c1.3-2.4,1.7-4.2,1.7-5.4l-0.1-0.7c-0.1-0.3-0.3-0.4-0.5-0.4l-0.5,0.1c-0.5,0.1-1,0.4-1.6,0.9c-0.9,0.7-1.9,1.9-3,3.3 c-2.4,3.4-4.8,8.4-6.8,13.8c-1.3,3.5-2.4,7.1-3.3,10.6C519.5,29.9,521.5,26.9,523.6,23.7L523.6,23.7z"/><path class="st0" d="M533.3,46.5c0-1.8,0.2-4.1,0.7-6.9c0.2-1.1,0.7-3.4,0.7-3.4c1-4.6,2.5-10,4.4-15c2-5.4,4.4-10.5,6.9-14 c1.9-2.8,4-4.4,5.5-4.9c0.4-0.1,0.7-0.2,1.1-0.2s0.7,0,0.9,0.2c0.3,0.1,0.6,0.4,0.8,0.7h0.1c0.1,0.2,0.2,0.4,0.3,0.7l0.1,0.9 c0,1.4-0.6,3.4-1.9,6c-1.9,3.7-5.2,9-8.3,13.9c-3.1,4.8-6.1,9.1-7.7,11.2c-0.4,1.5-0.7,3-0.9,4.3c-0.5,2.6-0.7,4.6-0.7,6.2 c0,2.4,0.5,3.7,1.3,4.2c0.3,0.1,0.5,0.2,0.8,0.2c1.5,0,3.7-1.3,6.2-3.2c3.6-3,7.8-7.3,11.3-11.1c0.1-0.1,0.3-0.2,0.5-0.2 c0.1,0,0.3,0,0.4,0.2c0.2,0.1,0.3,0.3,0.3,0.5c0,0.1-0.1,0.3-0.1,0.4c-3.6,3.8-11.5,11.2-11.5,11.2c-1.6,1.3-3.2,2.4-4.5,3.1 c-1.3,0.7-2.5,1-3.4,1C534.5,52.3,533.3,50.6,533.3,46.5L533.3,46.5z M543.5,23.7c3.2-4.9,6.4-10.1,8.3-13.8 c1.3-2.4,1.7-4.2,1.7-5.4l-0.1-0.7c-0.1-0.3-0.3-0.4-0.5-0.4l-0.5,0.1c-0.5,0.1-1,0.4-1.6,0.9c-0.9,0.7-1.9,1.9-3,3.3 c-2.4,3.4-4.8,8.4-6.8,13.8c-1.3,3.5-2.4,7.1-3.3,10.6C539.4,29.9,541.4,26.9,543.5,23.7L543.5,23.7z"/><path class="st1" d="M279.1,39.6c-0.1,0.2-0.2,0.4-0.3,0.6c-0.3,0.6-0.4,1.1,0,1.5l0.1,0.1c1.5,1.3,9.2-1.3,11.1-1.9 c0.1,0,0.2,0,0.2,0c0,0,0.1,0.2,0.1,0.3c0,0.1,0,0.2-0.1,0.3c0,0.1-0.1,0.2-0.2,0.2c-1.7,0.6-9.8,3.4-11.9,1.7 c-0.3-0.2-0.5-0.5-0.5-0.9c-0.1-0.5,0.1-1,0.4-1.6L279.1,39.6L279.1,39.6z"/></g></g></svg>
