<?xml version="1.0" encoding="UTF-8"?>
<svg id="Layer_2" data-name="Layer 2" xmlns="http://www.w3.org/2000/svg" viewBox="0 0 313.56 106.27">
  <defs>
    <style>
      .cls-1 {
        fill: #4d4d4f;
        stroke-width: 0px;
      }
    </style>
  </defs>
  <g id="Layer_2-2" data-name="Layer 2">
    <g>
      <path class="cls-1" d="m12.55,98.15c-3.2-.82-5.74-2.71-7.71-5.33-1.89-2.62-3.2-5.99-3.94-9.92-.57-2.95-.9-6.23-.9-9.68,0-5.58.74-11.56,2.05-17.71C6.07,36.74,16.81,19.11,27.8,8.94c4.26-3.94,8.53-6.81,12.55-8.12,1.72-.57,3.36-.82,5-.82,2.21,0,4.35.57,6.15,1.89,2.62,1.89,4.76,5.25,5.99,10.17l.16.57c.57,2.3.98,4.67,1.15,7.13.16,1.64.25,3.36.25,5,0,1.15,0,2.38-.08,3.53,0,.74-.16,1.23-.41,1.48s-.41.33-.66.33c-.33,0-.66-.25-.9-.49-.25-.25-.41-.66-.57-1.07l-.08-.66c0-.66.25-1.31.9-1.8l.16-.08c0-2.05-.08-4.1-.25-6.07-.25-2.3-.57-4.59-1.07-6.81-1.23-4.51-3.12-7.54-5.41-9.18-1.64-1.15-3.44-1.72-5.41-1.72-1.39,0-2.79.25-4.26.74-3.77,1.23-7.87,3.94-11.97,7.63-10.58,9.84-20.91,26.9-24.76,45.1-1.31,6.15-2.05,12.05-2.05,17.47,0,3.28.25,6.4.82,9.18.74,3.61,1.97,6.81,3.69,9.18,1.72,2.38,3.94,4.02,6.72,4.76,1.07.33,2.21.41,3.53.41,1.48,0,3.12-.16,4.84-.57,7.13-1.89,14.68-7.63,21.73-14.43,7.3-7.13,14.19-15.5,19.68-22.3.16-.25.41-.33.57-.33.25,0,.41.08.57.25.25.16.33.41.33.66s-.08.49-.25.66c-5.58,6.89-12.46,15.25-19.84,22.39-7.22,7.05-14.92,12.87-22.3,14.84l-.66.16c-1.8.49-3.53.74-5.08.74-1.48,0-2.79-.25-4.02-.57Z"/>
      <path class="cls-1" d="m58.71,77.08c-.66-.82-1.07-2.13-1.07-4.1,0-.82.08-1.72.25-2.79.08-.66.16-1.23.33-1.8.57-2.79,1.64-5.66,3.03-7.63,1.23-1.97,2.87-3.28,4.43-3.28l.57.08c.08,0,.16,0,.25.08.41.08.66.57.66.98h.33c.57,0,1.23.49,1.48,1.89.16.82.33,1.56.33,2.38.41.16.82.25,1.39.25,1.97,0,5.08-1.07,10-4.1l.49-.16c.25,0,.57.16.66.49.08.16.08.33.08.49,0,.33-.16.57-.41.74-5,3.12-8.45,4.26-10.74,4.26-.57,0-1.07-.08-1.48-.16-.33,4.1-2.13,7.95-4.1,10.33l-.25.33c-1.07,1.23-2.13,2.05-3.12,2.46-.41.16-.82.25-1.23.25-.74,0-1.39-.33-1.89-.98Zm3.28-1.8c.49-.16,1.15-.66,1.89-1.39,1.97-2.38,3.69-6.07,3.77-9.92-.49-.33-.82-.82-1.07-1.23-.33-.66-.41-1.31-.41-1.89v-.49c0-.33.08-.66.16-.9h-.41c-.74,0-1.56.74-2.3,2.05-1.07,1.56-1.97,3.85-2.46,6.4l-.33,1.64c-.08,1.07-.16,1.97-.16,2.79,0,.9.08,1.56.25,2.05.08.49.25.74.41.82l.33.16.33-.08Z"/>
      <path class="cls-1" d="m77.49,77.65c0-.74.08-1.72.25-2.95.49-5,2.38-13.94,3.03-16.65.16-.57.74-.9,1.23-.9.57,0,1.15.33,1.15.98l-.08.41c-.74,2.71-2.62,11.15-3.2,15.91-.08.25-.08.49-.08.74l2.05-3.94c2.79-5.33,5.9-11.32,9.27-16.15.98-1.39,1.89-2.38,2.71-2.87.33-.16.57-.33.9-.33l.49.16c.49.16.82.57.98,1.31.16.41.16.98.16,1.8,0,.74,0,1.64-.16,2.79l-.08.49c-.25,1.97-1.31,9.76-1.8,14.76,1.89-3.2,3.85-6.31,6.15-9.1,1.39-1.64,2.71-2.87,3.85-3.12l.66-.08c1.15,0,2.05.9,2.54,3.12.98,5.49,1.8,8.86,2.87,10.74.66,1.23,1.39,1.72,2.38,1.72l.9-.08c3.53-1.31,8.86-7.3,13.2-12.22,1.97-2.13,3.69-4.1,5.08-5.33.16-.16.33-.25.57-.25.16,0,.41.08.57.33.16.16.25.41.25.57,0,.33-.16.57-.33.74-1.31,1.15-3.03,3.12-4.92,5.25-4.51,5-10,11.15-13.86,12.63l-.74.16c-.57.16-1.07.25-1.56.25-1.48,0-2.62-.74-3.61-2.38-1.07-2.05-1.97-5.41-3.03-11.07-.25-1.23-.57-1.64-1.07-1.64h-.08c-2.54.57-7.13,8.61-9.51,12.63-.49.9-.9,1.56-1.23,2.05-.08.16-.33.33-.66.33h-.16c-.41,0-.66-.41-.66-.82v-.25c0-3.28,1.72-16.07,2.05-18.61l.08-.49.33-3.36c0-.41-.08-.57-.16-.57-.57,0-1.48,1.48-1.8,1.89-3.44,4.92-6.23,10.41-9.18,15.91-1.07,2.13-2.05,4.02-2.79,5.33l-.49.82c-.49.82-1.31,1.15-1.56,1.15-.57,0-.82-.66-.9-1.8Z"/>
      <path class="cls-1" d="m127.67,75.85c-.82-.74-1.23-1.97-1.31-3.44v-.66c0-3.36,1.56-7.79,3.77-10.82,2.46-3.36,4.35-4.67,5.58-4.84h.33c1.31,0,2.05.98,2.21,2.46v.82c-.16.98-.57,2.21-1.31,3.2-.98,1.31-2.54,2.3-4.59,2.3-.49,0-.98,0-1.56-.16-1.15,2.38-1.97,4.92-2.05,6.97v.66c0,.66.08,1.23.25,1.64.25.41.57.66,1.07.74h.16c1.07,0,2.71-.66,4.84-2.21l.25-.16c3.03-2.38,7.05-6.48,12.38-13.04.16-.25.41-.33.66-.33.16,0,.33,0,.49.16.16.25.25.49.25.74s-.08.41-.16.57c-5.33,6.64-9.51,10.91-12.71,13.37l-.57.41c-1.72,1.31-3.2,1.97-4.35,2.3-.49.16-.98.25-1.39.25-.9,0-1.64-.33-2.21-.9Zm7.95-14.51c.57-.66.82-1.48.9-2.21v-.25c0-.33-.08-.49-.33-.49l-.41.08c-.74.33-1.8,1.31-3.28,3.36l-.82,1.15.66.08c1.56,0,2.62-.82,3.28-1.72Z"/>
      <path class="cls-1" d="m164,82c-1.56-.25-2.54-2.87-2.54-9.43,0-3.53.25-8.2.9-14.27l.08-.33c.16-.66.49-1.15.74-1.39.16-.16.33-.25.49-.33h.33c.25,0,.49.08.74.25.16.25.33.66.33,1.15v.16c-.82,7.05-1.15,12.14-1.15,15.74,0,1.97.08,3.53.33,4.59.16.98.41,1.31.82,1.31.57,0,1.48-1.23,2.13-2.3,3.28-5.41,5.66-10.41,8.45-16.15.49-1.23,1.07-2.3,1.31-2.95.66-1.31,1.23-1.72,1.97-1.72.33,0,.74.08,1.15.33.41.33.9.66,1.31,1.07,1.15.98,2.71,2.3,5.08,2.3,1.15,0,2.46-.33,4.02-1.15l.33-.08c.33,0,.66.16.82.49l.08.41c0,.33-.16.74-.49.9-1.89.98-3.44,1.39-4.84,1.39-2.79,0-4.59-1.64-5.99-2.79-.49-.41-.82-.74-1.15-.74s-.57.25-.9.74c-.66,1.23-.9,1.8-1.23,2.62-2.38,4.84-4.67,9.68-7.3,14.27-1.07,1.89-3.28,5.9-5.58,5.9h-.25Z"/>
      <path class="cls-1" d="m190.81,57.81c.25-.16.49-.25.74-.25l.16.08c.33.08.57.33.82.74.08.16.16.33.16.57v.33c0,.16,0,.33-.08.49-1.48,6.07-2.21,10.41-2.21,13.04l.08.57c0,.57.16.82.49.82.41,0,1.07-.41,1.89-1.15,1.23-1.23,2.54-2.87,3.94-4.76,1.39-1.89,2.54-3.61,3.61-5.33.16-.25.49-.66.98-1.39.74-.9,1.15-1.56,1.39-1.8.57-.66,1.15-.98,1.8-.98.25,0,.41.08.57.33s.25.49.25.82c-.08.25-.16.49-.41.74-.08.08-.25.16-.41.16h-.16l-.16.08c0,.08-.49.74-1.56,2.05-.33.49-.57.82-.66,1.07-1.07,1.8-2.3,3.69-3.69,5.58-1.39,1.97-2.79,3.69-4.18,5.08-.74.57-1.31,1.07-1.8,1.39-.82.66-1.56.98-2.21.98-.25,0-.41,0-.57-.08-1.07-.16-1.64-1.64-1.64-4.43v-.33c0-2.71.74-7.05,2.13-13.04,0-.08,0-.16.08-.25.25-.57.41-.9.66-1.15Zm3.44-6.64v.25c0,.25,0,.41-.08.66q-.08.08-.08.16v.33c0,.25-.08.49-.33.74-.16.25-.41.33-.66.33s-.41-.08-.57-.33c-.57-.57-.82-1.07-.9-1.48v-.41c0-.25.08-.49.25-.66.25-.25.49-.41.74-.49.41,0,.82.08,1.15.25.25.25.41.41.49.66Z"/>
      <path class="cls-1" d="m198.44,87.9c-1.15,0-2.21-.57-2.62-1.8-.16-.49-.25-1.07-.25-1.72,0-1.39.41-3.2,1.48-5.41h.08l.16-.33c1.56-3.36,4.35-6.56,7.46-9.68l-.33-1.97c-.33-1.89-.66-3.61-.66-5.08v-.41c0-3.2.98-4.18,1.8-4.18.74,0,1.39.66,1.39,1.31,0,.25-.08.49-.33.66-.41.41-.57,1.07-.57,1.89v.49c0,1.31.25,2.95.57,4.76l.16.66c3.77-3.36,6.31-5.33,9.76-8.04l.41-.16c.33,0,.57.16.74.41.08.16.16.33.16.57s-.16.57-.33.74l-1.23.9c-2.79,2.21-6.15,4.84-9.18,7.71.08,1.07.16,2.13.16,3.2,0,6.15-2.05,10.58-4.35,13.12-1.31,1.39-2.79,2.21-4.02,2.38h-.49Zm3.12-3.85c1.8-2.13,3.44-5.9,3.44-11.32v-1.48c-2.71,2.62-4.92,5.49-6.23,8.2-.16.25-.25.25-.25.41-.82,1.97-1.23,3.36-1.23,4.35l.16.98c.16.49.49.66.98.66h.33c.82-.08,1.8-.74,2.79-1.8Z"/>
      <path class="cls-1" d="m217.13,57.81c.25-.16.49-.25.74-.25l.16.08c.33.08.57.33.82.74.08.16.16.33.16.57v.33c0,.16,0,.33-.08.49-1.48,6.07-2.21,10.41-2.21,13.04l.08.57c0,.57.16.82.49.82.41,0,1.07-.41,1.89-1.15,1.23-1.23,2.54-2.87,3.94-4.76,1.39-1.89,2.54-3.61,3.61-5.33.16-.25.49-.66.98-1.39.74-.9,1.15-1.56,1.39-1.8.57-.66,1.15-.98,1.8-.98.25,0,.41.08.57.33s.25.49.25.82c-.08.25-.16.49-.41.74-.08.08-.25.16-.41.16h-.16l-.16.08c0,.08-.49.74-1.56,2.05-.33.49-.57.82-.66,1.07-1.07,1.8-2.3,3.69-3.69,5.58-1.39,1.97-2.79,3.69-4.18,5.08-.74.57-1.31,1.07-1.8,1.39-.82.66-1.56.98-2.21.98-.25,0-.41,0-.57-.08-1.07-.16-1.64-1.64-1.64-4.43v-.33c0-2.71.74-7.05,2.13-13.04,0-.08,0-.16.08-.25.25-.57.41-.9.66-1.15Zm3.44-6.64v.25c0,.25,0,.41-.08.66q-.08.08-.08.16v.33c0,.25-.08.49-.33.74-.16.25-.41.33-.66.33s-.41-.08-.57-.33c-.57-.57-.82-1.07-.9-1.48v-.41c0-.25.08-.49.25-.66.25-.25.49-.41.74-.49.41,0,.82.08,1.15.25.25.25.41.41.49.66Z"/>
      <path class="cls-1" d="m225.99,105.21v-1.23c0-6.07,2.13-27.88,5.41-47.72.9-5.66,2.05-11.07,3.12-16.07l-20.58-.08c-.08.16-.16.25-.33.25-.57.25-1.15.33-1.56.33-.33,0-.66-.08-.82-.25-.33-.16-.57-.49-.66-.82,0-.33,0-.74.16-.98v-.08c.25-.25.57-.49.98-.49h.16c.57-.08,1.56-.08,2.95-.08l9.1.16,10.99.25c1.39-6.07,3.03-11.23,4.67-14.6.25-.66.98-1.48,1.72-1.64.33,0,.57,0,.9.16.25.16.41.49.49.82l.08.41c0,.41-.16.9-.41,1.48-.08.16-.25.25-.41.33-1.48,3.12-2.87,7.63-4.26,13.12h.9c8.12.08,16.56.16,23.29.16,5.99,0,10.58-.08,12.14-.33h.16c.41,0,.82.33.9.74v.16c0,.41-.33.82-.74.9-1.64.25-6.23.33-12.3.33-7.87,0-15.74-.16-24.76-.16-1.23,5.17-2.38,10.91-3.44,16.89-3.61,20.25-5.9,42.31-5.9,47.15v.25l.08.57c0,.74-.49,1.15-.98,1.15s-.9-.33-1.07-1.07Z"/>
      <path class="cls-1" d="m265.75,75.44l-.08-1.48c0-1.8.33-4.35,1.07-7.79-1.39,2.21-2.62,4.02-3.69,5.33l-.16.25c-1.39,1.64-2.46,2.62-3.36,3.2-.57.33-1.07.49-1.56.49-.74,0-1.31-.49-1.8-1.23-.41-.82-.66-2.05-.66-3.53v-.66c.16-4.1,1.97-9.92,4.18-12.14.33-.33.82-.66,1.31-.82.33,0,.74,0,1.07.25l.16.08.08.16c.08,0,.08.08.08.08.08.16.16.33.16.57s-.16.57-.33.74c-2.05,1.64-3.85,6.89-4.1,10.58v.82c0,.74.08,1.31.16,1.8.08.33.25.49.49.49h.08c.57,0,1.56-.74,2.95-2.3v-.08c1.72-2.13,3.77-5.33,6.4-10.09v-.08c.25-.33.57-.66.82-.82.25-.08.41-.08.66-.08.33.16.57.33.66.66l.08.16c0,.25,0,.57-.08.98-1.39,5.74-2.3,10.17-2.3,12.88v.33c.08.98.33,1.56.9,1.56.41,0,1.07-.25,1.72-.9,3.61-3.2,8.61-10.41,11.81-15.66.16-.25.41-.41.74-.41l.41.16c.25.16.41.49.41.82l-.16.49c-3.28,5.33-8.36,12.71-12.14,15.99-1.31,1.23-2.54,1.97-3.61,1.97-1.23,0-2.13-.82-2.38-2.79Z"/>
      <path class="cls-1" d="m276.41,87.9c-1.15,0-2.21-.57-2.62-1.8-.16-.49-.25-1.07-.25-1.72,0-1.39.41-3.2,1.48-5.41h.08l.16-.33c1.56-3.36,4.35-6.56,7.46-9.68l-.33-1.97c-.33-1.89-.66-3.61-.66-5.08v-.41c0-3.2.98-4.18,1.8-4.18.74,0,1.39.66,1.39,1.31,0,.25-.08.49-.33.66-.41.41-.57,1.07-.57,1.89v.49c0,1.31.25,2.95.57,4.76l.16.66c3.77-3.36,6.31-5.33,9.76-8.04l.41-.16c.33,0,.57.16.74.41.08.16.16.33.16.57s-.16.57-.33.74l-1.23.9c-2.79,2.21-6.15,4.84-9.18,7.71.08,1.07.16,2.13.16,3.2,0,6.15-2.05,10.58-4.35,13.12-1.31,1.39-2.79,2.21-4.02,2.38h-.49Zm3.12-3.85c1.8-2.13,3.44-5.9,3.44-11.32v-1.48c-2.71,2.62-4.92,5.49-6.23,8.2-.16.25-.25.25-.25.41-.82,1.97-1.23,3.36-1.23,4.35l.16.98c.16.49.49.66.98.66h.33c.82-.08,1.8-.74,2.79-1.8Z"/>
      <path class="cls-1" d="m303.39,89.87c-.9-.25-1.31-.82-1.31-1.31l.08-.41c.08-.49.49-.9.9-1.07.25-.16.41-.16.66-.16s.49,0,.66.16c.33.25.57.49.57.98,0,.25-.08.49-.25.82-.08.08-.16.25-.25.25v.08c-.08.41-.41.74-.82.74l-.25-.08Zm.82-9.02c0-.08-.08-.08-.08-.08h-.08v-.08l-.16-.08c0-.08-.08-.08-.08-.08v-.08h-.08l-.08-.57,7.79-72.73c0-.41.16-.9.33-1.15.08-.25.25-.33.41-.41q0-.08.08-.08c.16-.08.33-.16.49-.16.25,0,.49.08.66.41.08.16.16.41.16.66v.41l-8.28,73.39-.16.33-.08.08s0,.08-.08.08l-.16.08c-.08.08-.25.08-.33.08h-.25Z"/>
    </g>
  </g>
</svg>