<?xml version="1.0" encoding="utf-8"?>
<!-- Generator: Adobe Illustrator 27.8.1, SVG Export Plug-In . SVG Version: 6.00 Build 0)  -->
<svg version="1.1" id="Layer_2_00000114753219634728672880000006667705510835202452_"
	 xmlns="http://www.w3.org/2000/svg" xmlns:xlink="http://www.w3.org/1999/xlink" x="0px" y="0px" viewBox="0 0 131.6 61"
	 style="enable-background:new 0 0 131.6 61;" xml:space="preserve">
<style type="text/css">
	.st0{fill:#4D4D4F;stroke:#4D4D4F;stroke-miterlimit:10;}
	.st1{fill:#4D4D4F;stroke:#4D4D4F;stroke-width:0.75;stroke-miterlimit:10;}
</style>
<g id="Layer_1-2">
	<g>
		<path class="st0" d="M2.9,58.2c-0.1-0.1-0.2-0.2-0.2-0.4v-0.2c0.9-3.4,3.3-9.5,6.2-16.1c0.1-0.3,0.2-0.5,0.4-0.8v-0.1l0,0
			c0.4-1,0.9-2,1.3-3c-1.9-3.7-3.3-8.2-4.1-13.6c-0.2-1.7-0.4-3.5-0.5-5.4c-0.1-1.1-0.1-2.3-0.1-3.6l0-0.1c0-0.1,0.1-0.3,0.2-0.4
			l0.2-0.1c0.1,0,0.2,0.1,0.2,0.1s0.1,0.1,0.2,0.2l0.1,0.4c0,0.1,0,0.2,0,0.3c-0.1,0.1-0.1,0.2-0.1,0.2c0,0.9,0,1.9,0.1,2.9
			c0.1,1.8,0.3,3.5,0.5,5.2c0.7,5,2.1,9.3,3.8,12.9c1.3-2.8,2.6-5.5,3.9-8.2c4.3-8.8,8.6-16.3,10.7-17.4l0.2-0.1
			c0.3,0,0.4,0.2,0.5,0.4c0,0.3-0.1,0.7-0.2,0.8c-1.4,0.7-3.8,4.3-6.6,9.4c-2.5,4.5-5.4,10.2-8,15.9c0.9,1.7,1.9,3.3,3,4.7
			c3.9,5.2,8.4,7.8,11.6,8c0.2,0,0.3,0,0.5,0c0.2,0,0.3,0.2,0.4,0.3v0.1c0,0.1,0,0.3-0.1,0.3c-0.1,0-0.1,0.1-0.2,0.1
			c-0.2,0-0.3,0-0.5,0c-3.4-0.2-8.1-2.9-12.1-8.3c-1-1.3-1.9-2.8-2.8-4.4l-1.6,3.5c-2.9,6.6-5.2,12.6-6.1,16c0,0.2-0.2,0.2-0.3,0.3
			L2.9,58.2L2.9,58.2z"/>
		<path class="st0" d="M33.4,53c-1.6,0.2-2.9-0.6-3.7-2.7c-0.3-0.7-0.5-1.5-0.6-2.5c-0.4-2.7-0.2-6.5,0.6-11.7
			c-1.2-2.7-1.9-5.3-2.2-7.6c-0.6-4.2,0-7.8,1.2-10.7c1.5-3.4,3.9-5.9,6.6-7c0.8-0.3,1.6-0.6,2.4-0.7c2-0.3,4,0.1,5.7,1.3
			c2.4,1.7,4.3,4.9,5.1,9.9c0.2,1.5,0.3,3,0.3,4.8c0,8.7-4.6,18-9.3,23.1l0,0c-0.9,0.9-1.8,1.8-2.7,2.4l0,0.1h0
			c-1,0.7-2.1,1.2-3,1.3L33.4,53L33.4,53z M36.1,51L36.1,51c0.6-0.5,1.2-1,1.9-1.5c4.9-4.6,9.9-14.4,10-23.5c0-1.7-0.1-3.2-0.3-4.6
			c-0.7-4.7-2.5-7.8-4.7-9.3c-1.6-1.1-3.4-1.5-5.3-1.2c-0.8,0.1-1.5,0.3-2.2,0.6c-2.5,1.1-4.9,3.4-6.2,6.6
			c-1.2,2.8-1.7,6.2-1.1,10.2c0.3,2,0.9,4.2,1.8,6.5c0.2-1.3,0.5-2.8,0.9-4.2h0l0.2-1c0-0.1,0.2-0.4,0.2-0.5
			c0.1-0.1,0.2-0.1,0.3-0.1c0.2,0,0.3,0.1,0.4,0.4c0,0.1,0,0.2,0,0.4c0,0.3-0.1,0.8-0.4,1.1c-0.4,1.9-0.8,3.7-1,5.3
			c0.7,1.5,1.5,3.1,2.5,4.7c0,0.1,0,0.1,0.1,0.2c0,0.1,0,0.3-0.1,0.4c-0.1,0-0.1,0-0.2,0.1c-0.1,0-0.2,0-0.3-0.2
			c-0.8-1.3-1.6-2.6-2.2-3.9c-0.7,4.7-0.8,8-0.4,10.4l0.1,0.4c0.3,1.6,0.8,2.7,1.5,3.3c0.5,0.5,1.3,0.7,2.1,0.6l0.3,0
			C34.5,51.9,35.3,51.6,36.1,51L36.1,51z"/>
		<path class="st0" d="M51.7,50.9c-0.1-0.1-0.2-0.2-0.2-0.4v-0.2c0.9-3.4,3.3-9.5,6.2-16.1c0.1-0.3,0.2-0.5,0.4-0.8v-0.1l0,0
			c0.4-1,0.9-2,1.3-3c-1.9-3.7-3.3-8.2-4.1-13.6c-0.2-1.7-0.4-3.5-0.5-5.4c-0.1-1.1-0.1-2.3-0.1-3.6l0-0.1c0-0.1,0.1-0.3,0.2-0.4
			L55,7.1c0.1,0,0.2,0.1,0.2,0.1s0.1,0.1,0.2,0.2l0.1,0.4c0,0.1,0,0.2,0,0.3c0,0.1-0.1,0.2-0.1,0.2c0,0.9,0,1.9,0.1,2.9
			c0.1,1.8,0.3,3.6,0.5,5.2c0.7,5,2.1,9.4,3.8,12.9c1.3-2.8,2.6-5.5,3.9-8.2c4.3-8.8,8.6-16.3,10.7-17.4l0.2-0.1
			c0.3,0,0.4,0.2,0.5,0.4C75.1,4.5,75,4.9,74.8,5c-1.4,0.7-3.8,4.3-6.6,9.4c-2.5,4.5-5.4,10.2-8,15.9c0.9,1.7,1.9,3.4,3,4.7
			c3.9,5.2,8.4,7.8,11.6,8c0.2,0,0.3,0,0.5,0c0.2,0,0.3,0.2,0.4,0.3v0.1c0,0.1,0,0.3-0.1,0.3c-0.1,0-0.1,0.1-0.2,0.1
			c-0.2,0-0.3,0-0.5,0c-3.4-0.2-8.1-2.9-12.1-8.3c-1-1.3-1.9-2.8-2.8-4.4l-1.6,3.5c-2.9,6.6-5.2,12.6-6.1,16c0,0.2-0.2,0.2-0.3,0.3
			L51.7,50.9L51.7,50.9z"/>
		<path class="st0" d="M85.2,45.5c-1.6,0.2-2.9-0.6-3.7-2.7c-0.3-0.7-0.5-1.5-0.6-2.5c-0.4-2.7-0.2-6.5,0.6-11.7
			c-1.2-2.7-1.9-5.3-2.2-7.6c-0.6-4.2,0-7.8,1.2-10.7c1.5-3.4,3.9-5.9,6.6-7c0.8-0.3,1.6-0.6,2.4-0.7c2-0.3,4,0.1,5.7,1.3
			c2.4,1.7,4.3,4.9,5.1,9.9c0.2,1.5,0.3,3,0.3,4.8c-0.1,8.7-4.6,18-9.3,23.1l0,0c-0.9,0.9-1.8,1.8-2.7,2.4l-0.1,0.1h0
			c-1.1,0.7-2.1,1.2-3,1.3L85.2,45.5L85.2,45.5z M87.9,43.5L87.9,43.5c0.7-0.5,1.2-1,1.9-1.5c4.9-4.6,9.9-14.4,10-23.5
			c0-1.7-0.1-3.2-0.3-4.6c-0.7-4.7-2.5-7.7-4.7-9.3c-1.6-1.1-3.4-1.5-5.3-1.2c-0.8,0.1-1.5,0.3-2.2,0.6c-2.5,1.1-4.8,3.4-6.2,6.7
			c-1.2,2.8-1.7,6.2-1.1,10.2c0.3,2,0.9,4.2,1.8,6.5c0.2-1.3,0.5-2.8,0.8-4.2h0l0.2-1c0.1-0.1,0.2-0.4,0.2-0.5
			c0.1-0.1,0.2-0.1,0.3-0.1c0.2,0,0.3,0.1,0.4,0.4c0,0.1,0,0.2,0,0.4c0,0.3-0.1,0.8-0.4,1.1c-0.4,1.9-0.8,3.7-1,5.3
			c0.7,1.5,1.5,3.1,2.5,4.7c0,0.1,0.1,0.1,0.1,0.2c0,0.1,0,0.3-0.1,0.4c-0.1,0-0.1,0-0.2,0.1c-0.1,0-0.2,0-0.3-0.2
			c-0.8-1.3-1.6-2.6-2.2-3.9c-0.7,4.6-0.8,8-0.4,10.4l0.1,0.4c0.3,1.6,0.8,2.7,1.5,3.3c0.6,0.5,1.3,0.7,2.1,0.6l0.3,0
			C86.2,44.4,87,44.1,87.9,43.5L87.9,43.5z"/>
		<path class="st1" d="M105.9,31.3l-0.1-0.5c-0.2-1,0-3.1-0.1-4c-0.5,0.8-2.3,3-2.3,3c-0.2,0.2-0.5,0.3-0.7,0.4
			c-0.4,0-0.6-0.3-0.7-0.9l0-0.6c0-0.9,0.3-2.1,0.7-3.3c0.6-1.4,1.4-2.6,2.4-2.8c0.2,0,0.4,0,0.7,0c0.2,0.1,0.3,0.3,0.3,0.5l0,0.3
			c0,0.1-0.1,0.2-0.3,0.2c-0.1,0-0.1,0-0.2,0c-0.1-0.1-0.1-0.1-0.2-0.1c-1.4-0.2-2.3,2-2.8,3.5c-0.2,0.5-0.1,1.1,0,1.4
			c0,0.2,0,0.3,0.2,0.5c0.1,0,0,0,0,0h0.1l0.5-0.3c0.6-0.7,1.7-2.2,2.6-5.2c0,0,0.1-0.1,0.3-0.4l0.1,0l0.1,0c0.1,0,0.2,0.1,0.3,0.2
			l0.1,0.2v0.3c-0.3,2.5-0.5,5-0.3,6.5l0,0.1c0.1,0.6,0.3,0.9,0.6,0.8c0.2,0,0.4-0.2,0.7-0.5c0.2-0.2,0.4-0.5,0.6-0.7
			c1.2-1.6,2.5-4.3,3.8-7.4c0.1-0.1,0.1-0.2,0.2-0.2l0.2,0c0.1,0.1,0.2,0.2,0.2,0.3s0,0.2,0,0.3c-1.7,3.9-3.4,7.2-4.7,8.6l-0.5,0.5
			l-0.1,0c-0.3,0.2-0.6,0.3-0.8,0.3l-0.1,0C106.5,32.5,106.1,32.1,105.9,31.3z"/>
		<path class="st1" d="M113.5,43.1l-0.1-0.5c-0.4-2.7-0.9-12.3-0.8-21.2c0-2.5,0.1-5,0.2-7.2l-8.4,1.2c0,0.1-0.1,0.1-0.1,0.1
			c-0.2,0.1-0.4,0.2-0.6,0.2c-0.1,0-0.3,0-0.3-0.1c-0.1-0.1-0.3-0.2-0.3-0.3c0-0.1-0.1-0.3,0-0.4v0c0.1-0.1,0.2-0.2,0.4-0.3h0.1
			c0.2-0.1,0.6-0.1,1.2-0.2l3.7-0.5l4.5-0.5c0.2-2.7,0.5-5.1,1-6.7c0.1-0.3,0.3-0.7,0.6-0.8c0.1,0,0.2,0,0.4,0
			c0.1,0.1,0.2,0.2,0.2,0.3l0.1,0.2c0,0.2,0,0.4-0.1,0.7c0,0.1-0.1,0.1-0.2,0.2c-0.4,1.4-0.7,3.5-0.9,6l0.4-0.1
			c3.3-0.4,6.7-0.9,9.5-1.3c2.4-0.4,4.3-0.6,4.9-0.9h0.1c0.2,0,0.3,0.1,0.4,0.3v0.1c0,0.2-0.1,0.4-0.2,0.4c-0.6,0.2-2.5,0.5-5,0.9
			c-3.2,0.5-6.4,0.9-10.1,1.4c-0.2,2.3-0.3,4.9-0.3,7.6c-0.2,9.1,0.3,18.9,0.6,21l0,0.1l0.1,0.2c0.1,0.3-0.1,0.5-0.3,0.6
			C113.8,43.5,113.6,43.4,113.5,43.1L113.5,43.1z"/>
		<path class="st1" d="M117.4,34.8c-0.5,0.1-0.9-0.1-1.2-0.6c-0.1-0.2-0.2-0.5-0.2-0.7c-0.1-0.6,0-1.4,0.3-2.5h0l0.1-0.2
			c0.4-1.6,1.3-3.1,2.4-4.7l-0.3-0.8c-0.2-0.8-0.5-1.5-0.6-2.2l0-0.2c-0.2-1.4,0.1-1.9,0.5-1.9c0.3,0,0.6,0.2,0.7,0.5
			c0,0.1,0,0.2-0.1,0.3c-0.1,0.2-0.2,0.5-0.1,0.9l0,0.2c0.1,0.6,0.3,1.3,0.5,2l0.1,0.3c1.3-1.7,2.2-2.7,3.5-4.1l0.2-0.1
			c0.1,0,0.2,0,0.3,0.1c0,0.1,0.1,0.1,0.1,0.2s0,0.3-0.1,0.3l-0.4,0.5c-1,1.1-2.2,2.5-3.2,3.9c0.1,0.5,0.2,0.9,0.3,1.4
			c0.4,2.7-0.2,4.7-0.9,6c-0.4,0.7-1,1.1-1.5,1.3C117.6,34.7,117.4,34.8,117.4,34.8z M118.4,32.9c0.6-1,1-2.8,0.7-5.2l-0.1-0.6
			c-0.9,1.3-1.7,2.7-2,4c-0.1,0.1-0.1,0.1-0.1,0.2c-0.2,0.9-0.3,1.5-0.2,2l0.1,0.4c0.1,0.2,0.2,0.3,0.4,0.2l0.1,0
			C117.7,33.8,118.1,33.4,118.4,32.9z"/>
	</g>
</g>
</svg>
